<svg viewBox="0, 0, 1000, 60" width="100%" height="100%" xmlns="http://www.w3.org/2000/svg">

<text x="0" y="30">
47 Syrtos
</text>
<line x1="200" y1="0" x2="1000" y2="0" stroke="lightgray"/>
<line x1="200" y1="20.0" x2="1000" y2="20.0" stroke="lightgray"/>
<line x1="200" y1="40.0" x2="1000" y2="40.0" stroke="lightgray"/>
<line x1="200" y1="60" x2="1000" y2="60" stroke="lightgray"/>
<line x1="200.0" y1="0" x2="200.0" y2="60" stroke="lightgray"/>
<line x1="400.0" y1="0" x2="400.0" y2="60" stroke="lightgray"/>
<line x1="600.0" y1="0" x2="600.0" y2="60" stroke="lightgray"/>
<line x1="800.0" y1="0" x2="800.0" y2="60" stroke="lightgray"/>
<line x1="1000.0" y1="0" x2="1000.0" y2="60" stroke="lightgray"/>
<circle cx="310.58635637691077" cy="15.0" r="2" stroke="black" fill="black"/>
<circle cx="348.9162673967602" cy="12.666666666666666" r="2" stroke="black" fill="black"/>
<circle cx="383.4360027378508" cy="19.666666666666668" r="2" stroke="black" fill="black"/>
<circle cx="406.4339493497605" cy="0.33333333333333337" r="2" stroke="black" fill="black"/>
<circle cx="417.9329226557153" cy="1.0" r="2" stroke="black" fill="black"/>
<circle cx="421.7659137577002" cy="8.0" r="2" stroke="black" fill="black"/>
<circle cx="429.4318959616701" cy="14.333333333333334" r="2" stroke="black" fill="black"/>
<circle cx="444.74104494638374" cy="7.666666666666666" r="2" stroke="black" fill="black"/>
<circle cx="460.0730093543235" cy="11.0" r="2" stroke="black" fill="black"/>
<circle cx="467.7389915582934" cy="5.333333333333334" r="2" stroke="black" fill="black"/>
<circle cx="475.4049737622633" cy="18.333333333333336" r="2" stroke="black" fill="black"/>
<circle cx="494.569929272188" cy="16.666666666666668" r="2" stroke="black" fill="black"/>
<circle cx="502.23591147615787" cy="9.333333333333334" r="2" stroke="black" fill="black"/>
<circle cx="506.0689025781428" cy="42.333333333333336" r="2" stroke="black" fill="black"/>
<circle cx="536.7328313940224" cy="10.333333333333334" r="2" stroke="black" fill="black"/>
<circle cx="552.0647958019622" cy="27.333333333333332" r="2" stroke="black" fill="black"/>
<circle cx="571.252566735113" cy="10.0" r="2" stroke="black" fill="black"/>
<circle cx="586.5845311430527" cy="17.0" r="2" stroke="black" fill="black"/>
<circle cx="598.0835044490075" cy="19.666666666666668" r="2" stroke="black" fill="black"/>
<circle cx="628.747433264887" cy="10.666666666666668" r="2" stroke="black" fill="black"/>
<circle cx="632.580424366872" cy="12.0" r="2" stroke="black" fill="black"/>
<circle cx="655.5555555555555" cy="32.33333333333333" r="2" stroke="black" fill="black"/>
<circle cx="682.3864932694502" cy="13.0" r="2" stroke="black" fill="black"/>
<circle cx="701.5514487793749" cy="11.666666666666666" r="2" stroke="black" fill="black"/>
<circle cx="728.3823864932695" cy="1.6666666666666665" r="2" stroke="black" fill="black"/>
<circle cx="759.0463153091489" cy="29.666666666666668" r="2" stroke="black" fill="black"/>
<circle cx="805.0650239561944" cy="2.0" r="2" stroke="black" fill="black"/>
<circle cx="828.062970568104" cy="3.6666666666666665" r="2" stroke="black" fill="black"/>
<circle cx="881.7020305726671" cy="13.666666666666666" r="2" stroke="black" fill="black"/>
<circle cx="889.368012776637" cy="18.666666666666668" r="2" stroke="black" fill="black"/>
<circle cx="904.6999771845767" cy="5.666666666666666" r="2" stroke="black" fill="black"/>
<circle cx="939.1968971024412" cy="19.333333333333336" r="2" stroke="black" fill="black"/>
<circle cx="950.6958704083961" cy="27.0" r="2" stroke="black" fill="black"/>
<circle cx="973.7166324435318" cy="2.666666666666667" r="2" stroke="black" fill="black"/>
<circle cx="977.5496235455169" cy="53.66666666666667" r="2" stroke="black" fill="black"/>
<circle cx="341.25028519279033" cy="0.6666666666666667" r="2" stroke="blue" fill="blue"/>
<circle cx="371.93702943189595" cy="12.333333333333332" r="2" stroke="blue" fill="blue"/>
<circle cx="483.0709559662332" cy="18.333333333333336" r="2" stroke="blue" fill="blue"/>
<circle cx="517.5678758840976" cy="13.333333333333332" r="2" stroke="blue" fill="blue"/>
<circle cx="686.219484371435" cy="4.0" r="2" stroke="blue" fill="blue"/>
<circle cx="736.0483686972393" cy="23.0" r="2" stroke="blue" fill="blue"/>
<circle cx="751.380333105179" cy="11.333333333333332" r="2" stroke="blue" fill="blue"/>
<circle cx="851.0381017567876" cy="8.666666666666666" r="2" stroke="blue" fill="blue"/>
<circle cx="858.7040839607574" cy="16.0" r="2" stroke="green" fill="green"/>
<circle cx="920.0319415925167" cy="6.0" r="2" stroke="red" fill="red"/>
</svg>
