<svg viewBox="0, 0, 1000, 60" width="100%" height="100%" xmlns="http://www.w3.org/2000/svg">

<text x="0" y="30">
25 Majka Na Jane
</text>
<line x1="200" y1="0" x2="1000" y2="0" stroke="lightgray"/>
<line x1="200" y1="20.0" x2="1000" y2="20.0" stroke="lightgray"/>
<line x1="200" y1="40.0" x2="1000" y2="40.0" stroke="lightgray"/>
<line x1="200" y1="60" x2="1000" y2="60" stroke="lightgray"/>
<line x1="200.0" y1="0" x2="200.0" y2="60" stroke="lightgray"/>
<line x1="400.0" y1="0" x2="400.0" y2="60" stroke="lightgray"/>
<line x1="600.0" y1="0" x2="600.0" y2="60" stroke="lightgray"/>
<line x1="800.0" y1="0" x2="800.0" y2="60" stroke="lightgray"/>
<line x1="1000.0" y1="0" x2="1000.0" y2="60" stroke="lightgray"/>
<circle cx="341.25028519279033" cy="49.0" r="2" stroke="black" fill="black"/>
<circle cx="356.58224960073005" cy="43.666666666666664" r="2" stroke="black" fill="black"/>
<circle cx="371.93702943189595" cy="53.66666666666667" r="2" stroke="black" fill="black"/>
<circle cx="383.4360027378508" cy="46.0" r="2" stroke="black" fill="black"/>
<circle cx="398.7679671457905" cy="29.666666666666668" r="2" stroke="black" fill="black"/>
<circle cx="406.4339493497605" cy="51.66666666666667" r="2" stroke="black" fill="black"/>
<circle cx="421.7659137577002" cy="28.333333333333332" r="2" stroke="black" fill="black"/>
<circle cx="437.09787816564" cy="37.333333333333336" r="2" stroke="black" fill="black"/>
<circle cx="444.74104494638374" cy="40.0" r="2" stroke="black" fill="black"/>
<circle cx="460.0730093543235" cy="49.0" r="2" stroke="black" fill="black"/>
<circle cx="467.7389915582934" cy="53.66666666666667" r="2" stroke="black" fill="black"/>
<circle cx="496.2126397444673" cy="52.333333333333336" r="2" stroke="black" fill="black"/>
<circle cx="529.0668491900525" cy="35.666666666666664" r="2" stroke="black" fill="black"/>
<circle cx="536.7328313940224" cy="32.666666666666664" r="2" stroke="black" fill="black"/>
<circle cx="586.5845311430527" cy="51.66666666666667" r="2" stroke="black" fill="black"/>
<circle cx="601.9164955509924" cy="35.666666666666664" r="2" stroke="black" fill="black"/>
<circle cx="628.747433264887" cy="43.0" r="2" stroke="black" fill="black"/>
<circle cx="716.8834131873147" cy="54.0" r="2" stroke="black" fill="black"/>
<circle cx="736.0483686972393" cy="33.666666666666664" r="2" stroke="black" fill="black"/>
<circle cx="751.380333105179" cy="53.0" r="2" stroke="black" fill="black"/>
<circle cx="843.3721195528177" cy="41.333333333333336" r="2" stroke="black" fill="black"/>
<circle cx="881.7020305726671" cy="39.0" r="2" stroke="black" fill="black"/>
<circle cx="897.0339949806068" cy="54.0" r="2" stroke="black" fill="black"/>
<circle cx="912.3659593885467" cy="47.666666666666664" r="2" stroke="black" fill="black"/>
<circle cx="325.91832078485055" cy="51.0" r="2" stroke="blue" fill="blue"/>
</svg>
