<svg viewBox="0, 0, 1000, 60" width="100%" height="100%" xmlns="http://www.w3.org/2000/svg">

<text x="0" y="30">
23 Pajdusko
</text>
<line x1="200" y1="0" x2="1000" y2="0" stroke="lightgray"/>
<line x1="200" y1="20.0" x2="1000" y2="20.0" stroke="lightgray"/>
<line x1="200" y1="40.0" x2="1000" y2="40.0" stroke="lightgray"/>
<line x1="200" y1="60" x2="1000" y2="60" stroke="lightgray"/>
<line x1="200.0" y1="0" x2="200.0" y2="60" stroke="lightgray"/>
<line x1="400.0" y1="0" x2="400.0" y2="60" stroke="lightgray"/>
<line x1="600.0" y1="0" x2="600.0" y2="60" stroke="lightgray"/>
<line x1="800.0" y1="0" x2="800.0" y2="60" stroke="lightgray"/>
<line x1="1000.0" y1="0" x2="1000.0" y2="60" stroke="lightgray"/>
<circle cx="406.4339493497605" cy="24.666666666666664" r="2" stroke="black" fill="black"/>
<circle cx="452.40702715035366" cy="26.666666666666664" r="2" stroke="black" fill="black"/>
<circle cx="467.7389915582934" cy="38.66666666666667" r="2" stroke="black" fill="black"/>
<circle cx="559.730778005932" cy="45.666666666666664" r="2" stroke="black" fill="black"/>
<circle cx="598.0835044490075" cy="38.0" r="2" stroke="black" fill="black"/>
<circle cx="601.9164955509924" cy="18.666666666666668" r="2" stroke="black" fill="black"/>
<circle cx="812.7310061601643" cy="31.666666666666668" r="2" stroke="black" fill="black"/>
<circle cx="835.7289527720739" cy="29.666666666666668" r="2" stroke="black" fill="black"/>
<circle cx="920.0319415925167" cy="27.333333333333332" r="2" stroke="black" fill="black"/>
<circle cx="973.7166324435318" cy="43.666666666666664" r="2" stroke="black" fill="black"/>
<circle cx="348.9162673967602" cy="33.333333333333336" r="2" stroke="blue" fill="blue"/>
<circle cx="391.10198494182066" cy="19.0" r="2" stroke="blue" fill="blue"/>
<circle cx="417.9329226557153" cy="27.666666666666668" r="2" stroke="blue" fill="blue"/>
<circle cx="483.0709559662332" cy="43.0" r="2" stroke="blue" fill="blue"/>
<circle cx="517.5678758840976" cy="15.333333333333332" r="2" stroke="blue" fill="blue"/>
<circle cx="398.7679671457905" cy="21.666666666666668" r="2" stroke="green" fill="green"/>
<circle cx="494.569929272188" cy="18.0" r="2" stroke="green" fill="green"/>
<circle cx="663.2215377595254" cy="36.0" r="2" stroke="green" fill="green"/>
<circle cx="939.1968971024412" cy="26.666666666666664" r="2" stroke="green" fill="green"/>
<circle cx="364.2482318047" cy="8.333333333333334" r="2" stroke="red" fill="red"/>
<circle cx="966.0278348163358" cy="28.666666666666668" r="2" stroke="red" fill="red"/>
<circle cx="686.219484371435" cy="47.0" r="2" stroke="orange" fill="orange"/>
</svg>
