<svg viewBox="0, 0, 1000, 60" width="100%" height="100%" xmlns="http://www.w3.org/2000/svg">

<text x="0" y="30">
22 Lesnoto
</text>
<line x1="200" y1="0" x2="1000" y2="0" stroke="lightgray"/>
<line x1="200" y1="20.0" x2="1000" y2="20.0" stroke="lightgray"/>
<line x1="200" y1="40.0" x2="1000" y2="40.0" stroke="lightgray"/>
<line x1="200" y1="60" x2="1000" y2="60" stroke="lightgray"/>
<line x1="200.0" y1="0" x2="200.0" y2="60" stroke="lightgray"/>
<line x1="400.0" y1="0" x2="400.0" y2="60" stroke="lightgray"/>
<line x1="600.0" y1="0" x2="600.0" y2="60" stroke="lightgray"/>
<line x1="800.0" y1="0" x2="800.0" y2="60" stroke="lightgray"/>
<line x1="1000.0" y1="0" x2="1000.0" y2="60" stroke="lightgray"/>
<circle cx="371.93702943189595" cy="22.333333333333336" r="2" stroke="black" fill="black"/>
<circle cx="391.10198494182066" cy="22.333333333333336" r="2" stroke="black" fill="black"/>
<circle cx="483.0709559662332" cy="1.6666666666666665" r="2" stroke="black" fill="black"/>
<circle cx="502.23591147615787" cy="8.333333333333334" r="2" stroke="black" fill="black"/>
<circle cx="517.5678758840976" cy="0.6666666666666667" r="2" stroke="black" fill="black"/>
<circle cx="586.5845311430527" cy="4.0" r="2" stroke="black" fill="black"/>
<circle cx="716.8834131873147" cy="11.666666666666666" r="2" stroke="black" fill="black"/>
<circle cx="828.062970568104" cy="6.333333333333333" r="2" stroke="black" fill="black"/>
<circle cx="835.7289527720739" cy="4.333333333333333" r="2" stroke="black" fill="black"/>
<circle cx="881.7020305726671" cy="8.0" r="2" stroke="black" fill="black"/>
<circle cx="889.368012776637" cy="1.3333333333333335" r="2" stroke="black" fill="black"/>
<circle cx="920.0319415925167" cy="2.3333333333333335" r="2" stroke="black" fill="black"/>
<circle cx="939.1968971024412" cy="2.3333333333333335" r="2" stroke="black" fill="black"/>
<circle cx="950.6958704083961" cy="3.0" r="2" stroke="black" fill="black"/>
<circle cx="598.0835044490075" cy="12.333333333333332" r="2" stroke="blue" fill="blue"/>
<circle cx="954.528861510381" cy="14.333333333333334" r="2" stroke="green" fill="green"/>
</svg>
