<svg viewBox="0, 0, 1000, 60" width="100%" height="100%" xmlns="http://www.w3.org/2000/svg">

<text x="0" y="30">
42 Mori Shej
</text>
<line x1="200" y1="0" x2="1000" y2="0" stroke="lightgray"/>
<line x1="200" y1="20.0" x2="1000" y2="20.0" stroke="lightgray"/>
<line x1="200" y1="40.0" x2="1000" y2="40.0" stroke="lightgray"/>
<line x1="200" y1="60" x2="1000" y2="60" stroke="lightgray"/>
<line x1="200.0" y1="0" x2="200.0" y2="60" stroke="lightgray"/>
<line x1="400.0" y1="0" x2="400.0" y2="60" stroke="lightgray"/>
<line x1="600.0" y1="0" x2="600.0" y2="60" stroke="lightgray"/>
<line x1="800.0" y1="0" x2="800.0" y2="60" stroke="lightgray"/>
<line x1="1000.0" y1="0" x2="1000.0" y2="60" stroke="lightgray"/>
<circle cx="421.7659137577002" cy="15.333333333333332" r="2" stroke="black" fill="black"/>
<circle cx="444.74104494638374" cy="18.666666666666668" r="2" stroke="black" fill="black"/>
<circle cx="460.0730093543235" cy="1.3333333333333335" r="2" stroke="black" fill="black"/>
<circle cx="467.7389915582934" cy="3.6666666666666665" r="2" stroke="black" fill="black"/>
<circle cx="475.4049737622633" cy="12.0" r="2" stroke="black" fill="black"/>
<circle cx="483.0709559662332" cy="4.0" r="2" stroke="black" fill="black"/>
<circle cx="502.23591147615787" cy="38.0" r="2" stroke="black" fill="black"/>
<circle cx="506.0689025781428" cy="0.6666666666666667" r="2" stroke="black" fill="black"/>
<circle cx="517.5678758840976" cy="4.666666666666667" r="2" stroke="black" fill="black"/>
<circle cx="529.0668491900525" cy="4.333333333333333" r="2" stroke="black" fill="black"/>
<circle cx="571.252566735113" cy="4.666666666666667" r="2" stroke="black" fill="black"/>
<circle cx="586.5845311430527" cy="9.666666666666668" r="2" stroke="black" fill="black"/>
<circle cx="598.0835044490075" cy="16.0" r="2" stroke="black" fill="black"/>
<circle cx="601.9164955509924" cy="3.6666666666666665" r="2" stroke="black" fill="black"/>
<circle cx="628.747433264887" cy="2.666666666666667" r="2" stroke="black" fill="black"/>
<circle cx="663.2215377595254" cy="9.0" r="2" stroke="black" fill="black"/>
<circle cx="670.8875199634953" cy="1.3333333333333335" r="2" stroke="black" fill="black"/>
<circle cx="736.0483686972393" cy="3.333333333333333" r="2" stroke="black" fill="black"/>
<circle cx="759.0463153091489" cy="5.0" r="2" stroke="black" fill="black"/>
<circle cx="774.4010951403149" cy="5.0" r="2" stroke="black" fill="black"/>
<circle cx="782.0670773442847" cy="7.333333333333333" r="2" stroke="black" fill="black"/>
<circle cx="812.7310061601643" cy="2.0" r="2" stroke="black" fill="black"/>
<circle cx="828.062970568104" cy="2.3333333333333335" r="2" stroke="black" fill="black"/>
<circle cx="835.7289527720739" cy="5.0" r="2" stroke="black" fill="black"/>
<circle cx="843.3721195528177" cy="2.3333333333333335" r="2" stroke="black" fill="black"/>
<circle cx="881.7020305726671" cy="9.0" r="2" stroke="black" fill="black"/>
<circle cx="889.368012776637" cy="3.0" r="2" stroke="black" fill="black"/>
<circle cx="904.6999771845767" cy="7.0" r="2" stroke="black" fill="black"/>
<circle cx="920.0319415925167" cy="3.333333333333333" r="2" stroke="black" fill="black"/>
<circle cx="950.6958704083961" cy="12.666666666666666" r="2" stroke="black" fill="black"/>
<circle cx="977.5496235455169" cy="4.666666666666667" r="2" stroke="black" fill="black"/>
</svg>
