<svg viewBox="0, 0, 1000, 60" width="100%" height="100%" xmlns="http://www.w3.org/2000/svg">

<text x="0" y="30">
21 Sej Sej Bob
</text>
<line x1="200" y1="0" x2="1000" y2="0" stroke="lightgray"/>
<line x1="200" y1="20.0" x2="1000" y2="20.0" stroke="lightgray"/>
<line x1="200" y1="40.0" x2="1000" y2="40.0" stroke="lightgray"/>
<line x1="200" y1="60" x2="1000" y2="60" stroke="lightgray"/>
<line x1="200.0" y1="0" x2="200.0" y2="60" stroke="lightgray"/>
<line x1="400.0" y1="0" x2="400.0" y2="60" stroke="lightgray"/>
<line x1="600.0" y1="0" x2="600.0" y2="60" stroke="lightgray"/>
<line x1="800.0" y1="0" x2="800.0" y2="60" stroke="lightgray"/>
<line x1="1000.0" y1="0" x2="1000.0" y2="60" stroke="lightgray"/>
<circle cx="337.4172940908054" cy="45.0" r="2" stroke="black" fill="black"/>
<circle cx="364.2482318047" cy="14.0" r="2" stroke="black" fill="black"/>
<circle cx="371.93702943189595" cy="15.333333333333332" r="2" stroke="black" fill="black"/>
<circle cx="398.7679671457905" cy="44.0" r="2" stroke="black" fill="black"/>
<circle cx="417.9329226557153" cy="25.333333333333332" r="2" stroke="black" fill="black"/>
<circle cx="460.0730093543235" cy="40.66666666666667" r="2" stroke="black" fill="black"/>
<circle cx="475.4049737622633" cy="38.33333333333333" r="2" stroke="black" fill="black"/>
<circle cx="483.0709559662332" cy="46.666666666666664" r="2" stroke="black" fill="black"/>
<circle cx="494.569929272188" cy="48.666666666666664" r="2" stroke="black" fill="black"/>
<circle cx="517.5678758840976" cy="52.0" r="2" stroke="black" fill="black"/>
<circle cx="536.7328313940224" cy="42.66666666666667" r="2" stroke="black" fill="black"/>
<circle cx="552.0647958019622" cy="42.333333333333336" r="2" stroke="black" fill="black"/>
<circle cx="586.5845311430527" cy="55.0" r="2" stroke="black" fill="black"/>
<circle cx="601.9164955509924" cy="16.666666666666668" r="2" stroke="black" fill="black"/>
<circle cx="628.747433264887" cy="32.33333333333333" r="2" stroke="black" fill="black"/>
<circle cx="682.3864932694502" cy="34.33333333333333" r="2" stroke="black" fill="black"/>
<circle cx="686.219484371435" cy="35.666666666666664" r="2" stroke="black" fill="black"/>
<circle cx="728.3823864932695" cy="54.666666666666664" r="2" stroke="black" fill="black"/>
<circle cx="736.0483686972393" cy="53.33333333333333" r="2" stroke="black" fill="black"/>
<circle cx="866.3700661647274" cy="34.0" r="2" stroke="black" fill="black"/>
<circle cx="939.1968971024412" cy="41.666666666666664" r="2" stroke="black" fill="black"/>
</svg>
