<svg viewBox="0, 0, 1000, 60" width="100%" height="100%" xmlns="http://www.w3.org/2000/svg">

<text x="0" y="30">
20 Dagmat
</text>
<line x1="200" y1="0" x2="1000" y2="0" stroke="lightgray"/>
<line x1="200" y1="20.0" x2="1000" y2="20.0" stroke="lightgray"/>
<line x1="200" y1="40.0" x2="1000" y2="40.0" stroke="lightgray"/>
<line x1="200" y1="60" x2="1000" y2="60" stroke="lightgray"/>
<line x1="200.0" y1="0" x2="200.0" y2="60" stroke="lightgray"/>
<line x1="400.0" y1="0" x2="400.0" y2="60" stroke="lightgray"/>
<line x1="600.0" y1="0" x2="600.0" y2="60" stroke="lightgray"/>
<line x1="800.0" y1="0" x2="800.0" y2="60" stroke="lightgray"/>
<line x1="1000.0" y1="0" x2="1000.0" y2="60" stroke="lightgray"/>
<circle cx="348.9162673967602" cy="8.333333333333334" r="2" stroke="black" fill="black"/>
<circle cx="383.4360027378508" cy="6.666666666666666" r="2" stroke="black" fill="black"/>
<circle cx="398.7679671457905" cy="23.333333333333332" r="2" stroke="black" fill="black"/>
<circle cx="496.2126397444673" cy="32.666666666666664" r="2" stroke="black" fill="black"/>
<circle cx="502.23591147615787" cy="13.0" r="2" stroke="black" fill="black"/>
<circle cx="536.7328313940224" cy="6.333333333333333" r="2" stroke="black" fill="black"/>
<circle cx="559.730778005932" cy="8.666666666666666" r="2" stroke="black" fill="black"/>
<circle cx="632.580424366872" cy="23.333333333333332" r="2" stroke="black" fill="black"/>
<circle cx="663.2215377595254" cy="34.33333333333333" r="2" stroke="black" fill="black"/>
<circle cx="678.5535021674652" cy="5.666666666666666" r="2" stroke="black" fill="black"/>
<circle cx="897.0339949806068" cy="14.0" r="2" stroke="black" fill="black"/>
<circle cx="920.0319415925167" cy="4.333333333333333" r="2" stroke="black" fill="black"/>
<circle cx="950.6958704083961" cy="15.333333333333332" r="2" stroke="black" fill="black"/>
<circle cx="977.5496235455169" cy="51.66666666666667" r="2" stroke="black" fill="black"/>
<circle cx="364.2482318047" cy="23.0" r="2" stroke="blue" fill="blue"/>
<circle cx="467.7389915582934" cy="10.0" r="2" stroke="blue" fill="blue"/>
<circle cx="966.0278348163358" cy="27.666666666666668" r="2" stroke="blue" fill="blue"/>
</svg>
