<svg viewBox="0, 0, 1000, 60" width="100%" height="100%" xmlns="http://www.w3.org/2000/svg">

<text x="0" y="30">
19 Valle Zagorishte
</text>
<line x1="200" y1="0" x2="1000" y2="0" stroke="lightgray"/>
<line x1="200" y1="20.0" x2="1000" y2="20.0" stroke="lightgray"/>
<line x1="200" y1="40.0" x2="1000" y2="40.0" stroke="lightgray"/>
<line x1="200" y1="60" x2="1000" y2="60" stroke="lightgray"/>
<line x1="200.0" y1="0" x2="200.0" y2="60" stroke="lightgray"/>
<line x1="400.0" y1="0" x2="400.0" y2="60" stroke="lightgray"/>
<line x1="600.0" y1="0" x2="600.0" y2="60" stroke="lightgray"/>
<line x1="800.0" y1="0" x2="800.0" y2="60" stroke="lightgray"/>
<line x1="1000.0" y1="0" x2="1000.0" y2="60" stroke="lightgray"/>
<circle cx="310.58635637691077" cy="37.333333333333336" r="2" stroke="black" fill="black"/>
<circle cx="337.4172940908054" cy="28.333333333333332" r="2" stroke="black" fill="black"/>
<circle cx="348.9162673967602" cy="19.666666666666668" r="2" stroke="black" fill="black"/>
<circle cx="356.58224960073005" cy="22.0" r="2" stroke="black" fill="black"/>
<circle cx="371.93702943189595" cy="2.666666666666667" r="2" stroke="black" fill="black"/>
<circle cx="383.4360027378508" cy="12.0" r="2" stroke="black" fill="black"/>
<circle cx="391.10198494182066" cy="4.0" r="2" stroke="black" fill="black"/>
<circle cx="429.4318959616701" cy="18.333333333333336" r="2" stroke="black" fill="black"/>
<circle cx="452.40702715035366" cy="35.666666666666664" r="2" stroke="black" fill="black"/>
<circle cx="571.252566735113" cy="42.0" r="2" stroke="black" fill="black"/>
<circle cx="628.747433264887" cy="51.66666666666667" r="2" stroke="black" fill="black"/>
<circle cx="663.2215377595254" cy="47.666666666666664" r="2" stroke="black" fill="black"/>
<circle cx="682.3864932694502" cy="24.0" r="2" stroke="black" fill="black"/>
<circle cx="701.5514487793749" cy="38.0" r="2" stroke="black" fill="black"/>
<circle cx="751.380333105179" cy="3.0" r="2" stroke="black" fill="black"/>
<circle cx="805.0650239561944" cy="8.666666666666666" r="2" stroke="black" fill="black"/>
<circle cx="828.062970568104" cy="54.333333333333336" r="2" stroke="black" fill="black"/>
<circle cx="866.3700661647274" cy="54.333333333333336" r="2" stroke="black" fill="black"/>
<circle cx="889.368012776637" cy="17.666666666666668" r="2" stroke="black" fill="black"/>
</svg>
