<svg viewBox="0, 0, 1000, 60" width="100%" height="100%" xmlns="http://www.w3.org/2000/svg">

<text x="0" y="30">
19 Paharelul
</text>
<line x1="200" y1="0" x2="1000" y2="0" stroke="lightgray"/>
<line x1="200" y1="20.0" x2="1000" y2="20.0" stroke="lightgray"/>
<line x1="200" y1="40.0" x2="1000" y2="40.0" stroke="lightgray"/>
<line x1="200" y1="60" x2="1000" y2="60" stroke="lightgray"/>
<line x1="200.0" y1="0" x2="200.0" y2="60" stroke="lightgray"/>
<line x1="400.0" y1="0" x2="400.0" y2="60" stroke="lightgray"/>
<line x1="600.0" y1="0" x2="600.0" y2="60" stroke="lightgray"/>
<line x1="800.0" y1="0" x2="800.0" y2="60" stroke="lightgray"/>
<line x1="1000.0" y1="0" x2="1000.0" y2="60" stroke="lightgray"/>
<circle cx="398.7679671457905" cy="49.0" r="2" stroke="black" fill="black"/>
<circle cx="406.4339493497605" cy="33.333333333333336" r="2" stroke="black" fill="black"/>
<circle cx="421.7659137577002" cy="50.333333333333336" r="2" stroke="black" fill="black"/>
<circle cx="429.4318959616701" cy="45.33333333333333" r="2" stroke="black" fill="black"/>
<circle cx="452.40702715035366" cy="45.666666666666664" r="2" stroke="black" fill="black"/>
<circle cx="467.7389915582934" cy="53.0" r="2" stroke="black" fill="black"/>
<circle cx="502.23591147615787" cy="52.666666666666664" r="2" stroke="black" fill="black"/>
<circle cx="517.5678758840976" cy="30.0" r="2" stroke="black" fill="black"/>
<circle cx="559.730778005932" cy="50.666666666666664" r="2" stroke="black" fill="black"/>
<circle cx="571.252566735113" cy="46.666666666666664" r="2" stroke="black" fill="black"/>
<circle cx="586.5845311430527" cy="54.0" r="2" stroke="black" fill="black"/>
<circle cx="601.9164955509924" cy="44.333333333333336" r="2" stroke="black" fill="black"/>
<circle cx="682.3864932694502" cy="44.66666666666667" r="2" stroke="black" fill="black"/>
<circle cx="701.5514487793749" cy="53.66666666666667" r="2" stroke="black" fill="black"/>
<circle cx="736.0483686972393" cy="49.666666666666664" r="2" stroke="black" fill="black"/>
<circle cx="751.380333105179" cy="55.0" r="2" stroke="black" fill="black"/>
<circle cx="889.368012776637" cy="46.333333333333336" r="2" stroke="black" fill="black"/>
<circle cx="973.7166324435318" cy="51.33333333333333" r="2" stroke="black" fill="black"/>
<circle cx="356.58224960073005" cy="53.66666666666667" r="2" stroke="blue" fill="blue"/>
</svg>
