<svg viewBox="0, 0, 1000, 60" width="100%" height="100%" xmlns="http://www.w3.org/2000/svg">

<text x="0" y="30">
18 I Trata
</text>
<line x1="200" y1="0" x2="1000" y2="0" stroke="lightgray"/>
<line x1="200" y1="20.0" x2="1000" y2="20.0" stroke="lightgray"/>
<line x1="200" y1="40.0" x2="1000" y2="40.0" stroke="lightgray"/>
<line x1="200" y1="60" x2="1000" y2="60" stroke="lightgray"/>
<line x1="200.0" y1="0" x2="200.0" y2="60" stroke="lightgray"/>
<line x1="400.0" y1="0" x2="400.0" y2="60" stroke="lightgray"/>
<line x1="600.0" y1="0" x2="600.0" y2="60" stroke="lightgray"/>
<line x1="800.0" y1="0" x2="800.0" y2="60" stroke="lightgray"/>
<line x1="1000.0" y1="0" x2="1000.0" y2="60" stroke="lightgray"/>
<circle cx="337.4172940908054" cy="18.666666666666668" r="2" stroke="black" fill="black"/>
<circle cx="398.7679671457905" cy="36.0" r="2" stroke="black" fill="black"/>
<circle cx="421.7659137577002" cy="11.333333333333332" r="2" stroke="black" fill="black"/>
<circle cx="429.4318959616701" cy="5.333333333333334" r="2" stroke="black" fill="black"/>
<circle cx="467.7389915582934" cy="34.33333333333333" r="2" stroke="black" fill="black"/>
<circle cx="655.5555555555555" cy="1.0" r="2" stroke="black" fill="black"/>
<circle cx="835.7289527720739" cy="31.666666666666668" r="2" stroke="black" fill="black"/>
<circle cx="851.0381017567876" cy="18.0" r="2" stroke="black" fill="black"/>
<circle cx="866.3700661647274" cy="41.333333333333336" r="2" stroke="black" fill="black"/>
<circle cx="881.7020305726671" cy="19.333333333333336" r="2" stroke="black" fill="black"/>
<circle cx="904.6999771845767" cy="25.666666666666664" r="2" stroke="black" fill="black"/>
<circle cx="939.1968971024412" cy="34.0" r="2" stroke="black" fill="black"/>
<circle cx="318.2523385808807" cy="13.0" r="2" stroke="blue" fill="blue"/>
<circle cx="391.10198494182066" cy="30.333333333333332" r="2" stroke="blue" fill="blue"/>
<circle cx="736.0483686972393" cy="10.666666666666668" r="2" stroke="blue" fill="blue"/>
<circle cx="452.40702715035366" cy="34.33333333333333" r="2" stroke="green" fill="green"/>
</svg>
