<svg viewBox="0, 0, 1000, 60" width="100%" height="100%" xmlns="http://www.w3.org/2000/svg">

<text x="0" y="30">
17 Chichovoto Horo
</text>
<line x1="200" y1="0" x2="1000" y2="0" stroke="lightgray"/>
<line x1="200" y1="20.0" x2="1000" y2="20.0" stroke="lightgray"/>
<line x1="200" y1="40.0" x2="1000" y2="40.0" stroke="lightgray"/>
<line x1="200" y1="60" x2="1000" y2="60" stroke="lightgray"/>
<line x1="200.0" y1="0" x2="200.0" y2="60" stroke="lightgray"/>
<line x1="400.0" y1="0" x2="400.0" y2="60" stroke="lightgray"/>
<line x1="600.0" y1="0" x2="600.0" y2="60" stroke="lightgray"/>
<line x1="800.0" y1="0" x2="800.0" y2="60" stroke="lightgray"/>
<line x1="1000.0" y1="0" x2="1000.0" y2="60" stroke="lightgray"/>
<circle cx="632.580424366872" cy="29.666666666666668" r="2" stroke="black" fill="black"/>
<circle cx="655.5555555555555" cy="19.666666666666668" r="2" stroke="black" fill="black"/>
<circle cx="663.2215377595254" cy="29.666666666666668" r="2" stroke="black" fill="black"/>
<circle cx="678.5535021674652" cy="35.666666666666664" r="2" stroke="black" fill="black"/>
<circle cx="682.3864932694502" cy="54.666666666666664" r="2" stroke="black" fill="black"/>
<circle cx="701.5514487793749" cy="39.0" r="2" stroke="black" fill="black"/>
<circle cx="716.8834131873147" cy="44.0" r="2" stroke="black" fill="black"/>
<circle cx="728.3823864932695" cy="49.33333333333333" r="2" stroke="black" fill="black"/>
<circle cx="736.0483686972393" cy="28.666666666666668" r="2" stroke="black" fill="black"/>
<circle cx="774.4010951403149" cy="26.0" r="2" stroke="black" fill="black"/>
<circle cx="805.0650239561944" cy="37.666666666666664" r="2" stroke="black" fill="black"/>
<circle cx="828.062970568104" cy="36.66666666666667" r="2" stroke="black" fill="black"/>
<circle cx="858.7040839607574" cy="43.0" r="2" stroke="black" fill="black"/>
<circle cx="866.3700661647274" cy="43.666666666666664" r="2" stroke="black" fill="black"/>
<circle cx="920.0319415925167" cy="13.333333333333332" r="2" stroke="black" fill="black"/>
<circle cx="935.3639060004564" cy="14.0" r="2" stroke="black" fill="black"/>
<circle cx="973.7166324435318" cy="28.333333333333332" r="2" stroke="black" fill="black"/>
</svg>
