<svg viewBox="0, 0, 1000, 60" width="100%" height="100%" xmlns="http://www.w3.org/2000/svg">

<text x="0" y="30">
17 Paraliakos
</text>
<line x1="200" y1="0" x2="1000" y2="0" stroke="lightgray"/>
<line x1="200" y1="20.0" x2="1000" y2="20.0" stroke="lightgray"/>
<line x1="200" y1="40.0" x2="1000" y2="40.0" stroke="lightgray"/>
<line x1="200" y1="60" x2="1000" y2="60" stroke="lightgray"/>
<line x1="200.0" y1="0" x2="200.0" y2="60" stroke="lightgray"/>
<line x1="400.0" y1="0" x2="400.0" y2="60" stroke="lightgray"/>
<line x1="600.0" y1="0" x2="600.0" y2="60" stroke="lightgray"/>
<line x1="800.0" y1="0" x2="800.0" y2="60" stroke="lightgray"/>
<line x1="1000.0" y1="0" x2="1000.0" y2="60" stroke="lightgray"/>
<circle cx="310.58635637691077" cy="38.66666666666667" r="2" stroke="black" fill="black"/>
<circle cx="337.4172940908054" cy="21.333333333333336" r="2" stroke="black" fill="black"/>
<circle cx="341.25028519279033" cy="54.0" r="2" stroke="black" fill="black"/>
<circle cx="383.4360027378508" cy="27.0" r="2" stroke="black" fill="black"/>
<circle cx="391.10198494182066" cy="6.333333333333333" r="2" stroke="black" fill="black"/>
<circle cx="406.4339493497605" cy="27.666666666666668" r="2" stroke="black" fill="black"/>
<circle cx="437.09787816564" cy="46.666666666666664" r="2" stroke="black" fill="black"/>
<circle cx="452.40702715035366" cy="24.333333333333332" r="2" stroke="black" fill="black"/>
<circle cx="529.0668491900525" cy="11.666666666666666" r="2" stroke="black" fill="black"/>
<circle cx="601.9164955509924" cy="2.3333333333333335" r="2" stroke="black" fill="black"/>
<circle cx="655.5555555555555" cy="4.666666666666667" r="2" stroke="black" fill="black"/>
<circle cx="670.8875199634953" cy="16.666666666666668" r="2" stroke="black" fill="black"/>
<circle cx="686.219484371435" cy="3.0" r="2" stroke="black" fill="black"/>
<circle cx="759.0463153091489" cy="16.666666666666668" r="2" stroke="black" fill="black"/>
<circle cx="912.3659593885467" cy="3.6666666666666665" r="2" stroke="black" fill="black"/>
<circle cx="950.6958704083961" cy="4.0" r="2" stroke="black" fill="black"/>
</svg>
