<svg viewBox="0, 0, 1000, 60" width="100%" height="100%" xmlns="http://www.w3.org/2000/svg">

<text x="0" y="30">
17 Julud
</text>
<line x1="200" y1="0" x2="1000" y2="0" stroke="lightgray"/>
<line x1="200" y1="20.0" x2="1000" y2="20.0" stroke="lightgray"/>
<line x1="200" y1="40.0" x2="1000" y2="40.0" stroke="lightgray"/>
<line x1="200" y1="60" x2="1000" y2="60" stroke="lightgray"/>
<line x1="200.0" y1="0" x2="200.0" y2="60" stroke="lightgray"/>
<line x1="400.0" y1="0" x2="400.0" y2="60" stroke="lightgray"/>
<line x1="600.0" y1="0" x2="600.0" y2="60" stroke="lightgray"/>
<line x1="800.0" y1="0" x2="800.0" y2="60" stroke="lightgray"/>
<line x1="1000.0" y1="0" x2="1000.0" y2="60" stroke="lightgray"/>
<circle cx="751.380333105179" cy="23.333333333333332" r="2" stroke="black" fill="black"/>
<circle cx="759.0463153091489" cy="46.333333333333336" r="2" stroke="black" fill="black"/>
<circle cx="774.4010951403149" cy="51.33333333333333" r="2" stroke="black" fill="black"/>
<circle cx="782.0670773442847" cy="36.66666666666667" r="2" stroke="black" fill="black"/>
<circle cx="797.3990417522244" cy="15.333333333333332" r="2" stroke="black" fill="black"/>
<circle cx="805.0650239561944" cy="18.333333333333336" r="2" stroke="black" fill="black"/>
<circle cx="812.7310061601643" cy="36.66666666666667" r="2" stroke="black" fill="black"/>
<circle cx="828.062970568104" cy="19.333333333333336" r="2" stroke="black" fill="black"/>
<circle cx="843.3721195528177" cy="24.333333333333332" r="2" stroke="black" fill="black"/>
<circle cx="851.0381017567876" cy="49.0" r="2" stroke="black" fill="black"/>
<circle cx="858.7040839607574" cy="32.666666666666664" r="2" stroke="black" fill="black"/>
<circle cx="866.3700661647274" cy="5.666666666666666" r="2" stroke="black" fill="black"/>
<circle cx="897.0339949806068" cy="29.333333333333332" r="2" stroke="black" fill="black"/>
<circle cx="920.0319415925167" cy="30.333333333333332" r="2" stroke="black" fill="black"/>
<circle cx="935.3639060004564" cy="15.0" r="2" stroke="black" fill="black"/>
<circle cx="966.0278348163358" cy="5.666666666666666" r="2" stroke="black" fill="black"/>
<circle cx="977.5496235455169" cy="10.0" r="2" stroke="black" fill="black"/>
</svg>
