<svg viewBox="0, 0, 1000, 60" width="100%" height="100%" xmlns="http://www.w3.org/2000/svg">

<text x="0" y="30">
33 Molih Ta
</text>
<line x1="200" y1="0" x2="1000" y2="0" stroke="lightgray"/>
<line x1="200" y1="20.0" x2="1000" y2="20.0" stroke="lightgray"/>
<line x1="200" y1="40.0" x2="1000" y2="40.0" stroke="lightgray"/>
<line x1="200" y1="60" x2="1000" y2="60" stroke="lightgray"/>
<line x1="200.0" y1="0" x2="200.0" y2="60" stroke="lightgray"/>
<line x1="400.0" y1="0" x2="400.0" y2="60" stroke="lightgray"/>
<line x1="600.0" y1="0" x2="600.0" y2="60" stroke="lightgray"/>
<line x1="800.0" y1="0" x2="800.0" y2="60" stroke="lightgray"/>
<line x1="1000.0" y1="0" x2="1000.0" y2="60" stroke="lightgray"/>
<circle cx="325.91832078485055" cy="56.0" r="2" stroke="black" fill="black"/>
<circle cx="383.4360027378508" cy="25.333333333333332" r="2" stroke="black" fill="black"/>
<circle cx="398.7679671457905" cy="0.0" r="2" stroke="black" fill="black"/>
<circle cx="417.9329226557153" cy="24.333333333333332" r="2" stroke="black" fill="black"/>
<circle cx="437.09787816564" cy="1.6666666666666665" r="2" stroke="black" fill="black"/>
<circle cx="452.40702715035366" cy="29.0" r="2" stroke="black" fill="black"/>
<circle cx="467.7389915582934" cy="7.0" r="2" stroke="black" fill="black"/>
<circle cx="483.0709559662332" cy="9.0" r="2" stroke="black" fill="black"/>
<circle cx="496.2126397444673" cy="48.333333333333336" r="2" stroke="black" fill="black"/>
<circle cx="529.0668491900525" cy="20.0" r="2" stroke="black" fill="black"/>
<circle cx="559.730778005932" cy="4.0" r="2" stroke="black" fill="black"/>
<circle cx="655.5555555555555" cy="13.333333333333332" r="2" stroke="black" fill="black"/>
<circle cx="701.5514487793749" cy="15.666666666666668" r="2" stroke="black" fill="black"/>
<circle cx="736.0483686972393" cy="14.0" r="2" stroke="black" fill="black"/>
<circle cx="751.380333105179" cy="32.33333333333333" r="2" stroke="black" fill="black"/>
<circle cx="759.0463153091489" cy="11.666666666666666" r="2" stroke="black" fill="black"/>
<circle cx="774.4010951403149" cy="1.3333333333333335" r="2" stroke="black" fill="black"/>
<circle cx="858.7040839607574" cy="3.6666666666666665" r="2" stroke="black" fill="black"/>
<circle cx="889.368012776637" cy="6.333333333333333" r="2" stroke="black" fill="black"/>
<circle cx="904.6999771845767" cy="24.666666666666664" r="2" stroke="black" fill="black"/>
<circle cx="920.0319415925167" cy="16.0" r="2" stroke="black" fill="black"/>
<circle cx="950.6958704083961" cy="11.0" r="2" stroke="black" fill="black"/>
<circle cx="954.528861510381" cy="55.0" r="2" stroke="black" fill="black"/>
</svg>
