<svg viewBox="0, 0, 1000, 60" width="100%" height="100%" xmlns="http://www.w3.org/2000/svg">

<text x="0" y="30">
15 Cimpoi
</text>
<line x1="200" y1="0" x2="1000" y2="0" stroke="lightgray"/>
<line x1="200" y1="20.0" x2="1000" y2="20.0" stroke="lightgray"/>
<line x1="200" y1="40.0" x2="1000" y2="40.0" stroke="lightgray"/>
<line x1="200" y1="60" x2="1000" y2="60" stroke="lightgray"/>
<line x1="200.0" y1="0" x2="200.0" y2="60" stroke="lightgray"/>
<line x1="400.0" y1="0" x2="400.0" y2="60" stroke="lightgray"/>
<line x1="600.0" y1="0" x2="600.0" y2="60" stroke="lightgray"/>
<line x1="800.0" y1="0" x2="800.0" y2="60" stroke="lightgray"/>
<line x1="1000.0" y1="0" x2="1000.0" y2="60" stroke="lightgray"/>
<circle cx="383.4360027378508" cy="32.0" r="2" stroke="black" fill="black"/>
<circle cx="475.4049737622633" cy="51.33333333333333" r="2" stroke="black" fill="black"/>
<circle cx="552.0647958019622" cy="41.666666666666664" r="2" stroke="black" fill="black"/>
<circle cx="571.252566735113" cy="25.333333333333332" r="2" stroke="black" fill="black"/>
<circle cx="586.5845311430527" cy="48.0" r="2" stroke="black" fill="black"/>
<circle cx="632.580424366872" cy="45.666666666666664" r="2" stroke="black" fill="black"/>
<circle cx="655.5555555555555" cy="52.0" r="2" stroke="black" fill="black"/>
<circle cx="663.2215377595254" cy="46.666666666666664" r="2" stroke="black" fill="black"/>
<circle cx="716.8834131873147" cy="33.0" r="2" stroke="black" fill="black"/>
<circle cx="728.3823864932695" cy="52.333333333333336" r="2" stroke="black" fill="black"/>
<circle cx="759.0463153091489" cy="52.0" r="2" stroke="black" fill="black"/>
<circle cx="828.062970568104" cy="53.33333333333333" r="2" stroke="black" fill="black"/>
<circle cx="858.7040839607574" cy="38.33333333333333" r="2" stroke="black" fill="black"/>
<circle cx="920.0319415925167" cy="37.333333333333336" r="2" stroke="black" fill="black"/>
<circle cx="954.528861510381" cy="49.666666666666664" r="2" stroke="black" fill="black"/>
</svg>
