<svg viewBox="0, 0, 1000, 60" width="100%" height="100%" xmlns="http://www.w3.org/2000/svg">

<text x="0" y="30">
15 Mayim
</text>
<line x1="200" y1="0" x2="1000" y2="0" stroke="lightgray"/>
<line x1="200" y1="20.0" x2="1000" y2="20.0" stroke="lightgray"/>
<line x1="200" y1="40.0" x2="1000" y2="40.0" stroke="lightgray"/>
<line x1="200" y1="60" x2="1000" y2="60" stroke="lightgray"/>
<line x1="200.0" y1="0" x2="200.0" y2="60" stroke="lightgray"/>
<line x1="400.0" y1="0" x2="400.0" y2="60" stroke="lightgray"/>
<line x1="600.0" y1="0" x2="600.0" y2="60" stroke="lightgray"/>
<line x1="800.0" y1="0" x2="800.0" y2="60" stroke="lightgray"/>
<line x1="1000.0" y1="0" x2="1000.0" y2="60" stroke="lightgray"/>
<circle cx="383.4360027378508" cy="31.000000000000004" r="2" stroke="black" fill="black"/>
<circle cx="391.10198494182066" cy="15.333333333333332" r="2" stroke="black" fill="black"/>
<circle cx="421.7659137577002" cy="16.666666666666668" r="2" stroke="black" fill="black"/>
<circle cx="494.569929272188" cy="15.666666666666668" r="2" stroke="black" fill="black"/>
<circle cx="506.0689025781428" cy="28.0" r="2" stroke="black" fill="black"/>
<circle cx="682.3864932694502" cy="35.333333333333336" r="2" stroke="black" fill="black"/>
<circle cx="774.4010951403149" cy="17.666666666666668" r="2" stroke="black" fill="black"/>
<circle cx="782.0670773442847" cy="26.666666666666664" r="2" stroke="black" fill="black"/>
<circle cx="843.3721195528177" cy="9.333333333333334" r="2" stroke="black" fill="black"/>
<circle cx="881.7020305726671" cy="27.666666666666668" r="2" stroke="black" fill="black"/>
<circle cx="889.368012776637" cy="15.333333333333332" r="2" stroke="black" fill="black"/>
<circle cx="912.3659593885467" cy="17.333333333333332" r="2" stroke="black" fill="black"/>
<circle cx="920.0319415925167" cy="20.333333333333336" r="2" stroke="black" fill="black"/>
<circle cx="950.6958704083961" cy="29.0" r="2" stroke="black" fill="black"/>
<circle cx="973.7166324435318" cy="30.0" r="2" stroke="black" fill="black"/>
</svg>
