<svg viewBox="0, 0, 1000, 60" width="100%" height="100%" xmlns="http://www.w3.org/2000/svg">

<text x="0" y="30">
14 Zensko Svadbarsko Horo
</text>
<line x1="200" y1="0" x2="1000" y2="0" stroke="lightgray"/>
<line x1="200" y1="20.0" x2="1000" y2="20.0" stroke="lightgray"/>
<line x1="200" y1="40.0" x2="1000" y2="40.0" stroke="lightgray"/>
<line x1="200" y1="60" x2="1000" y2="60" stroke="lightgray"/>
<line x1="200.0" y1="0" x2="200.0" y2="60" stroke="lightgray"/>
<line x1="400.0" y1="0" x2="400.0" y2="60" stroke="lightgray"/>
<line x1="600.0" y1="0" x2="600.0" y2="60" stroke="lightgray"/>
<line x1="800.0" y1="0" x2="800.0" y2="60" stroke="lightgray"/>
<line x1="1000.0" y1="0" x2="1000.0" y2="60" stroke="lightgray"/>
<circle cx="318.2523385808807" cy="6.333333333333333" r="2" stroke="black" fill="black"/>
<circle cx="348.9162673967602" cy="21.0" r="2" stroke="black" fill="black"/>
<circle cx="356.58224960073005" cy="44.66666666666667" r="2" stroke="black" fill="black"/>
<circle cx="444.74104494638374" cy="50.333333333333336" r="2" stroke="black" fill="black"/>
<circle cx="467.7389915582934" cy="45.0" r="2" stroke="black" fill="black"/>
<circle cx="496.2126397444673" cy="40.66666666666667" r="2" stroke="black" fill="black"/>
<circle cx="601.9164955509924" cy="52.333333333333336" r="2" stroke="black" fill="black"/>
<circle cx="663.2215377595254" cy="45.666666666666664" r="2" stroke="black" fill="black"/>
<circle cx="682.3864932694502" cy="40.66666666666667" r="2" stroke="black" fill="black"/>
<circle cx="701.5514487793749" cy="36.0" r="2" stroke="black" fill="black"/>
<circle cx="728.3823864932695" cy="50.0" r="2" stroke="black" fill="black"/>
<circle cx="782.0670773442847" cy="34.33333333333333" r="2" stroke="black" fill="black"/>
<circle cx="812.7310061601643" cy="43.666666666666664" r="2" stroke="black" fill="black"/>
<circle cx="920.0319415925167" cy="40.66666666666667" r="2" stroke="black" fill="black"/>
</svg>
