<svg viewBox="0, 0, 1000, 60" width="100%" height="100%" xmlns="http://www.w3.org/2000/svg">

<text x="0" y="30">
13 Stamena
</text>
<line x1="200" y1="0" x2="1000" y2="0" stroke="lightgray"/>
<line x1="200" y1="20.0" x2="1000" y2="20.0" stroke="lightgray"/>
<line x1="200" y1="40.0" x2="1000" y2="40.0" stroke="lightgray"/>
<line x1="200" y1="60" x2="1000" y2="60" stroke="lightgray"/>
<line x1="200.0" y1="0" x2="200.0" y2="60" stroke="lightgray"/>
<line x1="400.0" y1="0" x2="400.0" y2="60" stroke="lightgray"/>
<line x1="600.0" y1="0" x2="600.0" y2="60" stroke="lightgray"/>
<line x1="800.0" y1="0" x2="800.0" y2="60" stroke="lightgray"/>
<line x1="1000.0" y1="0" x2="1000.0" y2="60" stroke="lightgray"/>
<circle cx="383.4360027378508" cy="38.0" r="2" stroke="black" fill="black"/>
<circle cx="467.7389915582934" cy="51.33333333333333" r="2" stroke="black" fill="black"/>
<circle cx="559.730778005932" cy="39.333333333333336" r="2" stroke="black" fill="black"/>
<circle cx="586.5845311430527" cy="28.333333333333332" r="2" stroke="black" fill="black"/>
<circle cx="601.9164955509924" cy="42.66666666666667" r="2" stroke="black" fill="black"/>
<circle cx="628.747433264887" cy="48.666666666666664" r="2" stroke="black" fill="black"/>
<circle cx="682.3864932694502" cy="36.33333333333333" r="2" stroke="black" fill="black"/>
<circle cx="686.219484371435" cy="49.666666666666664" r="2" stroke="black" fill="black"/>
<circle cx="736.0483686972393" cy="50.333333333333336" r="2" stroke="black" fill="black"/>
<circle cx="774.4010951403149" cy="53.66666666666667" r="2" stroke="black" fill="black"/>
<circle cx="805.0650239561944" cy="52.0" r="2" stroke="black" fill="black"/>
<circle cx="858.7040839607574" cy="44.0" r="2" stroke="black" fill="black"/>
<circle cx="966.0278348163358" cy="51.66666666666667" r="2" stroke="black" fill="black"/>
</svg>
