<svg viewBox="0, 0, 1000, 60" width="100%" height="100%" xmlns="http://www.w3.org/2000/svg">

<text x="0" y="30">
12 Lerikos
</text>
<line x1="200" y1="0" x2="1000" y2="0" stroke="lightgray"/>
<line x1="200" y1="20.0" x2="1000" y2="20.0" stroke="lightgray"/>
<line x1="200" y1="40.0" x2="1000" y2="40.0" stroke="lightgray"/>
<line x1="200" y1="60" x2="1000" y2="60" stroke="lightgray"/>
<line x1="200.0" y1="0" x2="200.0" y2="60" stroke="lightgray"/>
<line x1="400.0" y1="0" x2="400.0" y2="60" stroke="lightgray"/>
<line x1="600.0" y1="0" x2="600.0" y2="60" stroke="lightgray"/>
<line x1="800.0" y1="0" x2="800.0" y2="60" stroke="lightgray"/>
<line x1="1000.0" y1="0" x2="1000.0" y2="60" stroke="lightgray"/>
<circle cx="559.730778005932" cy="18.0" r="2" stroke="black" fill="black"/>
<circle cx="628.747433264887" cy="28.0" r="2" stroke="black" fill="black"/>
<circle cx="670.8875199634953" cy="52.666666666666664" r="2" stroke="black" fill="black"/>
<circle cx="701.5514487793749" cy="0.33333333333333337" r="2" stroke="black" fill="black"/>
<circle cx="716.8834131873147" cy="5.0" r="2" stroke="black" fill="black"/>
<circle cx="759.0463153091489" cy="32.0" r="2" stroke="black" fill="black"/>
<circle cx="417.9329226557153" cy="54.333333333333336" r="2" stroke="blue" fill="blue"/>
<circle cx="429.4318959616701" cy="35.666666666666664" r="2" stroke="blue" fill="blue"/>
<circle cx="460.0730093543235" cy="14.333333333333334" r="2" stroke="blue" fill="blue"/>
<circle cx="475.4049737622633" cy="0.6666666666666667" r="2" stroke="blue" fill="blue"/>
<circle cx="483.0709559662332" cy="41.0" r="2" stroke="blue" fill="blue"/>
<circle cx="598.0835044490075" cy="1.6666666666666665" r="2" stroke="green" fill="green"/>
</svg>
