<svg viewBox="0, 0, 1000, 60" width="100%" height="100%" xmlns="http://www.w3.org/2000/svg">

<text x="0" y="30">
12 Ketri Ketri
</text>
<line x1="200" y1="0" x2="1000" y2="0" stroke="lightgray"/>
<line x1="200" y1="20.0" x2="1000" y2="20.0" stroke="lightgray"/>
<line x1="200" y1="40.0" x2="1000" y2="40.0" stroke="lightgray"/>
<line x1="200" y1="60" x2="1000" y2="60" stroke="lightgray"/>
<line x1="200.0" y1="0" x2="200.0" y2="60" stroke="lightgray"/>
<line x1="400.0" y1="0" x2="400.0" y2="60" stroke="lightgray"/>
<line x1="600.0" y1="0" x2="600.0" y2="60" stroke="lightgray"/>
<line x1="800.0" y1="0" x2="800.0" y2="60" stroke="lightgray"/>
<line x1="1000.0" y1="0" x2="1000.0" y2="60" stroke="lightgray"/>
<circle cx="371.93702943189595" cy="13.666666666666666" r="2" stroke="black" fill="black"/>
<circle cx="383.4360027378508" cy="2.3333333333333335" r="2" stroke="black" fill="black"/>
<circle cx="391.10198494182066" cy="16.333333333333332" r="2" stroke="black" fill="black"/>
<circle cx="398.7679671457905" cy="1.0" r="2" stroke="black" fill="black"/>
<circle cx="601.9164955509924" cy="11.0" r="2" stroke="black" fill="black"/>
<circle cx="663.2215377595254" cy="40.66666666666667" r="2" stroke="black" fill="black"/>
<circle cx="736.0483686972393" cy="1.6666666666666665" r="2" stroke="black" fill="black"/>
<circle cx="782.0670773442847" cy="19.333333333333336" r="2" stroke="black" fill="black"/>
<circle cx="805.0650239561944" cy="15.0" r="2" stroke="black" fill="black"/>
<circle cx="939.1968971024412" cy="8.0" r="2" stroke="black" fill="black"/>
<circle cx="973.7166324435318" cy="49.666666666666664" r="2" stroke="black" fill="black"/>
</svg>
