<svg viewBox="0, 0, 1000, 60" width="100%" height="100%" xmlns="http://www.w3.org/2000/svg">

<text x="0" y="30">
30 Koga Me Mama Rodila
</text>
<line x1="200" y1="0" x2="1000" y2="0" stroke="lightgray"/>
<line x1="200" y1="20.0" x2="1000" y2="20.0" stroke="lightgray"/>
<line x1="200" y1="40.0" x2="1000" y2="40.0" stroke="lightgray"/>
<line x1="200" y1="60" x2="1000" y2="60" stroke="lightgray"/>
<line x1="200.0" y1="0" x2="200.0" y2="60" stroke="lightgray"/>
<line x1="400.0" y1="0" x2="400.0" y2="60" stroke="lightgray"/>
<line x1="600.0" y1="0" x2="600.0" y2="60" stroke="lightgray"/>
<line x1="800.0" y1="0" x2="800.0" y2="60" stroke="lightgray"/>
<line x1="1000.0" y1="0" x2="1000.0" y2="60" stroke="lightgray"/>
<circle cx="310.58635637691077" cy="55.66666666666667" r="2" stroke="black" fill="black"/>
<circle cx="318.2523385808807" cy="55.66666666666667" r="2" stroke="black" fill="black"/>
<circle cx="371.93702943189595" cy="54.666666666666664" r="2" stroke="black" fill="black"/>
<circle cx="383.4360027378508" cy="54.666666666666664" r="2" stroke="black" fill="black"/>
<circle cx="417.9329226557153" cy="56.0" r="2" stroke="black" fill="black"/>
<circle cx="452.40702715035366" cy="55.66666666666667" r="2" stroke="black" fill="black"/>
<circle cx="460.0730093543235" cy="8.0" r="2" stroke="black" fill="black"/>
<circle cx="467.7389915582934" cy="56.0" r="2" stroke="black" fill="black"/>
<circle cx="483.0709559662332" cy="56.0" r="2" stroke="black" fill="black"/>
<circle cx="496.2126397444673" cy="54.0" r="2" stroke="black" fill="black"/>
<circle cx="571.252566735113" cy="55.66666666666667" r="2" stroke="black" fill="black"/>
<circle cx="628.747433264887" cy="9.666666666666668" r="2" stroke="black" fill="black"/>
<circle cx="682.3864932694502" cy="55.66666666666667" r="2" stroke="black" fill="black"/>
<circle cx="701.5514487793749" cy="54.333333333333336" r="2" stroke="black" fill="black"/>
<circle cx="716.8834131873147" cy="45.0" r="2" stroke="black" fill="black"/>
<circle cx="728.3823864932695" cy="56.666666666666664" r="2" stroke="black" fill="black"/>
<circle cx="751.380333105179" cy="55.66666666666667" r="2" stroke="black" fill="black"/>
<circle cx="759.0463153091489" cy="15.666666666666668" r="2" stroke="black" fill="black"/>
<circle cx="782.0670773442847" cy="55.66666666666667" r="2" stroke="black" fill="black"/>
<circle cx="805.0650239561944" cy="56.666666666666664" r="2" stroke="black" fill="black"/>
<circle cx="812.7310061601643" cy="22.333333333333336" r="2" stroke="black" fill="black"/>
<circle cx="843.3721195528177" cy="56.0" r="2" stroke="black" fill="black"/>
<circle cx="858.7040839607574" cy="55.66666666666667" r="2" stroke="black" fill="black"/>
<circle cx="866.3700661647274" cy="3.6666666666666665" r="2" stroke="black" fill="black"/>
<circle cx="881.7020305726671" cy="55.66666666666667" r="2" stroke="black" fill="black"/>
<circle cx="889.368012776637" cy="55.0" r="2" stroke="black" fill="black"/>
<circle cx="904.6999771845767" cy="44.0" r="2" stroke="black" fill="black"/>
<circle cx="935.3639060004564" cy="55.66666666666667" r="2" stroke="black" fill="black"/>
<circle cx="954.528861510381" cy="56.0" r="2" stroke="black" fill="black"/>
<circle cx="973.7166324435318" cy="55.333333333333336" r="2" stroke="black" fill="black"/>
</svg>
