<svg viewBox="0, 0, 1000, 60" width="100%" height="100%" xmlns="http://www.w3.org/2000/svg">

<text x="0" y="30">
12 Cobankat
</text>
<line x1="200" y1="0" x2="1000" y2="0" stroke="lightgray"/>
<line x1="200" y1="20.0" x2="1000" y2="20.0" stroke="lightgray"/>
<line x1="200" y1="40.0" x2="1000" y2="40.0" stroke="lightgray"/>
<line x1="200" y1="60" x2="1000" y2="60" stroke="lightgray"/>
<line x1="200.0" y1="0" x2="200.0" y2="60" stroke="lightgray"/>
<line x1="400.0" y1="0" x2="400.0" y2="60" stroke="lightgray"/>
<line x1="600.0" y1="0" x2="600.0" y2="60" stroke="lightgray"/>
<line x1="800.0" y1="0" x2="800.0" y2="60" stroke="lightgray"/>
<line x1="1000.0" y1="0" x2="1000.0" y2="60" stroke="lightgray"/>
<circle cx="318.2523385808807" cy="46.333333333333336" r="2" stroke="black" fill="black"/>
<circle cx="325.91832078485055" cy="3.333333333333333" r="2" stroke="black" fill="black"/>
<circle cx="341.25028519279033" cy="15.333333333333332" r="2" stroke="black" fill="black"/>
<circle cx="417.9329226557153" cy="8.333333333333334" r="2" stroke="black" fill="black"/>
<circle cx="483.0709559662332" cy="7.333333333333333" r="2" stroke="black" fill="black"/>
<circle cx="536.7328313940224" cy="41.333333333333336" r="2" stroke="black" fill="black"/>
<circle cx="670.8875199634953" cy="4.0" r="2" stroke="black" fill="black"/>
<circle cx="682.3864932694502" cy="8.333333333333334" r="2" stroke="black" fill="black"/>
<circle cx="686.219484371435" cy="8.333333333333334" r="2" stroke="black" fill="black"/>
<circle cx="812.7310061601643" cy="24.333333333333332" r="2" stroke="black" fill="black"/>
<circle cx="904.6999771845767" cy="41.0" r="2" stroke="black" fill="black"/>
<circle cx="920.0319415925167" cy="38.33333333333333" r="2" stroke="black" fill="black"/>
</svg>
