<svg viewBox="0, 0, 1000, 60" width="100%" height="100%" xmlns="http://www.w3.org/2000/svg">

<text x="0" y="30">
11 Chiotikos
</text>
<line x1="200" y1="0" x2="1000" y2="0" stroke="lightgray"/>
<line x1="200" y1="20.0" x2="1000" y2="20.0" stroke="lightgray"/>
<line x1="200" y1="40.0" x2="1000" y2="40.0" stroke="lightgray"/>
<line x1="200" y1="60" x2="1000" y2="60" stroke="lightgray"/>
<line x1="200.0" y1="0" x2="200.0" y2="60" stroke="lightgray"/>
<line x1="400.0" y1="0" x2="400.0" y2="60" stroke="lightgray"/>
<line x1="600.0" y1="0" x2="600.0" y2="60" stroke="lightgray"/>
<line x1="800.0" y1="0" x2="800.0" y2="60" stroke="lightgray"/>
<line x1="1000.0" y1="0" x2="1000.0" y2="60" stroke="lightgray"/>
<circle cx="406.4339493497605" cy="8.666666666666666" r="2" stroke="black" fill="black"/>
<circle cx="460.0730093543235" cy="34.666666666666664" r="2" stroke="black" fill="black"/>
<circle cx="559.730778005932" cy="2.0" r="2" stroke="black" fill="black"/>
<circle cx="586.5845311430527" cy="31.333333333333336" r="2" stroke="black" fill="black"/>
<circle cx="663.2215377595254" cy="4.0" r="2" stroke="black" fill="black"/>
<circle cx="843.3721195528177" cy="3.6666666666666665" r="2" stroke="black" fill="black"/>
<circle cx="935.3639060004564" cy="5.666666666666666" r="2" stroke="black" fill="black"/>
<circle cx="341.25028519279033" cy="22.333333333333336" r="2" stroke="blue" fill="blue"/>
<circle cx="356.58224960073005" cy="2.3333333333333335" r="2" stroke="blue" fill="blue"/>
<circle cx="437.09787816564" cy="24.0" r="2" stroke="blue" fill="blue"/>
<circle cx="632.580424366872" cy="3.333333333333333" r="2" stroke="green" fill="green"/>
</svg>
