<svg viewBox="0, 0, 1000, 60" width="100%" height="100%" xmlns="http://www.w3.org/2000/svg">

<text x="0" y="30">
11 Bufcansko
</text>
<line x1="200" y1="0" x2="1000" y2="0" stroke="lightgray"/>
<line x1="200" y1="20.0" x2="1000" y2="20.0" stroke="lightgray"/>
<line x1="200" y1="40.0" x2="1000" y2="40.0" stroke="lightgray"/>
<line x1="200" y1="60" x2="1000" y2="60" stroke="lightgray"/>
<line x1="200.0" y1="0" x2="200.0" y2="60" stroke="lightgray"/>
<line x1="400.0" y1="0" x2="400.0" y2="60" stroke="lightgray"/>
<line x1="600.0" y1="0" x2="600.0" y2="60" stroke="lightgray"/>
<line x1="800.0" y1="0" x2="800.0" y2="60" stroke="lightgray"/>
<line x1="1000.0" y1="0" x2="1000.0" y2="60" stroke="lightgray"/>
<circle cx="356.58224960073005" cy="9.0" r="2" stroke="black" fill="black"/>
<circle cx="460.0730093543235" cy="5.666666666666666" r="2" stroke="black" fill="black"/>
<circle cx="483.0709559662332" cy="53.33333333333333" r="2" stroke="black" fill="black"/>
<circle cx="506.0689025781428" cy="25.666666666666664" r="2" stroke="black" fill="black"/>
<circle cx="517.5678758840976" cy="19.0" r="2" stroke="black" fill="black"/>
<circle cx="559.730778005932" cy="49.0" r="2" stroke="black" fill="black"/>
<circle cx="628.747433264887" cy="5.333333333333334" r="2" stroke="black" fill="black"/>
<circle cx="682.3864932694502" cy="11.333333333333332" r="2" stroke="black" fill="black"/>
<circle cx="939.1968971024412" cy="12.0" r="2" stroke="black" fill="black"/>
<circle cx="337.4172940908054" cy="42.66666666666667" r="2" stroke="blue" fill="blue"/>
</svg>
