<svg viewBox="0, 0, 1000, 60" width="100%" height="100%" xmlns="http://www.w3.org/2000/svg">

<text x="0" y="30">
11 Povlekana
</text>
<line x1="200" y1="0" x2="1000" y2="0" stroke="lightgray"/>
<line x1="200" y1="20.0" x2="1000" y2="20.0" stroke="lightgray"/>
<line x1="200" y1="40.0" x2="1000" y2="40.0" stroke="lightgray"/>
<line x1="200" y1="60" x2="1000" y2="60" stroke="lightgray"/>
<line x1="200.0" y1="0" x2="200.0" y2="60" stroke="lightgray"/>
<line x1="400.0" y1="0" x2="400.0" y2="60" stroke="lightgray"/>
<line x1="600.0" y1="0" x2="600.0" y2="60" stroke="lightgray"/>
<line x1="800.0" y1="0" x2="800.0" y2="60" stroke="lightgray"/>
<line x1="1000.0" y1="0" x2="1000.0" y2="60" stroke="lightgray"/>
<circle cx="782.0670773442847" cy="39.0" r="2" stroke="black" fill="black"/>
<circle cx="797.3990417522244" cy="30.333333333333332" r="2" stroke="black" fill="black"/>
<circle cx="805.0650239561944" cy="28.0" r="2" stroke="black" fill="black"/>
<circle cx="812.7310061601643" cy="27.666666666666668" r="2" stroke="black" fill="black"/>
<circle cx="828.062970568104" cy="52.666666666666664" r="2" stroke="black" fill="black"/>
<circle cx="835.7289527720739" cy="47.666666666666664" r="2" stroke="black" fill="black"/>
<circle cx="866.3700661647274" cy="30.333333333333332" r="2" stroke="black" fill="black"/>
<circle cx="897.0339949806068" cy="37.333333333333336" r="2" stroke="black" fill="black"/>
<circle cx="904.6999771845767" cy="19.666666666666668" r="2" stroke="black" fill="black"/>
<circle cx="912.3659593885467" cy="16.333333333333332" r="2" stroke="black" fill="black"/>
<circle cx="977.5496235455169" cy="40.0" r="2" stroke="black" fill="black"/>
</svg>
