<svg viewBox="0, 0, 1000, 60" width="100%" height="100%" xmlns="http://www.w3.org/2000/svg">

<text x="0" y="30">
11 Moj Maro, Moj Marine
</text>
<line x1="200" y1="0" x2="1000" y2="0" stroke="lightgray"/>
<line x1="200" y1="20.0" x2="1000" y2="20.0" stroke="lightgray"/>
<line x1="200" y1="40.0" x2="1000" y2="40.0" stroke="lightgray"/>
<line x1="200" y1="60" x2="1000" y2="60" stroke="lightgray"/>
<line x1="200.0" y1="0" x2="200.0" y2="60" stroke="lightgray"/>
<line x1="400.0" y1="0" x2="400.0" y2="60" stroke="lightgray"/>
<line x1="600.0" y1="0" x2="600.0" y2="60" stroke="lightgray"/>
<line x1="800.0" y1="0" x2="800.0" y2="60" stroke="lightgray"/>
<line x1="1000.0" y1="0" x2="1000.0" y2="60" stroke="lightgray"/>
<circle cx="337.4172940908054" cy="41.666666666666664" r="2" stroke="black" fill="black"/>
<circle cx="348.9162673967602" cy="17.666666666666668" r="2" stroke="black" fill="black"/>
<circle cx="356.58224960073005" cy="47.33333333333333" r="2" stroke="black" fill="black"/>
<circle cx="483.0709559662332" cy="49.666666666666664" r="2" stroke="black" fill="black"/>
<circle cx="517.5678758840976" cy="18.0" r="2" stroke="black" fill="black"/>
<circle cx="529.0668491900525" cy="49.0" r="2" stroke="black" fill="black"/>
<circle cx="559.730778005932" cy="51.33333333333333" r="2" stroke="black" fill="black"/>
<circle cx="686.219484371435" cy="6.0" r="2" stroke="black" fill="black"/>
<circle cx="701.5514487793749" cy="47.666666666666664" r="2" stroke="black" fill="black"/>
<circle cx="736.0483686972393" cy="38.66666666666667" r="2" stroke="black" fill="black"/>
<circle cx="904.6999771845767" cy="15.0" r="2" stroke="black" fill="black"/>
</svg>
