<svg viewBox="0, 0, 1000, 60" width="100%" height="100%" xmlns="http://www.w3.org/2000/svg">

<text x="0" y="30">
11 Barsgeren Yeghanag
</text>
<line x1="200" y1="0" x2="1000" y2="0" stroke="lightgray"/>
<line x1="200" y1="20.0" x2="1000" y2="20.0" stroke="lightgray"/>
<line x1="200" y1="40.0" x2="1000" y2="40.0" stroke="lightgray"/>
<line x1="200" y1="60" x2="1000" y2="60" stroke="lightgray"/>
<line x1="200.0" y1="0" x2="200.0" y2="60" stroke="lightgray"/>
<line x1="400.0" y1="0" x2="400.0" y2="60" stroke="lightgray"/>
<line x1="600.0" y1="0" x2="600.0" y2="60" stroke="lightgray"/>
<line x1="800.0" y1="0" x2="800.0" y2="60" stroke="lightgray"/>
<line x1="1000.0" y1="0" x2="1000.0" y2="60" stroke="lightgray"/>
<circle cx="429.4318959616701" cy="3.333333333333333" r="2" stroke="black" fill="black"/>
<circle cx="437.09787816564" cy="38.33333333333333" r="2" stroke="black" fill="black"/>
<circle cx="460.0730093543235" cy="43.0" r="2" stroke="black" fill="black"/>
<circle cx="494.569929272188" cy="12.0" r="2" stroke="black" fill="black"/>
<circle cx="502.23591147615787" cy="16.666666666666668" r="2" stroke="black" fill="black"/>
<circle cx="517.5678758840976" cy="14.333333333333334" r="2" stroke="black" fill="black"/>
<circle cx="598.0835044490075" cy="47.0" r="2" stroke="black" fill="black"/>
<circle cx="628.747433264887" cy="12.0" r="2" stroke="black" fill="black"/>
<circle cx="701.5514487793749" cy="15.0" r="2" stroke="black" fill="black"/>
<circle cx="759.0463153091489" cy="34.0" r="2" stroke="black" fill="black"/>
</svg>
