<svg viewBox="0, 0, 1000, 60" width="100%" height="100%" xmlns="http://www.w3.org/2000/svg">

<text x="0" y="30">
11 Bavno
</text>
<line x1="200" y1="0" x2="1000" y2="0" stroke="lightgray"/>
<line x1="200" y1="20.0" x2="1000" y2="20.0" stroke="lightgray"/>
<line x1="200" y1="40.0" x2="1000" y2="40.0" stroke="lightgray"/>
<line x1="200" y1="60" x2="1000" y2="60" stroke="lightgray"/>
<line x1="200.0" y1="0" x2="200.0" y2="60" stroke="lightgray"/>
<line x1="400.0" y1="0" x2="400.0" y2="60" stroke="lightgray"/>
<line x1="600.0" y1="0" x2="600.0" y2="60" stroke="lightgray"/>
<line x1="800.0" y1="0" x2="800.0" y2="60" stroke="lightgray"/>
<line x1="1000.0" y1="0" x2="1000.0" y2="60" stroke="lightgray"/>
<circle cx="391.10198494182066" cy="32.33333333333333" r="2" stroke="black" fill="black"/>
<circle cx="444.74104494638374" cy="48.666666666666664" r="2" stroke="black" fill="black"/>
<circle cx="601.9164955509924" cy="47.33333333333333" r="2" stroke="black" fill="black"/>
<circle cx="812.7310061601643" cy="38.0" r="2" stroke="black" fill="black"/>
<circle cx="835.7289527720739" cy="50.333333333333336" r="2" stroke="black" fill="black"/>
<circle cx="843.3721195528177" cy="47.33333333333333" r="2" stroke="black" fill="black"/>
<circle cx="935.3639060004564" cy="47.666666666666664" r="2" stroke="black" fill="black"/>
<circle cx="939.1968971024412" cy="45.33333333333333" r="2" stroke="black" fill="black"/>
<circle cx="954.528861510381" cy="53.66666666666667" r="2" stroke="black" fill="black"/>
<circle cx="966.0278348163358" cy="45.33333333333333" r="2" stroke="black" fill="black"/>
<circle cx="977.5496235455169" cy="32.33333333333333" r="2" stroke="black" fill="black"/>
</svg>
