<svg viewBox="0, 0, 1000, 60" width="100%" height="100%" xmlns="http://www.w3.org/2000/svg">

<text x="0" y="30">
11 Sabrali Sa Se Sabrali
</text>
<line x1="200" y1="0" x2="1000" y2="0" stroke="lightgray"/>
<line x1="200" y1="20.0" x2="1000" y2="20.0" stroke="lightgray"/>
<line x1="200" y1="40.0" x2="1000" y2="40.0" stroke="lightgray"/>
<line x1="200" y1="60" x2="1000" y2="60" stroke="lightgray"/>
<line x1="200.0" y1="0" x2="200.0" y2="60" stroke="lightgray"/>
<line x1="400.0" y1="0" x2="400.0" y2="60" stroke="lightgray"/>
<line x1="600.0" y1="0" x2="600.0" y2="60" stroke="lightgray"/>
<line x1="800.0" y1="0" x2="800.0" y2="60" stroke="lightgray"/>
<line x1="1000.0" y1="0" x2="1000.0" y2="60" stroke="lightgray"/>
<circle cx="318.2523385808807" cy="14.333333333333334" r="2" stroke="black" fill="black"/>
<circle cx="417.9329226557153" cy="15.333333333333332" r="2" stroke="black" fill="black"/>
<circle cx="444.74104494638374" cy="15.0" r="2" stroke="black" fill="black"/>
<circle cx="494.569929272188" cy="27.666666666666668" r="2" stroke="black" fill="black"/>
<circle cx="502.23591147615787" cy="17.666666666666668" r="2" stroke="black" fill="black"/>
<circle cx="552.0647958019622" cy="36.0" r="2" stroke="black" fill="black"/>
<circle cx="559.730778005932" cy="16.333333333333332" r="2" stroke="black" fill="black"/>
<circle cx="628.747433264887" cy="41.333333333333336" r="2" stroke="black" fill="black"/>
<circle cx="736.0483686972393" cy="32.666666666666664" r="2" stroke="black" fill="black"/>
<circle cx="920.0319415925167" cy="34.0" r="2" stroke="black" fill="black"/>
<circle cx="939.1968971024412" cy="40.66666666666667" r="2" stroke="black" fill="black"/>
</svg>
