<svg viewBox="0, 0, 1000, 60" width="100%" height="100%" xmlns="http://www.w3.org/2000/svg">

<text x="0" y="30">
11 Karsi Bar
</text>
<line x1="200" y1="0" x2="1000" y2="0" stroke="lightgray"/>
<line x1="200" y1="20.0" x2="1000" y2="20.0" stroke="lightgray"/>
<line x1="200" y1="40.0" x2="1000" y2="40.0" stroke="lightgray"/>
<line x1="200" y1="60" x2="1000" y2="60" stroke="lightgray"/>
<line x1="200.0" y1="0" x2="200.0" y2="60" stroke="lightgray"/>
<line x1="400.0" y1="0" x2="400.0" y2="60" stroke="lightgray"/>
<line x1="600.0" y1="0" x2="600.0" y2="60" stroke="lightgray"/>
<line x1="800.0" y1="0" x2="800.0" y2="60" stroke="lightgray"/>
<line x1="1000.0" y1="0" x2="1000.0" y2="60" stroke="lightgray"/>
<circle cx="310.58635637691077" cy="28.333333333333332" r="2" stroke="black" fill="black"/>
<circle cx="341.25028519279033" cy="8.0" r="2" stroke="black" fill="black"/>
<circle cx="437.09787816564" cy="26.0" r="2" stroke="black" fill="black"/>
<circle cx="467.7389915582934" cy="12.0" r="2" stroke="black" fill="black"/>
<circle cx="663.2215377595254" cy="12.333333333333332" r="2" stroke="black" fill="black"/>
<circle cx="728.3823864932695" cy="10.0" r="2" stroke="black" fill="black"/>
<circle cx="843.3721195528177" cy="35.333333333333336" r="2" stroke="black" fill="black"/>
<circle cx="866.3700661647274" cy="4.666666666666667" r="2" stroke="black" fill="black"/>
<circle cx="889.368012776637" cy="12.666666666666666" r="2" stroke="black" fill="black"/>
<circle cx="904.6999771845767" cy="9.0" r="2" stroke="black" fill="black"/>
<circle cx="920.0319415925167" cy="7.0" r="2" stroke="black" fill="black"/>
</svg>
