<svg viewBox="0, 0, 1000, 60" width="100%" height="100%" xmlns="http://www.w3.org/2000/svg">

<text x="0" y="30">
29 Tou Paradeisou Lemonia
</text>
<line x1="200" y1="0" x2="1000" y2="0" stroke="lightgray"/>
<line x1="200" y1="20.0" x2="1000" y2="20.0" stroke="lightgray"/>
<line x1="200" y1="40.0" x2="1000" y2="40.0" stroke="lightgray"/>
<line x1="200" y1="60" x2="1000" y2="60" stroke="lightgray"/>
<line x1="200.0" y1="0" x2="200.0" y2="60" stroke="lightgray"/>
<line x1="400.0" y1="0" x2="400.0" y2="60" stroke="lightgray"/>
<line x1="600.0" y1="0" x2="600.0" y2="60" stroke="lightgray"/>
<line x1="800.0" y1="0" x2="800.0" y2="60" stroke="lightgray"/>
<line x1="1000.0" y1="0" x2="1000.0" y2="60" stroke="lightgray"/>
<circle cx="586.5845311430527" cy="6.0" r="2" stroke="black" fill="black"/>
<circle cx="598.0835044490075" cy="43.666666666666664" r="2" stroke="black" fill="black"/>
<circle cx="601.9164955509924" cy="9.666666666666668" r="2" stroke="black" fill="black"/>
<circle cx="628.747433264887" cy="7.666666666666666" r="2" stroke="black" fill="black"/>
<circle cx="632.580424366872" cy="17.333333333333332" r="2" stroke="black" fill="black"/>
<circle cx="655.5555555555555" cy="16.0" r="2" stroke="black" fill="black"/>
<circle cx="663.2215377595254" cy="14.333333333333334" r="2" stroke="black" fill="black"/>
<circle cx="670.8875199634953" cy="14.0" r="2" stroke="black" fill="black"/>
<circle cx="678.5535021674652" cy="54.666666666666664" r="2" stroke="black" fill="black"/>
<circle cx="686.219484371435" cy="13.666666666666666" r="2" stroke="black" fill="black"/>
<circle cx="716.8834131873147" cy="14.0" r="2" stroke="black" fill="black"/>
<circle cx="728.3823864932695" cy="15.0" r="2" stroke="black" fill="black"/>
<circle cx="736.0483686972393" cy="46.666666666666664" r="2" stroke="black" fill="black"/>
<circle cx="751.380333105179" cy="7.0" r="2" stroke="black" fill="black"/>
<circle cx="759.0463153091489" cy="10.333333333333334" r="2" stroke="black" fill="black"/>
<circle cx="774.4010951403149" cy="7.0" r="2" stroke="black" fill="black"/>
<circle cx="782.0670773442847" cy="21.0" r="2" stroke="black" fill="black"/>
<circle cx="805.0650239561944" cy="19.666666666666668" r="2" stroke="black" fill="black"/>
<circle cx="812.7310061601643" cy="40.0" r="2" stroke="black" fill="black"/>
<circle cx="835.7289527720739" cy="18.0" r="2" stroke="black" fill="black"/>
<circle cx="843.3721195528177" cy="19.0" r="2" stroke="black" fill="black"/>
<circle cx="858.7040839607574" cy="39.0" r="2" stroke="black" fill="black"/>
<circle cx="866.3700661647274" cy="9.0" r="2" stroke="black" fill="black"/>
<circle cx="881.7020305726671" cy="44.333333333333336" r="2" stroke="black" fill="black"/>
<circle cx="897.0339949806068" cy="25.0" r="2" stroke="black" fill="black"/>
<circle cx="912.3659593885467" cy="10.0" r="2" stroke="black" fill="black"/>
<circle cx="935.3639060004564" cy="36.33333333333333" r="2" stroke="black" fill="black"/>
<circle cx="950.6958704083961" cy="53.33333333333333" r="2" stroke="black" fill="black"/>
<circle cx="973.7166324435318" cy="10.0" r="2" stroke="black" fill="black"/>
</svg>
