<svg viewBox="0, 0, 1000, 60" width="100%" height="100%" xmlns="http://www.w3.org/2000/svg">

<text x="0" y="30">
29 Arap
</text>
<line x1="200" y1="0" x2="1000" y2="0" stroke="lightgray"/>
<line x1="200" y1="20.0" x2="1000" y2="20.0" stroke="lightgray"/>
<line x1="200" y1="40.0" x2="1000" y2="40.0" stroke="lightgray"/>
<line x1="200" y1="60" x2="1000" y2="60" stroke="lightgray"/>
<line x1="200.0" y1="0" x2="200.0" y2="60" stroke="lightgray"/>
<line x1="400.0" y1="0" x2="400.0" y2="60" stroke="lightgray"/>
<line x1="600.0" y1="0" x2="600.0" y2="60" stroke="lightgray"/>
<line x1="800.0" y1="0" x2="800.0" y2="60" stroke="lightgray"/>
<line x1="1000.0" y1="0" x2="1000.0" y2="60" stroke="lightgray"/>
<circle cx="337.4172940908054" cy="15.666666666666668" r="2" stroke="black" fill="black"/>
<circle cx="356.58224960073005" cy="29.333333333333332" r="2" stroke="black" fill="black"/>
<circle cx="371.93702943189595" cy="37.0" r="2" stroke="black" fill="black"/>
<circle cx="391.10198494182066" cy="0.33333333333333337" r="2" stroke="black" fill="black"/>
<circle cx="398.7679671457905" cy="4.666666666666667" r="2" stroke="black" fill="black"/>
<circle cx="437.09787816564" cy="6.0" r="2" stroke="black" fill="black"/>
<circle cx="460.0730093543235" cy="33.666666666666664" r="2" stroke="black" fill="black"/>
<circle cx="467.7389915582934" cy="13.0" r="2" stroke="black" fill="black"/>
<circle cx="529.0668491900525" cy="24.0" r="2" stroke="black" fill="black"/>
<circle cx="536.7328313940224" cy="9.0" r="2" stroke="black" fill="black"/>
<circle cx="552.0647958019622" cy="5.666666666666666" r="2" stroke="black" fill="black"/>
<circle cx="559.730778005932" cy="28.666666666666668" r="2" stroke="black" fill="black"/>
<circle cx="601.9164955509924" cy="4.666666666666667" r="2" stroke="black" fill="black"/>
<circle cx="682.3864932694502" cy="27.666666666666668" r="2" stroke="black" fill="black"/>
<circle cx="701.5514487793749" cy="20.666666666666668" r="2" stroke="black" fill="black"/>
<circle cx="736.0483686972393" cy="25.0" r="2" stroke="black" fill="black"/>
<circle cx="828.062970568104" cy="29.333333333333332" r="2" stroke="black" fill="black"/>
<circle cx="835.7289527720739" cy="28.666666666666668" r="2" stroke="black" fill="black"/>
<circle cx="318.2523385808807" cy="15.333333333333332" r="2" stroke="blue" fill="blue"/>
<circle cx="325.91832078485055" cy="20.333333333333336" r="2" stroke="blue" fill="blue"/>
<circle cx="383.4360027378508" cy="29.666666666666668" r="2" stroke="blue" fill="blue"/>
<circle cx="475.4049737622633" cy="20.666666666666668" r="2" stroke="blue" fill="blue"/>
<circle cx="483.0709559662332" cy="38.33333333333333" r="2" stroke="blue" fill="blue"/>
<circle cx="502.23591147615787" cy="31.000000000000004" r="2" stroke="blue" fill="blue"/>
<circle cx="571.252566735113" cy="6.666666666666666" r="2" stroke="blue" fill="blue"/>
<circle cx="663.2215377595254" cy="25.333333333333332" r="2" stroke="blue" fill="blue"/>
<circle cx="686.219484371435" cy="53.66666666666667" r="2" stroke="blue" fill="blue"/>
<circle cx="812.7310061601643" cy="5.0" r="2" stroke="blue" fill="blue"/>
<circle cx="954.528861510381" cy="30.0" r="2" stroke="blue" fill="blue"/>
</svg>
