<svg viewBox="0, 0, 1000, 60" width="100%" height="100%" xmlns="http://www.w3.org/2000/svg">

<text x="0" y="30">
10 Mia Kori
</text>
<line x1="200" y1="0" x2="1000" y2="0" stroke="lightgray"/>
<line x1="200" y1="20.0" x2="1000" y2="20.0" stroke="lightgray"/>
<line x1="200" y1="40.0" x2="1000" y2="40.0" stroke="lightgray"/>
<line x1="200" y1="60" x2="1000" y2="60" stroke="lightgray"/>
<line x1="200.0" y1="0" x2="200.0" y2="60" stroke="lightgray"/>
<line x1="400.0" y1="0" x2="400.0" y2="60" stroke="lightgray"/>
<line x1="600.0" y1="0" x2="600.0" y2="60" stroke="lightgray"/>
<line x1="800.0" y1="0" x2="800.0" y2="60" stroke="lightgray"/>
<line x1="1000.0" y1="0" x2="1000.0" y2="60" stroke="lightgray"/>
<circle cx="452.40702715035366" cy="44.66666666666667" r="2" stroke="black" fill="black"/>
<circle cx="506.0689025781428" cy="53.0" r="2" stroke="black" fill="black"/>
<circle cx="536.7328313940224" cy="38.66666666666667" r="2" stroke="black" fill="black"/>
<circle cx="670.8875199634953" cy="50.666666666666664" r="2" stroke="black" fill="black"/>
<circle cx="812.7310061601643" cy="39.0" r="2" stroke="black" fill="black"/>
<circle cx="835.7289527720739" cy="53.66666666666667" r="2" stroke="black" fill="black"/>
<circle cx="858.7040839607574" cy="50.333333333333336" r="2" stroke="black" fill="black"/>
<circle cx="866.3700661647274" cy="48.0" r="2" stroke="black" fill="black"/>
<circle cx="912.3659593885467" cy="45.33333333333333" r="2" stroke="black" fill="black"/>
<circle cx="977.5496235455169" cy="44.333333333333336" r="2" stroke="black" fill="black"/>
</svg>
