<svg viewBox="0, 0, 1000, 60" width="100%" height="100%" xmlns="http://www.w3.org/2000/svg">

<text x="0" y="30">
10 Three Serbian Dances
</text>
<line x1="200" y1="0" x2="1000" y2="0" stroke="lightgray"/>
<line x1="200" y1="20.0" x2="1000" y2="20.0" stroke="lightgray"/>
<line x1="200" y1="40.0" x2="1000" y2="40.0" stroke="lightgray"/>
<line x1="200" y1="60" x2="1000" y2="60" stroke="lightgray"/>
<line x1="200.0" y1="0" x2="200.0" y2="60" stroke="lightgray"/>
<line x1="400.0" y1="0" x2="400.0" y2="60" stroke="lightgray"/>
<line x1="600.0" y1="0" x2="600.0" y2="60" stroke="lightgray"/>
<line x1="800.0" y1="0" x2="800.0" y2="60" stroke="lightgray"/>
<line x1="1000.0" y1="0" x2="1000.0" y2="60" stroke="lightgray"/>
<circle cx="325.91832078485055" cy="33.666666666666664" r="2" stroke="black" fill="black"/>
<circle cx="364.2482318047" cy="17.0" r="2" stroke="black" fill="black"/>
<circle cx="383.4360027378508" cy="41.0" r="2" stroke="black" fill="black"/>
<circle cx="429.4318959616701" cy="46.333333333333336" r="2" stroke="black" fill="black"/>
<circle cx="437.09787816564" cy="33.333333333333336" r="2" stroke="black" fill="black"/>
<circle cx="529.0668491900525" cy="31.666666666666668" r="2" stroke="black" fill="black"/>
<circle cx="686.219484371435" cy="33.333333333333336" r="2" stroke="black" fill="black"/>
<circle cx="716.8834131873147" cy="48.333333333333336" r="2" stroke="black" fill="black"/>
<circle cx="736.0483686972393" cy="37.333333333333336" r="2" stroke="black" fill="black"/>
</svg>
