<svg viewBox="0, 0, 1000, 60" width="100%" height="100%" xmlns="http://www.w3.org/2000/svg">

<text x="0" y="30">
10 Osmi Mart
</text>
<line x1="200" y1="0" x2="1000" y2="0" stroke="lightgray"/>
<line x1="200" y1="20.0" x2="1000" y2="20.0" stroke="lightgray"/>
<line x1="200" y1="40.0" x2="1000" y2="40.0" stroke="lightgray"/>
<line x1="200" y1="60" x2="1000" y2="60" stroke="lightgray"/>
<line x1="200.0" y1="0" x2="200.0" y2="60" stroke="lightgray"/>
<line x1="400.0" y1="0" x2="400.0" y2="60" stroke="lightgray"/>
<line x1="600.0" y1="0" x2="600.0" y2="60" stroke="lightgray"/>
<line x1="800.0" y1="0" x2="800.0" y2="60" stroke="lightgray"/>
<line x1="1000.0" y1="0" x2="1000.0" y2="60" stroke="lightgray"/>
<circle cx="502.23591147615787" cy="39.333333333333336" r="2" stroke="black" fill="black"/>
<circle cx="601.9164955509924" cy="31.666666666666668" r="2" stroke="black" fill="black"/>
<circle cx="663.2215377595254" cy="42.333333333333336" r="2" stroke="black" fill="black"/>
<circle cx="670.8875199634953" cy="37.666666666666664" r="2" stroke="black" fill="black"/>
<circle cx="774.4010951403149" cy="31.333333333333336" r="2" stroke="black" fill="black"/>
<circle cx="805.0650239561944" cy="48.666666666666664" r="2" stroke="black" fill="black"/>
<circle cx="912.3659593885467" cy="14.0" r="2" stroke="black" fill="black"/>
<circle cx="935.3639060004564" cy="55.0" r="2" stroke="black" fill="black"/>
<circle cx="977.5496235455169" cy="37.0" r="2" stroke="black" fill="black"/>
</svg>
