<svg viewBox="0, 0, 1000, 60" width="100%" height="100%" xmlns="http://www.w3.org/2000/svg">

<text x="0" y="30">
10 Agir Halay
</text>
<line x1="200" y1="0" x2="1000" y2="0" stroke="lightgray"/>
<line x1="200" y1="20.0" x2="1000" y2="20.0" stroke="lightgray"/>
<line x1="200" y1="40.0" x2="1000" y2="40.0" stroke="lightgray"/>
<line x1="200" y1="60" x2="1000" y2="60" stroke="lightgray"/>
<line x1="200.0" y1="0" x2="200.0" y2="60" stroke="lightgray"/>
<line x1="400.0" y1="0" x2="400.0" y2="60" stroke="lightgray"/>
<line x1="600.0" y1="0" x2="600.0" y2="60" stroke="lightgray"/>
<line x1="800.0" y1="0" x2="800.0" y2="60" stroke="lightgray"/>
<line x1="1000.0" y1="0" x2="1000.0" y2="60" stroke="lightgray"/>
<circle cx="383.4360027378508" cy="14.333333333333334" r="2" stroke="black" fill="black"/>
<circle cx="398.7679671457905" cy="47.33333333333333" r="2" stroke="black" fill="black"/>
<circle cx="406.4339493497605" cy="26.0" r="2" stroke="black" fill="black"/>
<circle cx="701.5514487793749" cy="9.666666666666668" r="2" stroke="black" fill="black"/>
<circle cx="716.8834131873147" cy="17.666666666666668" r="2" stroke="black" fill="black"/>
<circle cx="728.3823864932695" cy="26.0" r="2" stroke="black" fill="black"/>
<circle cx="904.6999771845767" cy="31.666666666666668" r="2" stroke="black" fill="black"/>
<circle cx="318.2523385808807" cy="49.666666666666664" r="2" stroke="blue" fill="blue"/>
</svg>
