<svg viewBox="0, 0, 1000, 60" width="100%" height="100%" xmlns="http://www.w3.org/2000/svg">

<text x="0" y="30">
10 Gagauzko
</text>
<line x1="200" y1="0" x2="1000" y2="0" stroke="lightgray"/>
<line x1="200" y1="20.0" x2="1000" y2="20.0" stroke="lightgray"/>
<line x1="200" y1="40.0" x2="1000" y2="40.0" stroke="lightgray"/>
<line x1="200" y1="60" x2="1000" y2="60" stroke="lightgray"/>
<line x1="200.0" y1="0" x2="200.0" y2="60" stroke="lightgray"/>
<line x1="400.0" y1="0" x2="400.0" y2="60" stroke="lightgray"/>
<line x1="600.0" y1="0" x2="600.0" y2="60" stroke="lightgray"/>
<line x1="800.0" y1="0" x2="800.0" y2="60" stroke="lightgray"/>
<line x1="1000.0" y1="0" x2="1000.0" y2="60" stroke="lightgray"/>
<circle cx="356.58224960073005" cy="28.0" r="2" stroke="black" fill="black"/>
<circle cx="406.4339493497605" cy="32.0" r="2" stroke="black" fill="black"/>
<circle cx="444.74104494638374" cy="8.666666666666666" r="2" stroke="black" fill="black"/>
<circle cx="475.4049737622633" cy="39.333333333333336" r="2" stroke="black" fill="black"/>
<circle cx="628.747433264887" cy="47.33333333333333" r="2" stroke="black" fill="black"/>
<circle cx="701.5514487793749" cy="24.0" r="2" stroke="black" fill="black"/>
<circle cx="736.0483686972393" cy="26.0" r="2" stroke="black" fill="black"/>
<circle cx="751.380333105179" cy="49.33333333333333" r="2" stroke="black" fill="black"/>
<circle cx="904.6999771845767" cy="34.33333333333333" r="2" stroke="black" fill="black"/>
</svg>
