<svg viewBox="0, 0, 1000, 60" width="100%" height="100%" xmlns="http://www.w3.org/2000/svg">

<text x="0" y="30">
28 Branle de la fosse aux loups
</text>
<line x1="200" y1="0" x2="1000" y2="0" stroke="lightgray"/>
<line x1="200" y1="20.0" x2="1000" y2="20.0" stroke="lightgray"/>
<line x1="200" y1="40.0" x2="1000" y2="40.0" stroke="lightgray"/>
<line x1="200" y1="60" x2="1000" y2="60" stroke="lightgray"/>
<line x1="200.0" y1="0" x2="200.0" y2="60" stroke="lightgray"/>
<line x1="400.0" y1="0" x2="400.0" y2="60" stroke="lightgray"/>
<line x1="600.0" y1="0" x2="600.0" y2="60" stroke="lightgray"/>
<line x1="800.0" y1="0" x2="800.0" y2="60" stroke="lightgray"/>
<line x1="1000.0" y1="0" x2="1000.0" y2="60" stroke="lightgray"/>
<circle cx="559.730778005932" cy="41.0" r="2" stroke="black" fill="black"/>
<circle cx="571.252566735113" cy="43.0" r="2" stroke="black" fill="black"/>
<circle cx="586.5845311430527" cy="18.333333333333336" r="2" stroke="black" fill="black"/>
<circle cx="598.0835044490075" cy="33.333333333333336" r="2" stroke="black" fill="black"/>
<circle cx="601.9164955509924" cy="6.666666666666666" r="2" stroke="black" fill="black"/>
<circle cx="628.747433264887" cy="16.666666666666668" r="2" stroke="black" fill="black"/>
<circle cx="632.580424366872" cy="36.66666666666667" r="2" stroke="black" fill="black"/>
<circle cx="655.5555555555555" cy="39.0" r="2" stroke="black" fill="black"/>
<circle cx="663.2215377595254" cy="5.333333333333334" r="2" stroke="black" fill="black"/>
<circle cx="670.8875199634953" cy="47.666666666666664" r="2" stroke="black" fill="black"/>
<circle cx="678.5535021674652" cy="28.666666666666668" r="2" stroke="black" fill="black"/>
<circle cx="682.3864932694502" cy="21.666666666666668" r="2" stroke="black" fill="black"/>
<circle cx="701.5514487793749" cy="30.0" r="2" stroke="black" fill="black"/>
<circle cx="728.3823864932695" cy="11.0" r="2" stroke="black" fill="black"/>
<circle cx="736.0483686972393" cy="27.333333333333332" r="2" stroke="black" fill="black"/>
<circle cx="751.380333105179" cy="33.333333333333336" r="2" stroke="black" fill="black"/>
<circle cx="774.4010951403149" cy="12.333333333333332" r="2" stroke="black" fill="black"/>
<circle cx="812.7310061601643" cy="14.0" r="2" stroke="black" fill="black"/>
<circle cx="828.062970568104" cy="21.333333333333336" r="2" stroke="black" fill="black"/>
<circle cx="851.0381017567876" cy="31.666666666666668" r="2" stroke="black" fill="black"/>
<circle cx="912.3659593885467" cy="7.666666666666666" r="2" stroke="black" fill="black"/>
<circle cx="939.1968971024412" cy="31.000000000000004" r="2" stroke="black" fill="black"/>
<circle cx="966.0278348163358" cy="13.666666666666666" r="2" stroke="black" fill="black"/>
<circle cx="973.7166324435318" cy="16.0" r="2" stroke="black" fill="black"/>
<circle cx="686.219484371435" cy="31.000000000000004" r="2" stroke="blue" fill="blue"/>
<circle cx="716.8834131873147" cy="15.333333333333332" r="2" stroke="blue" fill="blue"/>
<circle cx="759.0463153091489" cy="14.666666666666666" r="2" stroke="blue" fill="blue"/>
<circle cx="805.0650239561944" cy="39.666666666666664" r="2" stroke="blue" fill="blue"/>
</svg>
