<svg viewBox="0, 0, 1000, 60" width="100%" height="100%" xmlns="http://www.w3.org/2000/svg">

<text x="0" y="30">
9 Dobrudanski Buenek
</text>
<line x1="200" y1="0" x2="1000" y2="0" stroke="lightgray"/>
<line x1="200" y1="20.0" x2="1000" y2="20.0" stroke="lightgray"/>
<line x1="200" y1="40.0" x2="1000" y2="40.0" stroke="lightgray"/>
<line x1="200" y1="60" x2="1000" y2="60" stroke="lightgray"/>
<line x1="200.0" y1="0" x2="200.0" y2="60" stroke="lightgray"/>
<line x1="400.0" y1="0" x2="400.0" y2="60" stroke="lightgray"/>
<line x1="600.0" y1="0" x2="600.0" y2="60" stroke="lightgray"/>
<line x1="800.0" y1="0" x2="800.0" y2="60" stroke="lightgray"/>
<line x1="1000.0" y1="0" x2="1000.0" y2="60" stroke="lightgray"/>
<circle cx="325.91832078485055" cy="36.33333333333333" r="2" stroke="black" fill="black"/>
<circle cx="348.9162673967602" cy="35.666666666666664" r="2" stroke="black" fill="black"/>
<circle cx="371.93702943189595" cy="27.0" r="2" stroke="black" fill="black"/>
<circle cx="391.10198494182066" cy="44.0" r="2" stroke="black" fill="black"/>
<circle cx="421.7659137577002" cy="41.666666666666664" r="2" stroke="black" fill="black"/>
<circle cx="444.74104494638374" cy="54.666666666666664" r="2" stroke="black" fill="black"/>
<circle cx="467.7389915582934" cy="25.666666666666664" r="2" stroke="black" fill="black"/>
<circle cx="571.252566735113" cy="49.666666666666664" r="2" stroke="black" fill="black"/>
<circle cx="797.3990417522244" cy="37.0" r="2" stroke="black" fill="black"/>
</svg>
