<svg viewBox="0, 0, 1000, 60" width="100%" height="100%" xmlns="http://www.w3.org/2000/svg">

<text x="0" y="30">
9 Belasicko Oro
</text>
<line x1="200" y1="0" x2="1000" y2="0" stroke="lightgray"/>
<line x1="200" y1="20.0" x2="1000" y2="20.0" stroke="lightgray"/>
<line x1="200" y1="40.0" x2="1000" y2="40.0" stroke="lightgray"/>
<line x1="200" y1="60" x2="1000" y2="60" stroke="lightgray"/>
<line x1="200.0" y1="0" x2="200.0" y2="60" stroke="lightgray"/>
<line x1="400.0" y1="0" x2="400.0" y2="60" stroke="lightgray"/>
<line x1="600.0" y1="0" x2="600.0" y2="60" stroke="lightgray"/>
<line x1="800.0" y1="0" x2="800.0" y2="60" stroke="lightgray"/>
<line x1="1000.0" y1="0" x2="1000.0" y2="60" stroke="lightgray"/>
<circle cx="325.91832078485055" cy="28.666666666666668" r="2" stroke="black" fill="black"/>
<circle cx="391.10198494182066" cy="14.0" r="2" stroke="black" fill="black"/>
<circle cx="429.4318959616701" cy="31.000000000000004" r="2" stroke="black" fill="black"/>
<circle cx="437.09787816564" cy="32.0" r="2" stroke="black" fill="black"/>
<circle cx="529.0668491900525" cy="54.0" r="2" stroke="black" fill="black"/>
<circle cx="904.6999771845767" cy="29.0" r="2" stroke="black" fill="black"/>
<circle cx="935.3639060004564" cy="33.333333333333336" r="2" stroke="black" fill="black"/>
<circle cx="939.1968971024412" cy="28.666666666666668" r="2" stroke="black" fill="black"/>
<circle cx="973.7166324435318" cy="37.0" r="2" stroke="black" fill="black"/>
</svg>
