<svg viewBox="0, 0, 1000, 60" width="100%" height="100%" xmlns="http://www.w3.org/2000/svg">

<text x="0" y="30">
9 Daichovo
</text>
<line x1="200" y1="0" x2="1000" y2="0" stroke="lightgray"/>
<line x1="200" y1="20.0" x2="1000" y2="20.0" stroke="lightgray"/>
<line x1="200" y1="40.0" x2="1000" y2="40.0" stroke="lightgray"/>
<line x1="200" y1="60" x2="1000" y2="60" stroke="lightgray"/>
<line x1="200.0" y1="0" x2="200.0" y2="60" stroke="lightgray"/>
<line x1="400.0" y1="0" x2="400.0" y2="60" stroke="lightgray"/>
<line x1="600.0" y1="0" x2="600.0" y2="60" stroke="lightgray"/>
<line x1="800.0" y1="0" x2="800.0" y2="60" stroke="lightgray"/>
<line x1="1000.0" y1="0" x2="1000.0" y2="60" stroke="lightgray"/>
<circle cx="858.7040839607574" cy="19.0" r="2" stroke="black" fill="black"/>
<circle cx="950.6958704083961" cy="47.33333333333333" r="2" stroke="black" fill="black"/>
<circle cx="954.528861510381" cy="38.33333333333333" r="2" stroke="black" fill="black"/>
<circle cx="977.5496235455169" cy="33.333333333333336" r="2" stroke="black" fill="black"/>
<circle cx="429.4318959616701" cy="52.333333333333336" r="2" stroke="blue" fill="blue"/>
<circle cx="678.5535021674652" cy="50.333333333333336" r="2" stroke="blue" fill="blue"/>
<circle cx="851.0381017567876" cy="0.33333333333333337" r="2" stroke="blue" fill="blue"/>
<circle cx="851.0381017567876" cy="4.666666666666667" r="2" stroke="blue" fill="blue"/>
</svg>
