<svg viewBox="0, 0, 1000, 60" width="100%" height="100%" xmlns="http://www.w3.org/2000/svg">

<text x="0" y="30">
9 Skudrinka
</text>
<line x1="200" y1="0" x2="1000" y2="0" stroke="lightgray"/>
<line x1="200" y1="20.0" x2="1000" y2="20.0" stroke="lightgray"/>
<line x1="200" y1="40.0" x2="1000" y2="40.0" stroke="lightgray"/>
<line x1="200" y1="60" x2="1000" y2="60" stroke="lightgray"/>
<line x1="200.0" y1="0" x2="200.0" y2="60" stroke="lightgray"/>
<line x1="400.0" y1="0" x2="400.0" y2="60" stroke="lightgray"/>
<line x1="600.0" y1="0" x2="600.0" y2="60" stroke="lightgray"/>
<line x1="800.0" y1="0" x2="800.0" y2="60" stroke="lightgray"/>
<line x1="1000.0" y1="0" x2="1000.0" y2="60" stroke="lightgray"/>
<circle cx="310.58635637691077" cy="7.0" r="2" stroke="black" fill="black"/>
<circle cx="356.58224960073005" cy="26.0" r="2" stroke="black" fill="black"/>
<circle cx="444.74104494638374" cy="16.0" r="2" stroke="black" fill="black"/>
<circle cx="601.9164955509924" cy="29.666666666666668" r="2" stroke="black" fill="black"/>
<circle cx="782.0670773442847" cy="14.666666666666666" r="2" stroke="black" fill="black"/>
<circle cx="828.062970568104" cy="11.666666666666666" r="2" stroke="black" fill="black"/>
<circle cx="866.3700661647274" cy="14.0" r="2" stroke="black" fill="black"/>
</svg>
