<svg viewBox="0, 0, 1000, 60" width="100%" height="100%" xmlns="http://www.w3.org/2000/svg">

<text x="0" y="30">
9 Hora Mare
</text>
<line x1="200" y1="0" x2="1000" y2="0" stroke="lightgray"/>
<line x1="200" y1="20.0" x2="1000" y2="20.0" stroke="lightgray"/>
<line x1="200" y1="40.0" x2="1000" y2="40.0" stroke="lightgray"/>
<line x1="200" y1="60" x2="1000" y2="60" stroke="lightgray"/>
<line x1="200.0" y1="0" x2="200.0" y2="60" stroke="lightgray"/>
<line x1="400.0" y1="0" x2="400.0" y2="60" stroke="lightgray"/>
<line x1="600.0" y1="0" x2="600.0" y2="60" stroke="lightgray"/>
<line x1="800.0" y1="0" x2="800.0" y2="60" stroke="lightgray"/>
<line x1="1000.0" y1="0" x2="1000.0" y2="60" stroke="lightgray"/>
<circle cx="325.91832078485055" cy="49.33333333333333" r="2" stroke="black" fill="black"/>
<circle cx="371.93702943189595" cy="9.0" r="2" stroke="black" fill="black"/>
<circle cx="444.74104494638374" cy="37.333333333333336" r="2" stroke="black" fill="black"/>
<circle cx="655.5555555555555" cy="2.3333333333333335" r="2" stroke="black" fill="black"/>
<circle cx="716.8834131873147" cy="34.0" r="2" stroke="black" fill="black"/>
<circle cx="736.0483686972393" cy="7.666666666666666" r="2" stroke="black" fill="black"/>
<circle cx="920.0319415925167" cy="45.0" r="2" stroke="black" fill="black"/>
</svg>
