<svg viewBox="0, 0, 1000, 60" width="100%" height="100%" xmlns="http://www.w3.org/2000/svg">

<text x="0" y="30">
9 Satovcensko
</text>
<line x1="200" y1="0" x2="1000" y2="0" stroke="lightgray"/>
<line x1="200" y1="20.0" x2="1000" y2="20.0" stroke="lightgray"/>
<line x1="200" y1="40.0" x2="1000" y2="40.0" stroke="lightgray"/>
<line x1="200" y1="60" x2="1000" y2="60" stroke="lightgray"/>
<line x1="200.0" y1="0" x2="200.0" y2="60" stroke="lightgray"/>
<line x1="400.0" y1="0" x2="400.0" y2="60" stroke="lightgray"/>
<line x1="600.0" y1="0" x2="600.0" y2="60" stroke="lightgray"/>
<line x1="800.0" y1="0" x2="800.0" y2="60" stroke="lightgray"/>
<line x1="1000.0" y1="0" x2="1000.0" y2="60" stroke="lightgray"/>
<circle cx="356.58224960073005" cy="42.0" r="2" stroke="black" fill="black"/>
<circle cx="383.4360027378508" cy="33.666666666666664" r="2" stroke="black" fill="black"/>
<circle cx="391.10198494182066" cy="11.0" r="2" stroke="black" fill="black"/>
<circle cx="429.4318959616701" cy="15.666666666666668" r="2" stroke="black" fill="black"/>
<circle cx="475.4049737622633" cy="49.666666666666664" r="2" stroke="black" fill="black"/>
<circle cx="494.569929272188" cy="8.666666666666666" r="2" stroke="black" fill="black"/>
<circle cx="598.0835044490075" cy="47.666666666666664" r="2" stroke="black" fill="black"/>
<circle cx="797.3990417522244" cy="13.0" r="2" stroke="black" fill="black"/>
<circle cx="935.3639060004564" cy="51.33333333333333" r="2" stroke="black" fill="black"/>
</svg>
