<svg viewBox="0, 0, 1000, 60" width="100%" height="100%" xmlns="http://www.w3.org/2000/svg">

<text x="0" y="30">
27 Armenian Misirlou
</text>
<line x1="200" y1="0" x2="1000" y2="0" stroke="lightgray"/>
<line x1="200" y1="20.0" x2="1000" y2="20.0" stroke="lightgray"/>
<line x1="200" y1="40.0" x2="1000" y2="40.0" stroke="lightgray"/>
<line x1="200" y1="60" x2="1000" y2="60" stroke="lightgray"/>
<line x1="200.0" y1="0" x2="200.0" y2="60" stroke="lightgray"/>
<line x1="400.0" y1="0" x2="400.0" y2="60" stroke="lightgray"/>
<line x1="600.0" y1="0" x2="600.0" y2="60" stroke="lightgray"/>
<line x1="800.0" y1="0" x2="800.0" y2="60" stroke="lightgray"/>
<line x1="1000.0" y1="0" x2="1000.0" y2="60" stroke="lightgray"/>
<circle cx="337.4172940908054" cy="9.0" r="2" stroke="black" fill="black"/>
<circle cx="348.9162673967602" cy="46.666666666666664" r="2" stroke="black" fill="black"/>
<circle cx="364.2482318047" cy="10.333333333333334" r="2" stroke="black" fill="black"/>
<circle cx="467.7389915582934" cy="26.666666666666664" r="2" stroke="black" fill="black"/>
<circle cx="475.4049737622633" cy="31.000000000000004" r="2" stroke="black" fill="black"/>
<circle cx="483.0709559662332" cy="14.0" r="2" stroke="black" fill="black"/>
<circle cx="502.23591147615787" cy="35.666666666666664" r="2" stroke="black" fill="black"/>
<circle cx="517.5678758840976" cy="7.0" r="2" stroke="black" fill="black"/>
<circle cx="601.9164955509924" cy="32.666666666666664" r="2" stroke="black" fill="black"/>
<circle cx="628.747433264887" cy="6.333333333333333" r="2" stroke="black" fill="black"/>
<circle cx="655.5555555555555" cy="36.66666666666667" r="2" stroke="black" fill="black"/>
<circle cx="670.8875199634953" cy="11.333333333333332" r="2" stroke="black" fill="black"/>
<circle cx="678.5535021674652" cy="30.333333333333332" r="2" stroke="black" fill="black"/>
<circle cx="682.3864932694502" cy="7.333333333333333" r="2" stroke="black" fill="black"/>
<circle cx="686.219484371435" cy="10.666666666666668" r="2" stroke="black" fill="black"/>
<circle cx="701.5514487793749" cy="16.666666666666668" r="2" stroke="black" fill="black"/>
<circle cx="716.8834131873147" cy="27.0" r="2" stroke="black" fill="black"/>
<circle cx="759.0463153091489" cy="25.333333333333332" r="2" stroke="black" fill="black"/>
<circle cx="805.0650239561944" cy="17.333333333333332" r="2" stroke="black" fill="black"/>
<circle cx="812.7310061601643" cy="28.666666666666668" r="2" stroke="black" fill="black"/>
<circle cx="843.3721195528177" cy="8.333333333333334" r="2" stroke="black" fill="black"/>
<circle cx="904.6999771845767" cy="13.0" r="2" stroke="black" fill="black"/>
<circle cx="912.3659593885467" cy="5.0" r="2" stroke="black" fill="black"/>
<circle cx="935.3639060004564" cy="11.666666666666666" r="2" stroke="black" fill="black"/>
<circle cx="939.1968971024412" cy="7.0" r="2" stroke="black" fill="black"/>
<circle cx="966.0278348163358" cy="17.666666666666668" r="2" stroke="black" fill="black"/>
<circle cx="977.5496235455169" cy="28.666666666666668" r="2" stroke="black" fill="black"/>
</svg>
