<svg viewBox="0, 0, 1000, 60" width="100%" height="100%" xmlns="http://www.w3.org/2000/svg">

<text x="0" y="30">
9 Oropa
</text>
<line x1="200" y1="0" x2="1000" y2="0" stroke="lightgray"/>
<line x1="200" y1="20.0" x2="1000" y2="20.0" stroke="lightgray"/>
<line x1="200" y1="40.0" x2="1000" y2="40.0" stroke="lightgray"/>
<line x1="200" y1="60" x2="1000" y2="60" stroke="lightgray"/>
<line x1="200.0" y1="0" x2="200.0" y2="60" stroke="lightgray"/>
<line x1="400.0" y1="0" x2="400.0" y2="60" stroke="lightgray"/>
<line x1="600.0" y1="0" x2="600.0" y2="60" stroke="lightgray"/>
<line x1="800.0" y1="0" x2="800.0" y2="60" stroke="lightgray"/>
<line x1="1000.0" y1="0" x2="1000.0" y2="60" stroke="lightgray"/>
<circle cx="348.9162673967602" cy="6.0" r="2" stroke="black" fill="black"/>
<circle cx="517.5678758840976" cy="1.6666666666666665" r="2" stroke="black" fill="black"/>
<circle cx="586.5845311430527" cy="8.333333333333334" r="2" stroke="black" fill="black"/>
<circle cx="670.8875199634953" cy="7.333333333333333" r="2" stroke="black" fill="black"/>
<circle cx="701.5514487793749" cy="32.666666666666664" r="2" stroke="black" fill="black"/>
<circle cx="812.7310061601643" cy="0.33333333333333337" r="2" stroke="black" fill="black"/>
<circle cx="889.368012776637" cy="23.0" r="2" stroke="black" fill="black"/>
</svg>
