<svg viewBox="0, 0, 1000, 60" width="100%" height="100%" xmlns="http://www.w3.org/2000/svg">

<text x="0" y="30">
9 Vidinsko Horo
</text>
<line x1="200" y1="0" x2="1000" y2="0" stroke="lightgray"/>
<line x1="200" y1="20.0" x2="1000" y2="20.0" stroke="lightgray"/>
<line x1="200" y1="40.0" x2="1000" y2="40.0" stroke="lightgray"/>
<line x1="200" y1="60" x2="1000" y2="60" stroke="lightgray"/>
<line x1="200.0" y1="0" x2="200.0" y2="60" stroke="lightgray"/>
<line x1="400.0" y1="0" x2="400.0" y2="60" stroke="lightgray"/>
<line x1="600.0" y1="0" x2="600.0" y2="60" stroke="lightgray"/>
<line x1="800.0" y1="0" x2="800.0" y2="60" stroke="lightgray"/>
<line x1="1000.0" y1="0" x2="1000.0" y2="60" stroke="lightgray"/>
<circle cx="356.58224960073005" cy="30.333333333333332" r="2" stroke="black" fill="black"/>
<circle cx="371.93702943189595" cy="39.0" r="2" stroke="black" fill="black"/>
<circle cx="391.10198494182066" cy="9.666666666666668" r="2" stroke="black" fill="black"/>
<circle cx="475.4049737622633" cy="43.666666666666664" r="2" stroke="black" fill="black"/>
<circle cx="494.569929272188" cy="47.666666666666664" r="2" stroke="black" fill="black"/>
<circle cx="506.0689025781428" cy="45.33333333333333" r="2" stroke="black" fill="black"/>
<circle cx="517.5678758840976" cy="54.666666666666664" r="2" stroke="black" fill="black"/>
<circle cx="716.8834131873147" cy="49.666666666666664" r="2" stroke="black" fill="black"/>
<circle cx="759.0463153091489" cy="49.666666666666664" r="2" stroke="black" fill="black"/>
</svg>
