<svg viewBox="0, 0, 1000, 60" width="100%" height="100%" xmlns="http://www.w3.org/2000/svg">

<text x="0" y="30">
9 Mahala Mori Shej
</text>
<line x1="200" y1="0" x2="1000" y2="0" stroke="lightgray"/>
<line x1="200" y1="20.0" x2="1000" y2="20.0" stroke="lightgray"/>
<line x1="200" y1="40.0" x2="1000" y2="40.0" stroke="lightgray"/>
<line x1="200" y1="60" x2="1000" y2="60" stroke="lightgray"/>
<line x1="200.0" y1="0" x2="200.0" y2="60" stroke="lightgray"/>
<line x1="400.0" y1="0" x2="400.0" y2="60" stroke="lightgray"/>
<line x1="600.0" y1="0" x2="600.0" y2="60" stroke="lightgray"/>
<line x1="800.0" y1="0" x2="800.0" y2="60" stroke="lightgray"/>
<line x1="1000.0" y1="0" x2="1000.0" y2="60" stroke="lightgray"/>
<circle cx="310.58635637691077" cy="11.333333333333332" r="2" stroke="black" fill="black"/>
<circle cx="398.7679671457905" cy="18.0" r="2" stroke="black" fill="black"/>
<circle cx="429.4318959616701" cy="22.0" r="2" stroke="black" fill="black"/>
<circle cx="452.40702715035366" cy="8.333333333333334" r="2" stroke="black" fill="black"/>
<circle cx="552.0647958019622" cy="1.3333333333333335" r="2" stroke="black" fill="black"/>
<circle cx="782.0670773442847" cy="12.333333333333332" r="2" stroke="black" fill="black"/>
<circle cx="843.3721195528177" cy="32.666666666666664" r="2" stroke="black" fill="black"/>
<circle cx="851.0381017567876" cy="9.666666666666668" r="2" stroke="black" fill="black"/>
<circle cx="858.7040839607574" cy="9.0" r="2" stroke="black" fill="black"/>
</svg>
