<svg viewBox="0, 0, 1000, 60" width="100%" height="100%" xmlns="http://www.w3.org/2000/svg">

<text x="0" y="30">
9 Laride
</text>
<line x1="200" y1="0" x2="1000" y2="0" stroke="lightgray"/>
<line x1="200" y1="20.0" x2="1000" y2="20.0" stroke="lightgray"/>
<line x1="200" y1="40.0" x2="1000" y2="40.0" stroke="lightgray"/>
<line x1="200" y1="60" x2="1000" y2="60" stroke="lightgray"/>
<line x1="200.0" y1="0" x2="200.0" y2="60" stroke="lightgray"/>
<line x1="400.0" y1="0" x2="400.0" y2="60" stroke="lightgray"/>
<line x1="600.0" y1="0" x2="600.0" y2="60" stroke="lightgray"/>
<line x1="800.0" y1="0" x2="800.0" y2="60" stroke="lightgray"/>
<line x1="1000.0" y1="0" x2="1000.0" y2="60" stroke="lightgray"/>
<circle cx="682.3864932694502" cy="9.666666666666668" r="2" stroke="black" fill="black"/>
<circle cx="728.3823864932695" cy="32.0" r="2" stroke="black" fill="black"/>
<circle cx="759.0463153091489" cy="55.66666666666667" r="2" stroke="black" fill="black"/>
<circle cx="805.0650239561944" cy="42.333333333333336" r="2" stroke="black" fill="black"/>
<circle cx="851.0381017567876" cy="26.666666666666664" r="2" stroke="black" fill="black"/>
<circle cx="889.368012776637" cy="27.666666666666668" r="2" stroke="black" fill="black"/>
<circle cx="939.1968971024412" cy="32.666666666666664" r="2" stroke="black" fill="black"/>
<circle cx="977.5496235455169" cy="45.33333333333333" r="2" stroke="black" fill="black"/>
<circle cx="517.5678758840976" cy="43.333333333333336" r="2" stroke="blue" fill="blue"/>
</svg>
