<svg viewBox="0, 0, 1000, 60" width="100%" height="100%" xmlns="http://www.w3.org/2000/svg">

<text x="0" y="30">
9 Rozensko Horo
</text>
<line x1="200" y1="0" x2="1000" y2="0" stroke="lightgray"/>
<line x1="200" y1="20.0" x2="1000" y2="20.0" stroke="lightgray"/>
<line x1="200" y1="40.0" x2="1000" y2="40.0" stroke="lightgray"/>
<line x1="200" y1="60" x2="1000" y2="60" stroke="lightgray"/>
<line x1="200.0" y1="0" x2="200.0" y2="60" stroke="lightgray"/>
<line x1="400.0" y1="0" x2="400.0" y2="60" stroke="lightgray"/>
<line x1="600.0" y1="0" x2="600.0" y2="60" stroke="lightgray"/>
<line x1="800.0" y1="0" x2="800.0" y2="60" stroke="lightgray"/>
<line x1="1000.0" y1="0" x2="1000.0" y2="60" stroke="lightgray"/>
<circle cx="341.25028519279033" cy="37.0" r="2" stroke="black" fill="black"/>
<circle cx="364.2482318047" cy="20.0" r="2" stroke="black" fill="black"/>
<circle cx="417.9329226557153" cy="33.0" r="2" stroke="black" fill="black"/>
<circle cx="421.7659137577002" cy="53.33333333333333" r="2" stroke="black" fill="black"/>
<circle cx="632.580424366872" cy="9.333333333333334" r="2" stroke="black" fill="black"/>
<circle cx="736.0483686972393" cy="52.0" r="2" stroke="black" fill="black"/>
<circle cx="782.0670773442847" cy="54.333333333333336" r="2" stroke="black" fill="black"/>
<circle cx="912.3659593885467" cy="51.0" r="2" stroke="black" fill="black"/>
<circle cx="935.3639060004564" cy="29.666666666666668" r="2" stroke="black" fill="black"/>
</svg>
