<svg viewBox="0, 0, 1000, 60" width="100%" height="100%" xmlns="http://www.w3.org/2000/svg">

<text x="0" y="30">
27 Cocek
</text>
<line x1="200" y1="0" x2="1000" y2="0" stroke="lightgray"/>
<line x1="200" y1="20.0" x2="1000" y2="20.0" stroke="lightgray"/>
<line x1="200" y1="40.0" x2="1000" y2="40.0" stroke="lightgray"/>
<line x1="200" y1="60" x2="1000" y2="60" stroke="lightgray"/>
<line x1="200.0" y1="0" x2="200.0" y2="60" stroke="lightgray"/>
<line x1="400.0" y1="0" x2="400.0" y2="60" stroke="lightgray"/>
<line x1="600.0" y1="0" x2="600.0" y2="60" stroke="lightgray"/>
<line x1="800.0" y1="0" x2="800.0" y2="60" stroke="lightgray"/>
<line x1="1000.0" y1="0" x2="1000.0" y2="60" stroke="lightgray"/>
<circle cx="348.9162673967602" cy="14.0" r="2" stroke="black" fill="black"/>
<circle cx="371.93702943189595" cy="49.0" r="2" stroke="black" fill="black"/>
<circle cx="598.0835044490075" cy="14.0" r="2" stroke="black" fill="black"/>
<circle cx="716.8834131873147" cy="20.0" r="2" stroke="black" fill="black"/>
<circle cx="759.0463153091489" cy="40.66666666666667" r="2" stroke="black" fill="black"/>
<circle cx="851.0381017567876" cy="23.333333333333332" r="2" stroke="black" fill="black"/>
<circle cx="912.3659593885467" cy="19.0" r="2" stroke="black" fill="black"/>
<circle cx="406.4339493497605" cy="35.333333333333336" r="2" stroke="blue" fill="blue"/>
<circle cx="483.0709559662332" cy="36.0" r="2" stroke="blue" fill="blue"/>
<circle cx="494.569929272188" cy="45.0" r="2" stroke="blue" fill="blue"/>
<circle cx="517.5678758840976" cy="36.33333333333333" r="2" stroke="blue" fill="blue"/>
<circle cx="751.380333105179" cy="43.0" r="2" stroke="blue" fill="blue"/>
<circle cx="310.58635637691077" cy="31.333333333333336" r="2" stroke="green" fill="green"/>
<circle cx="337.4172940908054" cy="54.0" r="2" stroke="green" fill="green"/>
<circle cx="364.2482318047" cy="3.333333333333333" r="2" stroke="green" fill="green"/>
<circle cx="452.40702715035366" cy="36.66666666666667" r="2" stroke="green" fill="green"/>
<circle cx="835.7289527720739" cy="38.0" r="2" stroke="green" fill="green"/>
<circle cx="552.0647958019622" cy="53.66666666666667" r="2" stroke="red" fill="red"/>
<circle cx="601.9164955509924" cy="48.333333333333336" r="2" stroke="red" fill="red"/>
<circle cx="682.3864932694502" cy="43.0" r="2" stroke="red" fill="red"/>
<circle cx="805.0650239561944" cy="40.66666666666667" r="2" stroke="red" fill="red"/>
<circle cx="881.7020305726671" cy="40.0" r="2" stroke="red" fill="red"/>
<circle cx="429.4318959616701" cy="29.666666666666668" r="2" stroke="orange" fill="orange"/>
<circle cx="506.0689025781428" cy="36.66666666666667" r="2" stroke="orange" fill="orange"/>
<circle cx="935.3639060004564" cy="23.666666666666664" r="2" stroke="darkblue" fill="darkblue"/>
<circle cx="797.3990417522244" cy="47.666666666666664" r="2" stroke="darkgreen" fill="darkgreen"/>
</svg>
