<svg viewBox="0, 0, 1000, 60" width="100%" height="100%" xmlns="http://www.w3.org/2000/svg">

<text x="0" y="30">
9 Bafra Horonu
</text>
<line x1="200" y1="0" x2="1000" y2="0" stroke="lightgray"/>
<line x1="200" y1="20.0" x2="1000" y2="20.0" stroke="lightgray"/>
<line x1="200" y1="40.0" x2="1000" y2="40.0" stroke="lightgray"/>
<line x1="200" y1="60" x2="1000" y2="60" stroke="lightgray"/>
<line x1="200.0" y1="0" x2="200.0" y2="60" stroke="lightgray"/>
<line x1="400.0" y1="0" x2="400.0" y2="60" stroke="lightgray"/>
<line x1="600.0" y1="0" x2="600.0" y2="60" stroke="lightgray"/>
<line x1="800.0" y1="0" x2="800.0" y2="60" stroke="lightgray"/>
<line x1="1000.0" y1="0" x2="1000.0" y2="60" stroke="lightgray"/>
<circle cx="325.91832078485055" cy="40.66666666666667" r="2" stroke="black" fill="black"/>
<circle cx="398.7679671457905" cy="45.33333333333333" r="2" stroke="black" fill="black"/>
<circle cx="406.4339493497605" cy="52.666666666666664" r="2" stroke="black" fill="black"/>
<circle cx="467.7389915582934" cy="49.33333333333333" r="2" stroke="black" fill="black"/>
<circle cx="536.7328313940224" cy="45.33333333333333" r="2" stroke="black" fill="black"/>
<circle cx="686.219484371435" cy="52.666666666666664" r="2" stroke="black" fill="black"/>
<circle cx="751.380333105179" cy="39.0" r="2" stroke="black" fill="black"/>
<circle cx="881.7020305726671" cy="50.0" r="2" stroke="black" fill="black"/>
<circle cx="897.0339949806068" cy="41.666666666666664" r="2" stroke="black" fill="black"/>
</svg>
