<svg viewBox="0, 0, 1000, 60" width="100%" height="100%" xmlns="http://www.w3.org/2000/svg">

<text x="0" y="30">
9 Opsa
</text>
<line x1="200" y1="0" x2="1000" y2="0" stroke="lightgray"/>
<line x1="200" y1="20.0" x2="1000" y2="20.0" stroke="lightgray"/>
<line x1="200" y1="40.0" x2="1000" y2="40.0" stroke="lightgray"/>
<line x1="200" y1="60" x2="1000" y2="60" stroke="lightgray"/>
<line x1="200.0" y1="0" x2="200.0" y2="60" stroke="lightgray"/>
<line x1="400.0" y1="0" x2="400.0" y2="60" stroke="lightgray"/>
<line x1="600.0" y1="0" x2="600.0" y2="60" stroke="lightgray"/>
<line x1="800.0" y1="0" x2="800.0" y2="60" stroke="lightgray"/>
<line x1="1000.0" y1="0" x2="1000.0" y2="60" stroke="lightgray"/>
<circle cx="337.4172940908054" cy="34.0" r="2" stroke="black" fill="black"/>
<circle cx="536.7328313940224" cy="3.0" r="2" stroke="black" fill="black"/>
<circle cx="559.730778005932" cy="10.0" r="2" stroke="black" fill="black"/>
<circle cx="663.2215377595254" cy="17.333333333333332" r="2" stroke="black" fill="black"/>
<circle cx="716.8834131873147" cy="16.333333333333332" r="2" stroke="black" fill="black"/>
<circle cx="805.0650239561944" cy="5.333333333333334" r="2" stroke="black" fill="black"/>
<circle cx="954.528861510381" cy="18.333333333333336" r="2" stroke="black" fill="black"/>
<circle cx="678.5535021674652" cy="17.666666666666668" r="2" stroke="blue" fill="blue"/>
</svg>
