<svg viewBox="0, 0, 1000, 60" width="100%" height="100%" xmlns="http://www.w3.org/2000/svg">

<text x="0" y="30">
9 Dzumbus
</text>
<line x1="200" y1="0" x2="1000" y2="0" stroke="lightgray"/>
<line x1="200" y1="20.0" x2="1000" y2="20.0" stroke="lightgray"/>
<line x1="200" y1="40.0" x2="1000" y2="40.0" stroke="lightgray"/>
<line x1="200" y1="60" x2="1000" y2="60" stroke="lightgray"/>
<line x1="200.0" y1="0" x2="200.0" y2="60" stroke="lightgray"/>
<line x1="400.0" y1="0" x2="400.0" y2="60" stroke="lightgray"/>
<line x1="600.0" y1="0" x2="600.0" y2="60" stroke="lightgray"/>
<line x1="800.0" y1="0" x2="800.0" y2="60" stroke="lightgray"/>
<line x1="1000.0" y1="0" x2="1000.0" y2="60" stroke="lightgray"/>
<circle cx="391.10198494182066" cy="26.666666666666664" r="2" stroke="black" fill="black"/>
<circle cx="398.7679671457905" cy="33.666666666666664" r="2" stroke="black" fill="black"/>
<circle cx="429.4318959616701" cy="13.0" r="2" stroke="black" fill="black"/>
<circle cx="536.7328313940224" cy="14.333333333333334" r="2" stroke="black" fill="black"/>
<circle cx="571.252566735113" cy="33.666666666666664" r="2" stroke="black" fill="black"/>
<circle cx="678.5535021674652" cy="42.0" r="2" stroke="black" fill="black"/>
<circle cx="682.3864932694502" cy="45.666666666666664" r="2" stroke="black" fill="black"/>
<circle cx="973.7166324435318" cy="53.33333333333333" r="2" stroke="black" fill="black"/>
<circle cx="494.569929272188" cy="41.0" r="2" stroke="blue" fill="blue"/>
</svg>
