<svg viewBox="0, 0, 1000, 60" width="100%" height="100%" xmlns="http://www.w3.org/2000/svg">

<text x="0" y="30">
8 Nje Bahçe O Me Portokalle
</text>
<line x1="200" y1="0" x2="1000" y2="0" stroke="lightgray"/>
<line x1="200" y1="20.0" x2="1000" y2="20.0" stroke="lightgray"/>
<line x1="200" y1="40.0" x2="1000" y2="40.0" stroke="lightgray"/>
<line x1="200" y1="60" x2="1000" y2="60" stroke="lightgray"/>
<line x1="200.0" y1="0" x2="200.0" y2="60" stroke="lightgray"/>
<line x1="400.0" y1="0" x2="400.0" y2="60" stroke="lightgray"/>
<line x1="600.0" y1="0" x2="600.0" y2="60" stroke="lightgray"/>
<line x1="800.0" y1="0" x2="800.0" y2="60" stroke="lightgray"/>
<line x1="1000.0" y1="0" x2="1000.0" y2="60" stroke="lightgray"/>
<circle cx="759.0463153091489" cy="35.0" r="2" stroke="black" fill="black"/>
<circle cx="812.7310061601643" cy="48.0" r="2" stroke="black" fill="black"/>
<circle cx="858.7040839607574" cy="28.333333333333332" r="2" stroke="black" fill="black"/>
<circle cx="866.3700661647274" cy="42.333333333333336" r="2" stroke="black" fill="black"/>
<circle cx="904.6999771845767" cy="14.0" r="2" stroke="black" fill="black"/>
<circle cx="920.0319415925167" cy="36.33333333333333" r="2" stroke="black" fill="black"/>
<circle cx="950.6958704083961" cy="39.0" r="2" stroke="black" fill="black"/>
<circle cx="977.5496235455169" cy="43.0" r="2" stroke="black" fill="black"/>
</svg>
