<svg viewBox="0, 0, 1000, 60" width="100%" height="100%" xmlns="http://www.w3.org/2000/svg">

<text x="0" y="30">
8 Ali Pasa
</text>
<line x1="200" y1="0" x2="1000" y2="0" stroke="lightgray"/>
<line x1="200" y1="20.0" x2="1000" y2="20.0" stroke="lightgray"/>
<line x1="200" y1="40.0" x2="1000" y2="40.0" stroke="lightgray"/>
<line x1="200" y1="60" x2="1000" y2="60" stroke="lightgray"/>
<line x1="200.0" y1="0" x2="200.0" y2="60" stroke="lightgray"/>
<line x1="400.0" y1="0" x2="400.0" y2="60" stroke="lightgray"/>
<line x1="600.0" y1="0" x2="600.0" y2="60" stroke="lightgray"/>
<line x1="800.0" y1="0" x2="800.0" y2="60" stroke="lightgray"/>
<line x1="1000.0" y1="0" x2="1000.0" y2="60" stroke="lightgray"/>
<circle cx="325.91832078485055" cy="0.6666666666666667" r="2" stroke="black" fill="black"/>
<circle cx="417.9329226557153" cy="5.0" r="2" stroke="black" fill="black"/>
<circle cx="506.0689025781428" cy="7.333333333333333" r="2" stroke="black" fill="black"/>
<circle cx="601.9164955509924" cy="12.666666666666666" r="2" stroke="black" fill="black"/>
<circle cx="812.7310061601643" cy="9.0" r="2" stroke="black" fill="black"/>
<circle cx="828.062970568104" cy="28.333333333333332" r="2" stroke="black" fill="black"/>
<circle cx="912.3659593885467" cy="11.666666666666666" r="2" stroke="black" fill="black"/>
</svg>
