<svg viewBox="0, 0, 1000, 60" width="100%" height="100%" xmlns="http://www.w3.org/2000/svg">

<text x="0" y="30">
8 Armenian Medley
</text>
<line x1="200" y1="0" x2="1000" y2="0" stroke="lightgray"/>
<line x1="200" y1="20.0" x2="1000" y2="20.0" stroke="lightgray"/>
<line x1="200" y1="40.0" x2="1000" y2="40.0" stroke="lightgray"/>
<line x1="200" y1="60" x2="1000" y2="60" stroke="lightgray"/>
<line x1="200.0" y1="0" x2="200.0" y2="60" stroke="lightgray"/>
<line x1="400.0" y1="0" x2="400.0" y2="60" stroke="lightgray"/>
<line x1="600.0" y1="0" x2="600.0" y2="60" stroke="lightgray"/>
<line x1="800.0" y1="0" x2="800.0" y2="60" stroke="lightgray"/>
<line x1="1000.0" y1="0" x2="1000.0" y2="60" stroke="lightgray"/>
<circle cx="421.7659137577002" cy="23.333333333333332" r="2" stroke="black" fill="black"/>
<circle cx="452.40702715035366" cy="48.666666666666664" r="2" stroke="black" fill="black"/>
<circle cx="467.7389915582934" cy="30.666666666666664" r="2" stroke="black" fill="black"/>
<circle cx="494.569929272188" cy="14.666666666666666" r="2" stroke="black" fill="black"/>
<circle cx="502.23591147615787" cy="22.0" r="2" stroke="black" fill="black"/>
<circle cx="571.252566735113" cy="29.333333333333332" r="2" stroke="black" fill="black"/>
<circle cx="601.9164955509924" cy="8.333333333333334" r="2" stroke="black" fill="black"/>
</svg>
