<svg viewBox="0, 0, 1000, 60" width="100%" height="100%" xmlns="http://www.w3.org/2000/svg">

<text x="0" y="30">
26 Indisjko Cocek
</text>
<line x1="200" y1="0" x2="1000" y2="0" stroke="lightgray"/>
<line x1="200" y1="20.0" x2="1000" y2="20.0" stroke="lightgray"/>
<line x1="200" y1="40.0" x2="1000" y2="40.0" stroke="lightgray"/>
<line x1="200" y1="60" x2="1000" y2="60" stroke="lightgray"/>
<line x1="200.0" y1="0" x2="200.0" y2="60" stroke="lightgray"/>
<line x1="400.0" y1="0" x2="400.0" y2="60" stroke="lightgray"/>
<line x1="600.0" y1="0" x2="600.0" y2="60" stroke="lightgray"/>
<line x1="800.0" y1="0" x2="800.0" y2="60" stroke="lightgray"/>
<line x1="1000.0" y1="0" x2="1000.0" y2="60" stroke="lightgray"/>
<circle cx="325.91832078485055" cy="53.0" r="2" stroke="black" fill="black"/>
<circle cx="371.93702943189595" cy="51.66666666666667" r="2" stroke="black" fill="black"/>
<circle cx="506.0689025781428" cy="33.666666666666664" r="2" stroke="black" fill="black"/>
<circle cx="517.5678758840976" cy="30.666666666666664" r="2" stroke="black" fill="black"/>
<circle cx="529.0668491900525" cy="44.0" r="2" stroke="black" fill="black"/>
<circle cx="536.7328313940224" cy="17.0" r="2" stroke="black" fill="black"/>
<circle cx="559.730778005932" cy="43.666666666666664" r="2" stroke="black" fill="black"/>
<circle cx="586.5845311430527" cy="39.666666666666664" r="2" stroke="black" fill="black"/>
<circle cx="601.9164955509924" cy="37.333333333333336" r="2" stroke="black" fill="black"/>
<circle cx="628.747433264887" cy="38.0" r="2" stroke="black" fill="black"/>
<circle cx="655.5555555555555" cy="53.66666666666667" r="2" stroke="black" fill="black"/>
<circle cx="678.5535021674652" cy="33.666666666666664" r="2" stroke="black" fill="black"/>
<circle cx="682.3864932694502" cy="15.333333333333332" r="2" stroke="black" fill="black"/>
<circle cx="686.219484371435" cy="47.666666666666664" r="2" stroke="black" fill="black"/>
<circle cx="701.5514487793749" cy="34.0" r="2" stroke="black" fill="black"/>
<circle cx="716.8834131873147" cy="29.333333333333332" r="2" stroke="black" fill="black"/>
<circle cx="736.0483686972393" cy="34.666666666666664" r="2" stroke="black" fill="black"/>
<circle cx="751.380333105179" cy="30.333333333333332" r="2" stroke="black" fill="black"/>
<circle cx="774.4010951403149" cy="42.0" r="2" stroke="black" fill="black"/>
<circle cx="782.0670773442847" cy="46.333333333333336" r="2" stroke="black" fill="black"/>
<circle cx="812.7310061601643" cy="11.0" r="2" stroke="black" fill="black"/>
<circle cx="866.3700661647274" cy="32.33333333333333" r="2" stroke="black" fill="black"/>
<circle cx="889.368012776637" cy="33.0" r="2" stroke="black" fill="black"/>
<circle cx="912.3659593885467" cy="32.33333333333333" r="2" stroke="black" fill="black"/>
<circle cx="939.1968971024412" cy="14.0" r="2" stroke="black" fill="black"/>
<circle cx="950.6958704083961" cy="48.333333333333336" r="2" stroke="black" fill="black"/>
</svg>
