<svg viewBox="0, 0, 1000, 60" width="100%" height="100%" xmlns="http://www.w3.org/2000/svg">

<text x="0" y="30">
26 Ina Ina
</text>
<line x1="200" y1="0" x2="1000" y2="0" stroke="lightgray"/>
<line x1="200" y1="20.0" x2="1000" y2="20.0" stroke="lightgray"/>
<line x1="200" y1="40.0" x2="1000" y2="40.0" stroke="lightgray"/>
<line x1="200" y1="60" x2="1000" y2="60" stroke="lightgray"/>
<line x1="200.0" y1="0" x2="200.0" y2="60" stroke="lightgray"/>
<line x1="400.0" y1="0" x2="400.0" y2="60" stroke="lightgray"/>
<line x1="600.0" y1="0" x2="600.0" y2="60" stroke="lightgray"/>
<line x1="800.0" y1="0" x2="800.0" y2="60" stroke="lightgray"/>
<line x1="1000.0" y1="0" x2="1000.0" y2="60" stroke="lightgray"/>
<circle cx="356.58224960073005" cy="6.666666666666666" r="2" stroke="black" fill="black"/>
<circle cx="371.93702943189595" cy="26.0" r="2" stroke="black" fill="black"/>
<circle cx="391.10198494182066" cy="25.333333333333332" r="2" stroke="black" fill="black"/>
<circle cx="417.9329226557153" cy="26.666666666666664" r="2" stroke="black" fill="black"/>
<circle cx="429.4318959616701" cy="34.666666666666664" r="2" stroke="black" fill="black"/>
<circle cx="475.4049737622633" cy="29.666666666666668" r="2" stroke="black" fill="black"/>
<circle cx="483.0709559662332" cy="23.666666666666664" r="2" stroke="black" fill="black"/>
<circle cx="502.23591147615787" cy="14.666666666666666" r="2" stroke="black" fill="black"/>
<circle cx="506.0689025781428" cy="20.333333333333336" r="2" stroke="black" fill="black"/>
<circle cx="517.5678758840976" cy="17.0" r="2" stroke="black" fill="black"/>
<circle cx="536.7328313940224" cy="12.666666666666666" r="2" stroke="black" fill="black"/>
<circle cx="571.252566735113" cy="12.666666666666666" r="2" stroke="black" fill="black"/>
<circle cx="632.580424366872" cy="33.333333333333336" r="2" stroke="black" fill="black"/>
<circle cx="670.8875199634953" cy="35.333333333333336" r="2" stroke="black" fill="black"/>
<circle cx="678.5535021674652" cy="44.66666666666667" r="2" stroke="black" fill="black"/>
<circle cx="686.219484371435" cy="34.666666666666664" r="2" stroke="black" fill="black"/>
<circle cx="716.8834131873147" cy="42.333333333333336" r="2" stroke="black" fill="black"/>
<circle cx="728.3823864932695" cy="18.0" r="2" stroke="black" fill="black"/>
<circle cx="736.0483686972393" cy="54.666666666666664" r="2" stroke="black" fill="black"/>
<circle cx="774.4010951403149" cy="29.0" r="2" stroke="black" fill="black"/>
<circle cx="782.0670773442847" cy="24.666666666666664" r="2" stroke="black" fill="black"/>
<circle cx="805.0650239561944" cy="28.666666666666668" r="2" stroke="black" fill="black"/>
<circle cx="812.7310061601643" cy="29.666666666666668" r="2" stroke="black" fill="black"/>
<circle cx="912.3659593885467" cy="42.333333333333336" r="2" stroke="black" fill="black"/>
<circle cx="939.1968971024412" cy="9.666666666666668" r="2" stroke="black" fill="black"/>
<circle cx="977.5496235455169" cy="18.666666666666668" r="2" stroke="black" fill="black"/>
</svg>
