<svg viewBox="0, 0, 1000, 60" width="100%" height="100%" xmlns="http://www.w3.org/2000/svg">

<text x="0" y="30">
8 Dona 7/8b - Pirin
</text>
<line x1="200" y1="0" x2="1000" y2="0" stroke="lightgray"/>
<line x1="200" y1="20.0" x2="1000" y2="20.0" stroke="lightgray"/>
<line x1="200" y1="40.0" x2="1000" y2="40.0" stroke="lightgray"/>
<line x1="200" y1="60" x2="1000" y2="60" stroke="lightgray"/>
<line x1="200.0" y1="0" x2="200.0" y2="60" stroke="lightgray"/>
<line x1="400.0" y1="0" x2="400.0" y2="60" stroke="lightgray"/>
<line x1="600.0" y1="0" x2="600.0" y2="60" stroke="lightgray"/>
<line x1="800.0" y1="0" x2="800.0" y2="60" stroke="lightgray"/>
<line x1="1000.0" y1="0" x2="1000.0" y2="60" stroke="lightgray"/>
<circle cx="318.2523385808807" cy="34.33333333333333" r="2" stroke="black" fill="black"/>
<circle cx="337.4172940908054" cy="55.333333333333336" r="2" stroke="black" fill="black"/>
<circle cx="348.9162673967602" cy="54.333333333333336" r="2" stroke="black" fill="black"/>
<circle cx="437.09787816564" cy="45.666666666666664" r="2" stroke="black" fill="black"/>
<circle cx="452.40702715035366" cy="47.666666666666664" r="2" stroke="black" fill="black"/>
<circle cx="797.3990417522244" cy="51.66666666666667" r="2" stroke="black" fill="black"/>
<circle cx="881.7020305726671" cy="47.0" r="2" stroke="black" fill="black"/>
<circle cx="920.0319415925167" cy="33.0" r="2" stroke="black" fill="black"/>
</svg>
