<svg viewBox="0, 0, 1000, 60" width="100%" height="100%" xmlns="http://www.w3.org/2000/svg">

<text x="0" y="30">
8 Dvasti Tristi
</text>
<line x1="200" y1="0" x2="1000" y2="0" stroke="lightgray"/>
<line x1="200" y1="20.0" x2="1000" y2="20.0" stroke="lightgray"/>
<line x1="200" y1="40.0" x2="1000" y2="40.0" stroke="lightgray"/>
<line x1="200" y1="60" x2="1000" y2="60" stroke="lightgray"/>
<line x1="200.0" y1="0" x2="200.0" y2="60" stroke="lightgray"/>
<line x1="400.0" y1="0" x2="400.0" y2="60" stroke="lightgray"/>
<line x1="600.0" y1="0" x2="600.0" y2="60" stroke="lightgray"/>
<line x1="800.0" y1="0" x2="800.0" y2="60" stroke="lightgray"/>
<line x1="1000.0" y1="0" x2="1000.0" y2="60" stroke="lightgray"/>
<circle cx="502.23591147615787" cy="7.666666666666666" r="2" stroke="black" fill="black"/>
<circle cx="506.0689025781428" cy="18.0" r="2" stroke="black" fill="black"/>
<circle cx="586.5845311430527" cy="33.333333333333336" r="2" stroke="black" fill="black"/>
<circle cx="601.9164955509924" cy="29.0" r="2" stroke="black" fill="black"/>
<circle cx="759.0463153091489" cy="9.333333333333334" r="2" stroke="black" fill="black"/>
<circle cx="805.0650239561944" cy="4.333333333333333" r="2" stroke="black" fill="black"/>
<circle cx="843.3721195528177" cy="18.333333333333336" r="2" stroke="black" fill="black"/>
<circle cx="897.0339949806068" cy="28.333333333333332" r="2" stroke="black" fill="black"/>
</svg>
