<svg viewBox="0, 0, 1000, 60" width="100%" height="100%" xmlns="http://www.w3.org/2000/svg">

<text x="0" y="30">
8 Sereny Magyaros
</text>
<line x1="200" y1="0" x2="1000" y2="0" stroke="lightgray"/>
<line x1="200" y1="20.0" x2="1000" y2="20.0" stroke="lightgray"/>
<line x1="200" y1="40.0" x2="1000" y2="40.0" stroke="lightgray"/>
<line x1="200" y1="60" x2="1000" y2="60" stroke="lightgray"/>
<line x1="200.0" y1="0" x2="200.0" y2="60" stroke="lightgray"/>
<line x1="400.0" y1="0" x2="400.0" y2="60" stroke="lightgray"/>
<line x1="600.0" y1="0" x2="600.0" y2="60" stroke="lightgray"/>
<line x1="800.0" y1="0" x2="800.0" y2="60" stroke="lightgray"/>
<line x1="1000.0" y1="0" x2="1000.0" y2="60" stroke="lightgray"/>
<circle cx="851.0381017567876" cy="53.33333333333333" r="2" stroke="black" fill="black"/>
<circle cx="858.7040839607574" cy="17.666666666666668" r="2" stroke="black" fill="black"/>
<circle cx="866.3700661647274" cy="46.666666666666664" r="2" stroke="black" fill="black"/>
<circle cx="881.7020305726671" cy="48.0" r="2" stroke="black" fill="black"/>
<circle cx="897.0339949806068" cy="46.0" r="2" stroke="black" fill="black"/>
<circle cx="912.3659593885467" cy="39.666666666666664" r="2" stroke="black" fill="black"/>
<circle cx="935.3639060004564" cy="44.66666666666667" r="2" stroke="black" fill="black"/>
<circle cx="843.3721195528177" cy="13.333333333333332" r="2" stroke="blue" fill="blue"/>
</svg>
