<svg viewBox="0, 0, 1000, 60" width="100%" height="100%" xmlns="http://www.w3.org/2000/svg">

<text x="0" y="30">
8 Drjanovska
</text>
<line x1="200" y1="0" x2="1000" y2="0" stroke="lightgray"/>
<line x1="200" y1="20.0" x2="1000" y2="20.0" stroke="lightgray"/>
<line x1="200" y1="40.0" x2="1000" y2="40.0" stroke="lightgray"/>
<line x1="200" y1="60" x2="1000" y2="60" stroke="lightgray"/>
<line x1="200.0" y1="0" x2="200.0" y2="60" stroke="lightgray"/>
<line x1="400.0" y1="0" x2="400.0" y2="60" stroke="lightgray"/>
<line x1="600.0" y1="0" x2="600.0" y2="60" stroke="lightgray"/>
<line x1="800.0" y1="0" x2="800.0" y2="60" stroke="lightgray"/>
<line x1="1000.0" y1="0" x2="1000.0" y2="60" stroke="lightgray"/>
<circle cx="318.2523385808807" cy="35.666666666666664" r="2" stroke="black" fill="black"/>
<circle cx="502.23591147615787" cy="53.33333333333333" r="2" stroke="black" fill="black"/>
<circle cx="536.7328313940224" cy="20.0" r="2" stroke="black" fill="black"/>
<circle cx="598.0835044490075" cy="30.0" r="2" stroke="black" fill="black"/>
<circle cx="716.8834131873147" cy="47.33333333333333" r="2" stroke="black" fill="black"/>
<circle cx="881.7020305726671" cy="54.333333333333336" r="2" stroke="black" fill="black"/>
<circle cx="966.0278348163358" cy="19.666666666666668" r="2" stroke="black" fill="black"/>
</svg>
