<svg viewBox="0, 0, 1000, 60" width="100%" height="100%" xmlns="http://www.w3.org/2000/svg">

<text x="0" y="30">
8 Petrunino: Nasha Pesen
</text>
<line x1="200" y1="0" x2="1000" y2="0" stroke="lightgray"/>
<line x1="200" y1="20.0" x2="1000" y2="20.0" stroke="lightgray"/>
<line x1="200" y1="40.0" x2="1000" y2="40.0" stroke="lightgray"/>
<line x1="200" y1="60" x2="1000" y2="60" stroke="lightgray"/>
<line x1="200.0" y1="0" x2="200.0" y2="60" stroke="lightgray"/>
<line x1="400.0" y1="0" x2="400.0" y2="60" stroke="lightgray"/>
<line x1="600.0" y1="0" x2="600.0" y2="60" stroke="lightgray"/>
<line x1="800.0" y1="0" x2="800.0" y2="60" stroke="lightgray"/>
<line x1="1000.0" y1="0" x2="1000.0" y2="60" stroke="lightgray"/>
<circle cx="406.4339493497605" cy="46.666666666666664" r="2" stroke="black" fill="black"/>
<circle cx="417.9329226557153" cy="44.66666666666667" r="2" stroke="black" fill="black"/>
<circle cx="444.74104494638374" cy="45.0" r="2" stroke="black" fill="black"/>
<circle cx="467.7389915582934" cy="50.666666666666664" r="2" stroke="black" fill="black"/>
<circle cx="496.2126397444673" cy="50.666666666666664" r="2" stroke="black" fill="black"/>
<circle cx="506.0689025781428" cy="52.0" r="2" stroke="black" fill="black"/>
<circle cx="797.3990417522244" cy="52.666666666666664" r="2" stroke="black" fill="black"/>
<circle cx="881.7020305726671" cy="53.66666666666667" r="2" stroke="black" fill="black"/>
</svg>
