<svg viewBox="0, 0, 1000, 60" width="100%" height="100%" xmlns="http://www.w3.org/2000/svg">

<text x="0" y="30">
26 Trgnala Rumjana
</text>
<line x1="200" y1="0" x2="1000" y2="0" stroke="lightgray"/>
<line x1="200" y1="20.0" x2="1000" y2="20.0" stroke="lightgray"/>
<line x1="200" y1="40.0" x2="1000" y2="40.0" stroke="lightgray"/>
<line x1="200" y1="60" x2="1000" y2="60" stroke="lightgray"/>
<line x1="200.0" y1="0" x2="200.0" y2="60" stroke="lightgray"/>
<line x1="400.0" y1="0" x2="400.0" y2="60" stroke="lightgray"/>
<line x1="600.0" y1="0" x2="600.0" y2="60" stroke="lightgray"/>
<line x1="800.0" y1="0" x2="800.0" y2="60" stroke="lightgray"/>
<line x1="1000.0" y1="0" x2="1000.0" y2="60" stroke="lightgray"/>
<circle cx="417.9329226557153" cy="11.0" r="2" stroke="black" fill="black"/>
<circle cx="475.4049737622633" cy="14.666666666666666" r="2" stroke="black" fill="black"/>
<circle cx="483.0709559662332" cy="25.666666666666664" r="2" stroke="black" fill="black"/>
<circle cx="502.23591147615787" cy="3.0" r="2" stroke="black" fill="black"/>
<circle cx="506.0689025781428" cy="2.0" r="2" stroke="black" fill="black"/>
<circle cx="536.7328313940224" cy="0.33333333333333337" r="2" stroke="black" fill="black"/>
<circle cx="632.580424366872" cy="1.6666666666666665" r="2" stroke="black" fill="black"/>
<circle cx="686.219484371435" cy="1.6666666666666665" r="2" stroke="black" fill="black"/>
<circle cx="782.0670773442847" cy="6.0" r="2" stroke="black" fill="black"/>
<circle cx="851.0381017567876" cy="5.666666666666666" r="2" stroke="black" fill="black"/>
<circle cx="897.0339949806068" cy="35.0" r="2" stroke="black" fill="black"/>
<circle cx="939.1968971024412" cy="16.666666666666668" r="2" stroke="black" fill="black"/>
<circle cx="950.6958704083961" cy="14.0" r="2" stroke="black" fill="black"/>
<circle cx="973.7166324435318" cy="5.666666666666666" r="2" stroke="black" fill="black"/>
</svg>
