<svg viewBox="0, 0, 1000, 60" width="100%" height="100%" xmlns="http://www.w3.org/2000/svg">

<text x="0" y="30">
8 Le Retour Du Fils Soldat
</text>
<line x1="200" y1="0" x2="1000" y2="0" stroke="lightgray"/>
<line x1="200" y1="20.0" x2="1000" y2="20.0" stroke="lightgray"/>
<line x1="200" y1="40.0" x2="1000" y2="40.0" stroke="lightgray"/>
<line x1="200" y1="60" x2="1000" y2="60" stroke="lightgray"/>
<line x1="200.0" y1="0" x2="200.0" y2="60" stroke="lightgray"/>
<line x1="400.0" y1="0" x2="400.0" y2="60" stroke="lightgray"/>
<line x1="600.0" y1="0" x2="600.0" y2="60" stroke="lightgray"/>
<line x1="800.0" y1="0" x2="800.0" y2="60" stroke="lightgray"/>
<line x1="1000.0" y1="0" x2="1000.0" y2="60" stroke="lightgray"/>
<circle cx="628.747433264887" cy="46.333333333333336" r="2" stroke="black" fill="black"/>
<circle cx="716.8834131873147" cy="2.666666666666667" r="2" stroke="black" fill="black"/>
<circle cx="774.4010951403149" cy="40.66666666666667" r="2" stroke="black" fill="black"/>
<circle cx="782.0670773442847" cy="16.666666666666668" r="2" stroke="black" fill="black"/>
<circle cx="812.7310061601643" cy="17.0" r="2" stroke="black" fill="black"/>
<circle cx="889.368012776637" cy="16.333333333333332" r="2" stroke="black" fill="black"/>
<circle cx="920.0319415925167" cy="11.666666666666666" r="2" stroke="black" fill="black"/>
<circle cx="977.5496235455169" cy="12.666666666666666" r="2" stroke="black" fill="black"/>
</svg>
