<svg viewBox="0, 0, 1000, 60" width="100%" height="100%" xmlns="http://www.w3.org/2000/svg">

<text x="0" y="30">
8 Kapura
</text>
<line x1="200" y1="0" x2="1000" y2="0" stroke="lightgray"/>
<line x1="200" y1="20.0" x2="1000" y2="20.0" stroke="lightgray"/>
<line x1="200" y1="40.0" x2="1000" y2="40.0" stroke="lightgray"/>
<line x1="200" y1="60" x2="1000" y2="60" stroke="lightgray"/>
<line x1="200.0" y1="0" x2="200.0" y2="60" stroke="lightgray"/>
<line x1="400.0" y1="0" x2="400.0" y2="60" stroke="lightgray"/>
<line x1="600.0" y1="0" x2="600.0" y2="60" stroke="lightgray"/>
<line x1="800.0" y1="0" x2="800.0" y2="60" stroke="lightgray"/>
<line x1="1000.0" y1="0" x2="1000.0" y2="60" stroke="lightgray"/>
<circle cx="494.569929272188" cy="42.66666666666667" r="2" stroke="black" fill="black"/>
<circle cx="835.7289527720739" cy="41.0" r="2" stroke="black" fill="black"/>
<circle cx="843.3721195528177" cy="36.33333333333333" r="2" stroke="black" fill="black"/>
<circle cx="851.0381017567876" cy="46.333333333333336" r="2" stroke="black" fill="black"/>
<circle cx="858.7040839607574" cy="49.33333333333333" r="2" stroke="black" fill="black"/>
<circle cx="889.368012776637" cy="42.0" r="2" stroke="black" fill="black"/>
<circle cx="897.0339949806068" cy="47.0" r="2" stroke="black" fill="black"/>
<circle cx="977.5496235455169" cy="49.0" r="2" stroke="black" fill="black"/>
</svg>
