<svg viewBox="0, 0, 1000, 60" width="100%" height="100%" xmlns="http://www.w3.org/2000/svg">

<text x="0" y="30">
7 Dragaicuta
</text>
<line x1="200" y1="0" x2="1000" y2="0" stroke="lightgray"/>
<line x1="200" y1="20.0" x2="1000" y2="20.0" stroke="lightgray"/>
<line x1="200" y1="40.0" x2="1000" y2="40.0" stroke="lightgray"/>
<line x1="200" y1="60" x2="1000" y2="60" stroke="lightgray"/>
<line x1="200.0" y1="0" x2="200.0" y2="60" stroke="lightgray"/>
<line x1="400.0" y1="0" x2="400.0" y2="60" stroke="lightgray"/>
<line x1="600.0" y1="0" x2="600.0" y2="60" stroke="lightgray"/>
<line x1="800.0" y1="0" x2="800.0" y2="60" stroke="lightgray"/>
<line x1="1000.0" y1="0" x2="1000.0" y2="60" stroke="lightgray"/>
<circle cx="437.09787816564" cy="35.0" r="2" stroke="black" fill="black"/>
<circle cx="444.74104494638374" cy="43.0" r="2" stroke="black" fill="black"/>
<circle cx="452.40702715035366" cy="50.0" r="2" stroke="black" fill="black"/>
<circle cx="460.0730093543235" cy="47.33333333333333" r="2" stroke="black" fill="black"/>
<circle cx="467.7389915582934" cy="42.66666666666667" r="2" stroke="black" fill="black"/>
<circle cx="475.4049737622633" cy="53.66666666666667" r="2" stroke="black" fill="black"/>
<circle cx="751.380333105179" cy="37.333333333333336" r="2" stroke="black" fill="black"/>
</svg>
