<svg viewBox="0, 0, 1000, 60" width="100%" height="100%" xmlns="http://www.w3.org/2000/svg">

<text x="0" y="30">
7 Sitno Malisevsko
</text>
<line x1="200" y1="0" x2="1000" y2="0" stroke="lightgray"/>
<line x1="200" y1="20.0" x2="1000" y2="20.0" stroke="lightgray"/>
<line x1="200" y1="40.0" x2="1000" y2="40.0" stroke="lightgray"/>
<line x1="200" y1="60" x2="1000" y2="60" stroke="lightgray"/>
<line x1="200.0" y1="0" x2="200.0" y2="60" stroke="lightgray"/>
<line x1="400.0" y1="0" x2="400.0" y2="60" stroke="lightgray"/>
<line x1="600.0" y1="0" x2="600.0" y2="60" stroke="lightgray"/>
<line x1="800.0" y1="0" x2="800.0" y2="60" stroke="lightgray"/>
<line x1="1000.0" y1="0" x2="1000.0" y2="60" stroke="lightgray"/>
<circle cx="325.91832078485055" cy="52.0" r="2" stroke="black" fill="black"/>
<circle cx="325.91832078485055" cy="52.333333333333336" r="2" stroke="black" fill="black"/>
<circle cx="341.25028519279033" cy="33.666666666666664" r="2" stroke="black" fill="black"/>
<circle cx="398.7679671457905" cy="25.666666666666664" r="2" stroke="black" fill="black"/>
<circle cx="475.4049737622633" cy="53.0" r="2" stroke="black" fill="black"/>
<circle cx="701.5514487793749" cy="37.0" r="2" stroke="black" fill="black"/>
<circle cx="835.7289527720739" cy="30.666666666666664" r="2" stroke="black" fill="black"/>
</svg>
