<svg viewBox="0, 0, 1000, 60" width="100%" height="100%" xmlns="http://www.w3.org/2000/svg">

<text x="0" y="30">
25 Dimna Juda
</text>
<line x1="200" y1="0" x2="1000" y2="0" stroke="lightgray"/>
<line x1="200" y1="20.0" x2="1000" y2="20.0" stroke="lightgray"/>
<line x1="200" y1="40.0" x2="1000" y2="40.0" stroke="lightgray"/>
<line x1="200" y1="60" x2="1000" y2="60" stroke="lightgray"/>
<line x1="200.0" y1="0" x2="200.0" y2="60" stroke="lightgray"/>
<line x1="400.0" y1="0" x2="400.0" y2="60" stroke="lightgray"/>
<line x1="600.0" y1="0" x2="600.0" y2="60" stroke="lightgray"/>
<line x1="800.0" y1="0" x2="800.0" y2="60" stroke="lightgray"/>
<line x1="1000.0" y1="0" x2="1000.0" y2="60" stroke="lightgray"/>
<circle cx="310.58635637691077" cy="19.0" r="2" stroke="black" fill="black"/>
<circle cx="364.2482318047" cy="2.3333333333333335" r="2" stroke="black" fill="black"/>
<circle cx="421.7659137577002" cy="4.333333333333333" r="2" stroke="black" fill="black"/>
<circle cx="437.09787816564" cy="4.333333333333333" r="2" stroke="black" fill="black"/>
<circle cx="452.40702715035366" cy="10.0" r="2" stroke="black" fill="black"/>
<circle cx="467.7389915582934" cy="9.0" r="2" stroke="black" fill="black"/>
<circle cx="496.2126397444673" cy="42.66666666666667" r="2" stroke="black" fill="black"/>
<circle cx="552.0647958019622" cy="0.33333333333333337" r="2" stroke="black" fill="black"/>
<circle cx="586.5845311430527" cy="5.0" r="2" stroke="black" fill="black"/>
<circle cx="678.5535021674652" cy="10.0" r="2" stroke="black" fill="black"/>
<circle cx="759.0463153091489" cy="7.333333333333333" r="2" stroke="black" fill="black"/>
<circle cx="774.4010951403149" cy="10.333333333333334" r="2" stroke="black" fill="black"/>
<circle cx="805.0650239561944" cy="6.666666666666666" r="2" stroke="black" fill="black"/>
<circle cx="835.7289527720739" cy="7.0" r="2" stroke="black" fill="black"/>
<circle cx="843.3721195528177" cy="16.0" r="2" stroke="black" fill="black"/>
<circle cx="866.3700661647274" cy="16.0" r="2" stroke="black" fill="black"/>
<circle cx="881.7020305726671" cy="17.0" r="2" stroke="black" fill="black"/>
<circle cx="950.6958704083961" cy="17.0" r="2" stroke="black" fill="black"/>
<circle cx="954.528861510381" cy="4.666666666666667" r="2" stroke="black" fill="black"/>
<circle cx="973.7166324435318" cy="26.0" r="2" stroke="black" fill="black"/>
</svg>
