<svg viewBox="0, 0, 1000, 60" width="100%" height="100%" xmlns="http://www.w3.org/2000/svg">

<text x="0" y="30">
25 Passu Torrau
</text>
<line x1="200" y1="0" x2="1000" y2="0" stroke="lightgray"/>
<line x1="200" y1="20.0" x2="1000" y2="20.0" stroke="lightgray"/>
<line x1="200" y1="40.0" x2="1000" y2="40.0" stroke="lightgray"/>
<line x1="200" y1="60" x2="1000" y2="60" stroke="lightgray"/>
<line x1="200.0" y1="0" x2="200.0" y2="60" stroke="lightgray"/>
<line x1="400.0" y1="0" x2="400.0" y2="60" stroke="lightgray"/>
<line x1="600.0" y1="0" x2="600.0" y2="60" stroke="lightgray"/>
<line x1="800.0" y1="0" x2="800.0" y2="60" stroke="lightgray"/>
<line x1="1000.0" y1="0" x2="1000.0" y2="60" stroke="lightgray"/>
<circle cx="318.2523385808807" cy="52.333333333333336" r="2" stroke="black" fill="black"/>
<circle cx="325.91832078485055" cy="32.0" r="2" stroke="black" fill="black"/>
<circle cx="337.4172940908054" cy="30.666666666666664" r="2" stroke="black" fill="black"/>
<circle cx="437.09787816564" cy="41.333333333333336" r="2" stroke="black" fill="black"/>
<circle cx="444.74104494638374" cy="12.333333333333332" r="2" stroke="black" fill="black"/>
<circle cx="460.0730093543235" cy="44.0" r="2" stroke="black" fill="black"/>
<circle cx="506.0689025781428" cy="19.0" r="2" stroke="black" fill="black"/>
<circle cx="552.0647958019622" cy="15.0" r="2" stroke="black" fill="black"/>
<circle cx="601.9164955509924" cy="15.333333333333332" r="2" stroke="black" fill="black"/>
<circle cx="663.2215377595254" cy="16.0" r="2" stroke="black" fill="black"/>
<circle cx="728.3823864932695" cy="29.666666666666668" r="2" stroke="black" fill="black"/>
<circle cx="759.0463153091489" cy="44.0" r="2" stroke="black" fill="black"/>
<circle cx="797.3990417522244" cy="32.666666666666664" r="2" stroke="black" fill="black"/>
<circle cx="954.528861510381" cy="52.0" r="2" stroke="black" fill="black"/>
<circle cx="973.7166324435318" cy="27.0" r="2" stroke="black" fill="black"/>
<circle cx="310.58635637691077" cy="35.666666666666664" r="2" stroke="blue" fill="blue"/>
<circle cx="325.91832078485055" cy="14.0" r="2" stroke="blue" fill="blue"/>
<circle cx="356.58224960073005" cy="33.0" r="2" stroke="blue" fill="blue"/>
<circle cx="467.7389915582934" cy="47.33333333333333" r="2" stroke="blue" fill="blue"/>
<circle cx="628.747433264887" cy="14.0" r="2" stroke="blue" fill="blue"/>
<circle cx="632.580424366872" cy="31.666666666666668" r="2" stroke="blue" fill="blue"/>
<circle cx="682.3864932694502" cy="18.0" r="2" stroke="blue" fill="blue"/>
<circle cx="851.0381017567876" cy="37.0" r="2" stroke="blue" fill="blue"/>
<circle cx="904.6999771845767" cy="11.0" r="2" stroke="blue" fill="blue"/>
</svg>
