<svg viewBox="0, 0, 1000, 60" width="100%" height="100%" xmlns="http://www.w3.org/2000/svg">

<text x="0" y="30">
45 Gori More
</text>
<line x1="200" y1="0" x2="1000" y2="0" stroke="lightgray"/>
<line x1="200" y1="20.0" x2="1000" y2="20.0" stroke="lightgray"/>
<line x1="200" y1="40.0" x2="1000" y2="40.0" stroke="lightgray"/>
<line x1="200" y1="60" x2="1000" y2="60" stroke="lightgray"/>
<line x1="200.0" y1="0" x2="200.0" y2="60" stroke="lightgray"/>
<line x1="400.0" y1="0" x2="400.0" y2="60" stroke="lightgray"/>
<line x1="600.0" y1="0" x2="600.0" y2="60" stroke="lightgray"/>
<line x1="800.0" y1="0" x2="800.0" y2="60" stroke="lightgray"/>
<line x1="1000.0" y1="0" x2="1000.0" y2="60" stroke="lightgray"/>
<circle cx="310.58635637691077" cy="22.666666666666664" r="2" stroke="black" fill="black"/>
<circle cx="318.2523385808807" cy="2.666666666666667" r="2" stroke="black" fill="black"/>
<circle cx="371.93702943189595" cy="18.666666666666668" r="2" stroke="black" fill="black"/>
<circle cx="383.4360027378508" cy="4.666666666666667" r="2" stroke="black" fill="black"/>
<circle cx="391.10198494182066" cy="1.6666666666666665" r="2" stroke="black" fill="black"/>
<circle cx="406.4339493497605" cy="21.333333333333336" r="2" stroke="black" fill="black"/>
<circle cx="417.9329226557153" cy="16.0" r="2" stroke="black" fill="black"/>
<circle cx="475.4049737622633" cy="6.666666666666666" r="2" stroke="black" fill="black"/>
<circle cx="494.569929272188" cy="5.0" r="2" stroke="black" fill="black"/>
<circle cx="496.2126397444673" cy="38.66666666666667" r="2" stroke="black" fill="black"/>
<circle cx="517.5678758840976" cy="8.666666666666666" r="2" stroke="black" fill="black"/>
<circle cx="559.730778005932" cy="11.333333333333332" r="2" stroke="black" fill="black"/>
<circle cx="598.0835044490075" cy="4.666666666666667" r="2" stroke="black" fill="black"/>
<circle cx="628.747433264887" cy="1.3333333333333335" r="2" stroke="black" fill="black"/>
<circle cx="655.5555555555555" cy="12.0" r="2" stroke="black" fill="black"/>
<circle cx="670.8875199634953" cy="3.0" r="2" stroke="black" fill="black"/>
<circle cx="701.5514487793749" cy="1.3333333333333335" r="2" stroke="black" fill="black"/>
<circle cx="751.380333105179" cy="15.0" r="2" stroke="black" fill="black"/>
<circle cx="759.0463153091489" cy="6.333333333333333" r="2" stroke="black" fill="black"/>
<circle cx="805.0650239561944" cy="10.0" r="2" stroke="black" fill="black"/>
<circle cx="828.062970568104" cy="14.0" r="2" stroke="black" fill="black"/>
<circle cx="889.368012776637" cy="4.333333333333333" r="2" stroke="black" fill="black"/>
<circle cx="939.1968971024412" cy="6.0" r="2" stroke="black" fill="black"/>
<circle cx="977.5496235455169" cy="7.0" r="2" stroke="black" fill="black"/>
<circle cx="348.9162673967602" cy="1.6666666666666665" r="2" stroke="blue" fill="blue"/>
<circle cx="356.58224960073005" cy="15.666666666666668" r="2" stroke="blue" fill="blue"/>
<circle cx="460.0730093543235" cy="4.333333333333333" r="2" stroke="blue" fill="blue"/>
<circle cx="483.0709559662332" cy="5.333333333333334" r="2" stroke="blue" fill="blue"/>
<circle cx="529.0668491900525" cy="10.0" r="2" stroke="blue" fill="blue"/>
<circle cx="682.3864932694502" cy="0.33333333333333337" r="2" stroke="blue" fill="blue"/>
<circle cx="736.0483686972393" cy="9.0" r="2" stroke="blue" fill="blue"/>
<circle cx="835.7289527720739" cy="11.666666666666666" r="2" stroke="blue" fill="blue"/>
<circle cx="866.3700661647274" cy="2.0" r="2" stroke="blue" fill="blue"/>
<circle cx="897.0339949806068" cy="17.0" r="2" stroke="blue" fill="blue"/>
<circle cx="920.0319415925167" cy="10.333333333333334" r="2" stroke="blue" fill="blue"/>
<circle cx="506.0689025781428" cy="12.333333333333332" r="2" stroke="green" fill="green"/>
<circle cx="678.5535021674652" cy="13.333333333333332" r="2" stroke="green" fill="green"/>
<circle cx="716.8834131873147" cy="9.333333333333334" r="2" stroke="green" fill="green"/>
<circle cx="843.3721195528177" cy="29.333333333333332" r="2" stroke="green" fill="green"/>
<circle cx="881.7020305726671" cy="33.0" r="2" stroke="green" fill="green"/>
<circle cx="912.3659593885467" cy="27.0" r="2" stroke="green" fill="green"/>
<circle cx="954.528861510381" cy="9.333333333333334" r="2" stroke="green" fill="green"/>
</svg>
