<svg viewBox="0, 0, 1000, 60" width="100%" height="100%" xmlns="http://www.w3.org/2000/svg">

<text x="0" y="30">
25 Asa Inch Anem
</text>
<line x1="200" y1="0" x2="1000" y2="0" stroke="lightgray"/>
<line x1="200" y1="20.0" x2="1000" y2="20.0" stroke="lightgray"/>
<line x1="200" y1="40.0" x2="1000" y2="40.0" stroke="lightgray"/>
<line x1="200" y1="60" x2="1000" y2="60" stroke="lightgray"/>
<line x1="200.0" y1="0" x2="200.0" y2="60" stroke="lightgray"/>
<line x1="400.0" y1="0" x2="400.0" y2="60" stroke="lightgray"/>
<line x1="600.0" y1="0" x2="600.0" y2="60" stroke="lightgray"/>
<line x1="800.0" y1="0" x2="800.0" y2="60" stroke="lightgray"/>
<line x1="1000.0" y1="0" x2="1000.0" y2="60" stroke="lightgray"/>
<circle cx="310.58635637691077" cy="41.333333333333336" r="2" stroke="black" fill="black"/>
<circle cx="325.91832078485055" cy="16.666666666666668" r="2" stroke="black" fill="black"/>
<circle cx="337.4172940908054" cy="11.0" r="2" stroke="black" fill="black"/>
<circle cx="348.9162673967602" cy="29.666666666666668" r="2" stroke="black" fill="black"/>
<circle cx="364.2482318047" cy="35.666666666666664" r="2" stroke="black" fill="black"/>
<circle cx="371.93702943189595" cy="28.333333333333332" r="2" stroke="black" fill="black"/>
<circle cx="391.10198494182066" cy="23.333333333333332" r="2" stroke="black" fill="black"/>
<circle cx="398.7679671457905" cy="53.33333333333333" r="2" stroke="black" fill="black"/>
<circle cx="406.4339493497605" cy="31.000000000000004" r="2" stroke="black" fill="black"/>
<circle cx="421.7659137577002" cy="21.666666666666668" r="2" stroke="black" fill="black"/>
<circle cx="429.4318959616701" cy="44.333333333333336" r="2" stroke="black" fill="black"/>
<circle cx="460.0730093543235" cy="51.0" r="2" stroke="black" fill="black"/>
<circle cx="483.0709559662332" cy="45.666666666666664" r="2" stroke="black" fill="black"/>
<circle cx="496.2126397444673" cy="31.666666666666668" r="2" stroke="black" fill="black"/>
<circle cx="529.0668491900525" cy="38.0" r="2" stroke="black" fill="black"/>
<circle cx="552.0647958019622" cy="30.666666666666664" r="2" stroke="black" fill="black"/>
<circle cx="598.0835044490075" cy="21.0" r="2" stroke="black" fill="black"/>
<circle cx="686.219484371435" cy="5.0" r="2" stroke="black" fill="black"/>
<circle cx="736.0483686972393" cy="24.0" r="2" stroke="black" fill="black"/>
<circle cx="797.3990417522244" cy="11.0" r="2" stroke="black" fill="black"/>
<circle cx="828.062970568104" cy="38.33333333333333" r="2" stroke="black" fill="black"/>
<circle cx="897.0339949806068" cy="36.33333333333333" r="2" stroke="black" fill="black"/>
<circle cx="950.6958704083961" cy="28.0" r="2" stroke="black" fill="black"/>
<circle cx="954.528861510381" cy="28.666666666666668" r="2" stroke="black" fill="black"/>
<circle cx="977.5496235455169" cy="39.0" r="2" stroke="black" fill="black"/>
</svg>
