<svg viewBox="0, 0, 1000, 60" width="100%" height="100%" xmlns="http://www.w3.org/2000/svg">

<text x="0" y="30">
24 L&amp;apos;Homme qui marche
</text>
<line x1="200" y1="0" x2="1000" y2="0" stroke="lightgray"/>
<line x1="200" y1="20.0" x2="1000" y2="20.0" stroke="lightgray"/>
<line x1="200" y1="40.0" x2="1000" y2="40.0" stroke="lightgray"/>
<line x1="200" y1="60" x2="1000" y2="60" stroke="lightgray"/>
<line x1="200.0" y1="0" x2="200.0" y2="60" stroke="lightgray"/>
<line x1="400.0" y1="0" x2="400.0" y2="60" stroke="lightgray"/>
<line x1="600.0" y1="0" x2="600.0" y2="60" stroke="lightgray"/>
<line x1="800.0" y1="0" x2="800.0" y2="60" stroke="lightgray"/>
<line x1="1000.0" y1="0" x2="1000.0" y2="60" stroke="lightgray"/>
<circle cx="406.4339493497605" cy="1.3333333333333335" r="2" stroke="black" fill="black"/>
<circle cx="421.7659137577002" cy="5.333333333333334" r="2" stroke="black" fill="black"/>
<circle cx="437.09787816564" cy="30.333333333333332" r="2" stroke="black" fill="black"/>
<circle cx="444.74104494638374" cy="25.333333333333332" r="2" stroke="black" fill="black"/>
<circle cx="467.7389915582934" cy="14.0" r="2" stroke="black" fill="black"/>
<circle cx="475.4049737622633" cy="9.0" r="2" stroke="black" fill="black"/>
<circle cx="483.0709559662332" cy="15.0" r="2" stroke="black" fill="black"/>
<circle cx="483.0709559662332" cy="15.666666666666668" r="2" stroke="black" fill="black"/>
<circle cx="517.5678758840976" cy="3.0" r="2" stroke="black" fill="black"/>
<circle cx="632.580424366872" cy="5.333333333333334" r="2" stroke="black" fill="black"/>
<circle cx="670.8875199634953" cy="18.666666666666668" r="2" stroke="black" fill="black"/>
<circle cx="682.3864932694502" cy="41.666666666666664" r="2" stroke="black" fill="black"/>
<circle cx="716.8834131873147" cy="12.333333333333332" r="2" stroke="black" fill="black"/>
<circle cx="736.0483686972393" cy="6.333333333333333" r="2" stroke="black" fill="black"/>
<circle cx="828.062970568104" cy="5.0" r="2" stroke="black" fill="black"/>
<circle cx="835.7289527720739" cy="8.333333333333334" r="2" stroke="black" fill="black"/>
<circle cx="889.368012776637" cy="9.333333333333334" r="2" stroke="black" fill="black"/>
<circle cx="310.58635637691077" cy="3.333333333333333" r="2" stroke="blue" fill="blue"/>
<circle cx="337.4172940908054" cy="24.0" r="2" stroke="blue" fill="blue"/>
</svg>
