<svg viewBox="0, 0, 1000, 60" width="100%" height="100%" xmlns="http://www.w3.org/2000/svg">

<text x="0" y="30">
23 Dobra Nevesto
</text>
<line x1="200" y1="0" x2="1000" y2="0" stroke="lightgray"/>
<line x1="200" y1="20.0" x2="1000" y2="20.0" stroke="lightgray"/>
<line x1="200" y1="40.0" x2="1000" y2="40.0" stroke="lightgray"/>
<line x1="200" y1="60" x2="1000" y2="60" stroke="lightgray"/>
<line x1="200.0" y1="0" x2="200.0" y2="60" stroke="lightgray"/>
<line x1="400.0" y1="0" x2="400.0" y2="60" stroke="lightgray"/>
<line x1="600.0" y1="0" x2="600.0" y2="60" stroke="lightgray"/>
<line x1="800.0" y1="0" x2="800.0" y2="60" stroke="lightgray"/>
<line x1="1000.0" y1="0" x2="1000.0" y2="60" stroke="lightgray"/>
<circle cx="421.7659137577002" cy="36.33333333333333" r="2" stroke="black" fill="black"/>
<circle cx="437.09787816564" cy="18.666666666666668" r="2" stroke="black" fill="black"/>
<circle cx="467.7389915582934" cy="8.333333333333334" r="2" stroke="black" fill="black"/>
<circle cx="502.23591147615787" cy="12.666666666666666" r="2" stroke="black" fill="black"/>
<circle cx="559.730778005932" cy="31.666666666666668" r="2" stroke="black" fill="black"/>
<circle cx="628.747433264887" cy="51.0" r="2" stroke="black" fill="black"/>
<circle cx="686.219484371435" cy="18.333333333333336" r="2" stroke="black" fill="black"/>
<circle cx="728.3823864932695" cy="14.666666666666666" r="2" stroke="black" fill="black"/>
<circle cx="751.380333105179" cy="12.333333333333332" r="2" stroke="black" fill="black"/>
<circle cx="805.0650239561944" cy="50.666666666666664" r="2" stroke="black" fill="black"/>
<circle cx="866.3700661647274" cy="13.333333333333332" r="2" stroke="black" fill="black"/>
<circle cx="889.368012776637" cy="39.333333333333336" r="2" stroke="black" fill="black"/>
<circle cx="920.0319415925167" cy="34.666666666666664" r="2" stroke="black" fill="black"/>
<circle cx="935.3639060004564" cy="8.0" r="2" stroke="black" fill="black"/>
<circle cx="383.4360027378508" cy="28.0" r="2" stroke="blue" fill="blue"/>
<circle cx="483.0709559662332" cy="29.333333333333332" r="2" stroke="blue" fill="blue"/>
<circle cx="552.0647958019622" cy="17.666666666666668" r="2" stroke="blue" fill="blue"/>
<circle cx="682.3864932694502" cy="27.0" r="2" stroke="blue" fill="blue"/>
<circle cx="759.0463153091489" cy="12.666666666666666" r="2" stroke="blue" fill="blue"/>
<circle cx="881.7020305726671" cy="18.0" r="2" stroke="blue" fill="blue"/>
<circle cx="954.528861510381" cy="17.666666666666668" r="2" stroke="blue" fill="blue"/>
<circle cx="356.58224960073005" cy="14.333333333333334" r="2" stroke="green" fill="green"/>
<circle cx="406.4339493497605" cy="42.333333333333336" r="2" stroke="red" fill="red"/>
</svg>
