<svg viewBox="0, 0, 1000, 60" width="100%" height="100%" xmlns="http://www.w3.org/2000/svg">

<text x="0" y="30">
23 Vodeno Horo
</text>
<line x1="200" y1="0" x2="1000" y2="0" stroke="lightgray"/>
<line x1="200" y1="20.0" x2="1000" y2="20.0" stroke="lightgray"/>
<line x1="200" y1="40.0" x2="1000" y2="40.0" stroke="lightgray"/>
<line x1="200" y1="60" x2="1000" y2="60" stroke="lightgray"/>
<line x1="200.0" y1="0" x2="200.0" y2="60" stroke="lightgray"/>
<line x1="400.0" y1="0" x2="400.0" y2="60" stroke="lightgray"/>
<line x1="600.0" y1="0" x2="600.0" y2="60" stroke="lightgray"/>
<line x1="800.0" y1="0" x2="800.0" y2="60" stroke="lightgray"/>
<line x1="1000.0" y1="0" x2="1000.0" y2="60" stroke="lightgray"/>
<circle cx="348.9162673967602" cy="42.333333333333336" r="2" stroke="black" fill="black"/>
<circle cx="356.58224960073005" cy="23.333333333333332" r="2" stroke="black" fill="black"/>
<circle cx="391.10198494182066" cy="12.666666666666666" r="2" stroke="black" fill="black"/>
<circle cx="475.4049737622633" cy="2.666666666666667" r="2" stroke="black" fill="black"/>
<circle cx="559.730778005932" cy="5.0" r="2" stroke="black" fill="black"/>
<circle cx="586.5845311430527" cy="12.0" r="2" stroke="black" fill="black"/>
<circle cx="601.9164955509924" cy="14.0" r="2" stroke="black" fill="black"/>
<circle cx="655.5555555555555" cy="6.666666666666666" r="2" stroke="black" fill="black"/>
<circle cx="663.2215377595254" cy="30.666666666666664" r="2" stroke="black" fill="black"/>
<circle cx="678.5535021674652" cy="11.0" r="2" stroke="black" fill="black"/>
<circle cx="701.5514487793749" cy="7.333333333333333" r="2" stroke="black" fill="black"/>
<circle cx="728.3823864932695" cy="7.666666666666666" r="2" stroke="black" fill="black"/>
<circle cx="759.0463153091489" cy="8.333333333333334" r="2" stroke="black" fill="black"/>
<circle cx="843.3721195528177" cy="5.666666666666666" r="2" stroke="black" fill="black"/>
<circle cx="912.3659593885467" cy="2.3333333333333335" r="2" stroke="black" fill="black"/>
<circle cx="935.3639060004564" cy="3.6666666666666665" r="2" stroke="black" fill="black"/>
<circle cx="954.528861510381" cy="5.666666666666666" r="2" stroke="black" fill="black"/>
</svg>
