<svg viewBox="0, 0, 1000, 60" width="100%" height="100%" xmlns="http://www.w3.org/2000/svg">

<text x="0" y="30">
23 Sweet Girl
</text>
<line x1="200" y1="0" x2="1000" y2="0" stroke="lightgray"/>
<line x1="200" y1="20.0" x2="1000" y2="20.0" stroke="lightgray"/>
<line x1="200" y1="40.0" x2="1000" y2="40.0" stroke="lightgray"/>
<line x1="200" y1="60" x2="1000" y2="60" stroke="lightgray"/>
<line x1="200.0" y1="0" x2="200.0" y2="60" stroke="lightgray"/>
<line x1="400.0" y1="0" x2="400.0" y2="60" stroke="lightgray"/>
<line x1="600.0" y1="0" x2="600.0" y2="60" stroke="lightgray"/>
<line x1="800.0" y1="0" x2="800.0" y2="60" stroke="lightgray"/>
<line x1="1000.0" y1="0" x2="1000.0" y2="60" stroke="lightgray"/>
<circle cx="310.58635637691077" cy="9.0" r="2" stroke="black" fill="black"/>
<circle cx="325.91832078485055" cy="11.666666666666666" r="2" stroke="black" fill="black"/>
<circle cx="356.58224960073005" cy="17.0" r="2" stroke="black" fill="black"/>
<circle cx="364.2482318047" cy="40.66666666666667" r="2" stroke="black" fill="black"/>
<circle cx="398.7679671457905" cy="9.0" r="2" stroke="black" fill="black"/>
<circle cx="417.9329226557153" cy="17.333333333333332" r="2" stroke="black" fill="black"/>
<circle cx="483.0709559662332" cy="28.0" r="2" stroke="black" fill="black"/>
<circle cx="529.0668491900525" cy="27.333333333333332" r="2" stroke="black" fill="black"/>
<circle cx="598.0835044490075" cy="41.333333333333336" r="2" stroke="black" fill="black"/>
<circle cx="686.219484371435" cy="7.0" r="2" stroke="black" fill="black"/>
<circle cx="701.5514487793749" cy="2.3333333333333335" r="2" stroke="black" fill="black"/>
<circle cx="728.3823864932695" cy="12.333333333333332" r="2" stroke="black" fill="black"/>
<circle cx="751.380333105179" cy="25.333333333333332" r="2" stroke="black" fill="black"/>
<circle cx="759.0463153091489" cy="19.666666666666668" r="2" stroke="black" fill="black"/>
<circle cx="805.0650239561944" cy="12.0" r="2" stroke="black" fill="black"/>
<circle cx="812.7310061601643" cy="7.666666666666666" r="2" stroke="black" fill="black"/>
<circle cx="835.7289527720739" cy="34.0" r="2" stroke="black" fill="black"/>
<circle cx="866.3700661647274" cy="16.666666666666668" r="2" stroke="black" fill="black"/>
<circle cx="889.368012776637" cy="10.666666666666668" r="2" stroke="black" fill="black"/>
<circle cx="904.6999771845767" cy="33.333333333333336" r="2" stroke="black" fill="black"/>
<circle cx="950.6958704083961" cy="20.666666666666668" r="2" stroke="black" fill="black"/>
<circle cx="954.528861510381" cy="13.333333333333332" r="2" stroke="blue" fill="blue"/>
<circle cx="973.7166324435318" cy="8.0" r="2" stroke="blue" fill="blue"/>
</svg>
