<svg viewBox="0, 0, 1000, 60" width="100%" height="100%" xmlns="http://www.w3.org/2000/svg">

<text x="0" y="30">
21 Adjon Az Izsten
</text>
<line x1="200" y1="0" x2="1000" y2="0" stroke="lightgray"/>
<line x1="200" y1="20.0" x2="1000" y2="20.0" stroke="lightgray"/>
<line x1="200" y1="40.0" x2="1000" y2="40.0" stroke="lightgray"/>
<line x1="200" y1="60" x2="1000" y2="60" stroke="lightgray"/>
<line x1="200.0" y1="0" x2="200.0" y2="60" stroke="lightgray"/>
<line x1="400.0" y1="0" x2="400.0" y2="60" stroke="lightgray"/>
<line x1="600.0" y1="0" x2="600.0" y2="60" stroke="lightgray"/>
<line x1="800.0" y1="0" x2="800.0" y2="60" stroke="lightgray"/>
<line x1="1000.0" y1="0" x2="1000.0" y2="60" stroke="lightgray"/>
<circle cx="452.40702715035366" cy="3.0" r="2" stroke="black" fill="black"/>
<circle cx="506.0689025781428" cy="8.666666666666666" r="2" stroke="black" fill="black"/>
<circle cx="517.5678758840976" cy="27.666666666666668" r="2" stroke="black" fill="black"/>
<circle cx="536.7328313940224" cy="1.6666666666666665" r="2" stroke="black" fill="black"/>
<circle cx="586.5845311430527" cy="7.666666666666666" r="2" stroke="black" fill="black"/>
<circle cx="601.9164955509924" cy="0.33333333333333337" r="2" stroke="black" fill="black"/>
<circle cx="628.747433264887" cy="4.666666666666667" r="2" stroke="black" fill="black"/>
<circle cx="670.8875199634953" cy="8.666666666666666" r="2" stroke="black" fill="black"/>
<circle cx="716.8834131873147" cy="1.6666666666666665" r="2" stroke="black" fill="black"/>
<circle cx="736.0483686972393" cy="0.6666666666666667" r="2" stroke="black" fill="black"/>
<circle cx="759.0463153091489" cy="19.0" r="2" stroke="black" fill="black"/>
<circle cx="812.7310061601643" cy="4.0" r="2" stroke="black" fill="black"/>
<circle cx="851.0381017567876" cy="7.0" r="2" stroke="black" fill="black"/>
<circle cx="912.3659593885467" cy="0.33333333333333337" r="2" stroke="black" fill="black"/>
</svg>
