<svg viewBox="0, 0, 1000, 60" width="100%" height="100%" xmlns="http://www.w3.org/2000/svg">

<text x="0" y="30">
22 Romski Vez
</text>
<line x1="200" y1="0" x2="1000" y2="0" stroke="lightgray"/>
<line x1="200" y1="20.0" x2="1000" y2="20.0" stroke="lightgray"/>
<line x1="200" y1="40.0" x2="1000" y2="40.0" stroke="lightgray"/>
<line x1="200" y1="60" x2="1000" y2="60" stroke="lightgray"/>
<line x1="200.0" y1="0" x2="200.0" y2="60" stroke="lightgray"/>
<line x1="400.0" y1="0" x2="400.0" y2="60" stroke="lightgray"/>
<line x1="600.0" y1="0" x2="600.0" y2="60" stroke="lightgray"/>
<line x1="800.0" y1="0" x2="800.0" y2="60" stroke="lightgray"/>
<line x1="1000.0" y1="0" x2="1000.0" y2="60" stroke="lightgray"/>
<circle cx="494.569929272188" cy="22.0" r="2" stroke="black" fill="black"/>
<circle cx="496.2126397444673" cy="37.666666666666664" r="2" stroke="black" fill="black"/>
<circle cx="502.23591147615787" cy="24.666666666666664" r="2" stroke="black" fill="black"/>
<circle cx="506.0689025781428" cy="50.0" r="2" stroke="black" fill="black"/>
<circle cx="517.5678758840976" cy="34.33333333333333" r="2" stroke="black" fill="black"/>
<circle cx="529.0668491900525" cy="29.666666666666668" r="2" stroke="black" fill="black"/>
<circle cx="536.7328313940224" cy="39.666666666666664" r="2" stroke="black" fill="black"/>
<circle cx="552.0647958019622" cy="29.666666666666668" r="2" stroke="black" fill="black"/>
<circle cx="559.730778005932" cy="29.666666666666668" r="2" stroke="black" fill="black"/>
<circle cx="571.252566735113" cy="32.0" r="2" stroke="black" fill="black"/>
<circle cx="586.5845311430527" cy="36.33333333333333" r="2" stroke="black" fill="black"/>
<circle cx="598.0835044490075" cy="50.333333333333336" r="2" stroke="black" fill="black"/>
<circle cx="663.2215377595254" cy="50.333333333333336" r="2" stroke="black" fill="black"/>
<circle cx="678.5535021674652" cy="45.666666666666664" r="2" stroke="black" fill="black"/>
<circle cx="751.380333105179" cy="24.333333333333332" r="2" stroke="black" fill="black"/>
<circle cx="774.4010951403149" cy="44.0" r="2" stroke="black" fill="black"/>
<circle cx="812.7310061601643" cy="41.333333333333336" r="2" stroke="black" fill="black"/>
<circle cx="881.7020305726671" cy="51.0" r="2" stroke="black" fill="black"/>
<circle cx="889.368012776637" cy="51.66666666666667" r="2" stroke="black" fill="black"/>
<circle cx="904.6999771845767" cy="37.0" r="2" stroke="black" fill="black"/>
<circle cx="954.528861510381" cy="35.0" r="2" stroke="black" fill="black"/>
<circle cx="973.7166324435318" cy="38.33333333333333" r="2" stroke="black" fill="black"/>
</svg>
