<svg viewBox="0, 0, 1000, 60" width="100%" height="100%" xmlns="http://www.w3.org/2000/svg">

<text x="0" y="30">
20 Debka Kafrit
</text>
<line x1="200" y1="0" x2="1000" y2="0" stroke="lightgray"/>
<line x1="200" y1="20.0" x2="1000" y2="20.0" stroke="lightgray"/>
<line x1="200" y1="40.0" x2="1000" y2="40.0" stroke="lightgray"/>
<line x1="200" y1="60" x2="1000" y2="60" stroke="lightgray"/>
<line x1="200.0" y1="0" x2="200.0" y2="60" stroke="lightgray"/>
<line x1="400.0" y1="0" x2="400.0" y2="60" stroke="lightgray"/>
<line x1="600.0" y1="0" x2="600.0" y2="60" stroke="lightgray"/>
<line x1="800.0" y1="0" x2="800.0" y2="60" stroke="lightgray"/>
<line x1="1000.0" y1="0" x2="1000.0" y2="60" stroke="lightgray"/>
<circle cx="552.0647958019622" cy="5.0" r="2" stroke="black" fill="black"/>
<circle cx="559.730778005932" cy="37.666666666666664" r="2" stroke="black" fill="black"/>
<circle cx="571.252566735113" cy="41.333333333333336" r="2" stroke="black" fill="black"/>
<circle cx="586.5845311430527" cy="14.0" r="2" stroke="black" fill="black"/>
<circle cx="601.9164955509924" cy="17.666666666666668" r="2" stroke="black" fill="black"/>
<circle cx="632.580424366872" cy="13.333333333333332" r="2" stroke="black" fill="black"/>
<circle cx="663.2215377595254" cy="10.333333333333334" r="2" stroke="black" fill="black"/>
<circle cx="678.5535021674652" cy="14.666666666666666" r="2" stroke="black" fill="black"/>
<circle cx="682.3864932694502" cy="3.0" r="2" stroke="black" fill="black"/>
<circle cx="728.3823864932695" cy="35.666666666666664" r="2" stroke="black" fill="black"/>
<circle cx="759.0463153091489" cy="49.0" r="2" stroke="black" fill="black"/>
<circle cx="774.4010951403149" cy="6.333333333333333" r="2" stroke="black" fill="black"/>
<circle cx="805.0650239561944" cy="16.666666666666668" r="2" stroke="black" fill="black"/>
<circle cx="812.7310061601643" cy="25.666666666666664" r="2" stroke="black" fill="black"/>
<circle cx="828.062970568104" cy="31.666666666666668" r="2" stroke="black" fill="black"/>
<circle cx="858.7040839607574" cy="13.0" r="2" stroke="black" fill="black"/>
<circle cx="920.0319415925167" cy="28.666666666666668" r="2" stroke="black" fill="black"/>
<circle cx="939.1968971024412" cy="24.0" r="2" stroke="black" fill="black"/>
<circle cx="954.528861510381" cy="10.666666666666668" r="2" stroke="black" fill="black"/>
<circle cx="966.0278348163358" cy="6.666666666666666" r="2" stroke="black" fill="black"/>
</svg>
