<svg viewBox="0, 0, 1000, 60" width="100%" height="100%" xmlns="http://www.w3.org/2000/svg">

<text x="0" y="30">
20 Tamzara
</text>
<line x1="200" y1="0" x2="1000" y2="0" stroke="lightgray"/>
<line x1="200" y1="20.0" x2="1000" y2="20.0" stroke="lightgray"/>
<line x1="200" y1="40.0" x2="1000" y2="40.0" stroke="lightgray"/>
<line x1="200" y1="60" x2="1000" y2="60" stroke="lightgray"/>
<line x1="200.0" y1="0" x2="200.0" y2="60" stroke="lightgray"/>
<line x1="400.0" y1="0" x2="400.0" y2="60" stroke="lightgray"/>
<line x1="600.0" y1="0" x2="600.0" y2="60" stroke="lightgray"/>
<line x1="800.0" y1="0" x2="800.0" y2="60" stroke="lightgray"/>
<line x1="1000.0" y1="0" x2="1000.0" y2="60" stroke="lightgray"/>
<circle cx="318.2523385808807" cy="7.333333333333333" r="2" stroke="black" fill="black"/>
<circle cx="341.25028519279033" cy="10.666666666666668" r="2" stroke="black" fill="black"/>
<circle cx="348.9162673967602" cy="26.0" r="2" stroke="black" fill="black"/>
<circle cx="371.93702943189595" cy="25.0" r="2" stroke="black" fill="black"/>
<circle cx="391.10198494182066" cy="9.0" r="2" stroke="black" fill="black"/>
<circle cx="398.7679671457905" cy="6.666666666666666" r="2" stroke="black" fill="black"/>
<circle cx="421.7659137577002" cy="17.666666666666668" r="2" stroke="black" fill="black"/>
<circle cx="483.0709559662332" cy="11.333333333333332" r="2" stroke="black" fill="black"/>
<circle cx="506.0689025781428" cy="3.6666666666666665" r="2" stroke="black" fill="black"/>
<circle cx="628.747433264887" cy="3.6666666666666665" r="2" stroke="black" fill="black"/>
<circle cx="670.8875199634953" cy="5.666666666666666" r="2" stroke="black" fill="black"/>
<circle cx="701.5514487793749" cy="6.333333333333333" r="2" stroke="black" fill="black"/>
<circle cx="728.3823864932695" cy="6.0" r="2" stroke="black" fill="black"/>
<circle cx="751.380333105179" cy="13.0" r="2" stroke="black" fill="black"/>
<circle cx="851.0381017567876" cy="7.666666666666666" r="2" stroke="black" fill="black"/>
<circle cx="889.368012776637" cy="5.333333333333334" r="2" stroke="black" fill="black"/>
<circle cx="954.528861510381" cy="16.666666666666668" r="2" stroke="black" fill="black"/>
<circle cx="966.0278348163358" cy="4.666666666666667" r="2" stroke="black" fill="black"/>
</svg>
