<svg viewBox="0, 0, 1000, 60" width="100%" height="100%" xmlns="http://www.w3.org/2000/svg">

<text x="0" y="30">
20 Dospatsko
</text>
<line x1="200" y1="0" x2="1000" y2="0" stroke="lightgray"/>
<line x1="200" y1="20.0" x2="1000" y2="20.0" stroke="lightgray"/>
<line x1="200" y1="40.0" x2="1000" y2="40.0" stroke="lightgray"/>
<line x1="200" y1="60" x2="1000" y2="60" stroke="lightgray"/>
<line x1="200.0" y1="0" x2="200.0" y2="60" stroke="lightgray"/>
<line x1="400.0" y1="0" x2="400.0" y2="60" stroke="lightgray"/>
<line x1="600.0" y1="0" x2="600.0" y2="60" stroke="lightgray"/>
<line x1="800.0" y1="0" x2="800.0" y2="60" stroke="lightgray"/>
<line x1="1000.0" y1="0" x2="1000.0" y2="60" stroke="lightgray"/>
<circle cx="421.7659137577002" cy="18.666666666666668" r="2" stroke="black" fill="black"/>
<circle cx="467.7389915582934" cy="29.0" r="2" stroke="black" fill="black"/>
<circle cx="529.0668491900525" cy="33.0" r="2" stroke="black" fill="black"/>
<circle cx="632.580424366872" cy="47.666666666666664" r="2" stroke="black" fill="black"/>
<circle cx="686.219484371435" cy="39.0" r="2" stroke="black" fill="black"/>
<circle cx="858.7040839607574" cy="24.666666666666664" r="2" stroke="black" fill="black"/>
<circle cx="966.0278348163358" cy="43.666666666666664" r="2" stroke="black" fill="black"/>
<circle cx="460.0730093543235" cy="24.333333333333332" r="2" stroke="blue" fill="blue"/>
<circle cx="502.23591147615787" cy="51.33333333333333" r="2" stroke="blue" fill="blue"/>
<circle cx="601.9164955509924" cy="28.0" r="2" stroke="blue" fill="blue"/>
<circle cx="759.0463153091489" cy="38.33333333333333" r="2" stroke="blue" fill="blue"/>
<circle cx="782.0670773442847" cy="27.666666666666668" r="2" stroke="blue" fill="blue"/>
<circle cx="939.1968971024412" cy="25.666666666666664" r="2" stroke="blue" fill="blue"/>
<circle cx="356.58224960073005" cy="20.666666666666668" r="2" stroke="green" fill="green"/>
<circle cx="475.4049737622633" cy="25.666666666666664" r="2" stroke="green" fill="green"/>
<circle cx="517.5678758840976" cy="35.333333333333336" r="2" stroke="green" fill="green"/>
<circle cx="682.3864932694502" cy="19.666666666666668" r="2" stroke="green" fill="green"/>
<circle cx="716.8834131873147" cy="37.666666666666664" r="2" stroke="green" fill="green"/>
<circle cx="728.3823864932695" cy="13.666666666666666" r="2" stroke="green" fill="green"/>
</svg>
