<svg viewBox="0, 0, 1000, 60" width="100%" height="100%" xmlns="http://www.w3.org/2000/svg">

<text x="0" y="30">
20 Kumanovsko Oro
</text>
<line x1="200" y1="0" x2="1000" y2="0" stroke="lightgray"/>
<line x1="200" y1="20.0" x2="1000" y2="20.0" stroke="lightgray"/>
<line x1="200" y1="40.0" x2="1000" y2="40.0" stroke="lightgray"/>
<line x1="200" y1="60" x2="1000" y2="60" stroke="lightgray"/>
<line x1="200.0" y1="0" x2="200.0" y2="60" stroke="lightgray"/>
<line x1="400.0" y1="0" x2="400.0" y2="60" stroke="lightgray"/>
<line x1="600.0" y1="0" x2="600.0" y2="60" stroke="lightgray"/>
<line x1="800.0" y1="0" x2="800.0" y2="60" stroke="lightgray"/>
<line x1="1000.0" y1="0" x2="1000.0" y2="60" stroke="lightgray"/>
<circle cx="444.74104494638374" cy="1.6666666666666665" r="2" stroke="black" fill="black"/>
<circle cx="475.4049737622633" cy="21.666666666666668" r="2" stroke="black" fill="black"/>
<circle cx="483.0709559662332" cy="6.666666666666666" r="2" stroke="black" fill="black"/>
<circle cx="536.7328313940224" cy="4.333333333333333" r="2" stroke="black" fill="black"/>
<circle cx="571.252566735113" cy="1.3333333333333335" r="2" stroke="black" fill="black"/>
<circle cx="663.2215377595254" cy="8.0" r="2" stroke="black" fill="black"/>
<circle cx="686.219484371435" cy="9.666666666666668" r="2" stroke="black" fill="black"/>
<circle cx="716.8834131873147" cy="36.0" r="2" stroke="black" fill="black"/>
<circle cx="728.3823864932695" cy="19.0" r="2" stroke="black" fill="black"/>
<circle cx="751.380333105179" cy="16.0" r="2" stroke="black" fill="black"/>
<circle cx="797.3990417522244" cy="12.0" r="2" stroke="black" fill="black"/>
<circle cx="805.0650239561944" cy="14.333333333333334" r="2" stroke="black" fill="black"/>
<circle cx="828.062970568104" cy="33.666666666666664" r="2" stroke="black" fill="black"/>
<circle cx="851.0381017567876" cy="13.0" r="2" stroke="black" fill="black"/>
<circle cx="881.7020305726671" cy="30.666666666666664" r="2" stroke="black" fill="black"/>
<circle cx="904.6999771845767" cy="26.666666666666664" r="2" stroke="black" fill="black"/>
<circle cx="973.7166324435318" cy="14.0" r="2" stroke="black" fill="black"/>
</svg>
