<svg viewBox="0, 0, 1000, 60" width="100%" height="100%" xmlns="http://www.w3.org/2000/svg">

<text x="0" y="30">
19 Misirlou
</text>
<line x1="200" y1="0" x2="1000" y2="0" stroke="lightgray"/>
<line x1="200" y1="20.0" x2="1000" y2="20.0" stroke="lightgray"/>
<line x1="200" y1="40.0" x2="1000" y2="40.0" stroke="lightgray"/>
<line x1="200" y1="60" x2="1000" y2="60" stroke="lightgray"/>
<line x1="200.0" y1="0" x2="200.0" y2="60" stroke="lightgray"/>
<line x1="400.0" y1="0" x2="400.0" y2="60" stroke="lightgray"/>
<line x1="600.0" y1="0" x2="600.0" y2="60" stroke="lightgray"/>
<line x1="800.0" y1="0" x2="800.0" y2="60" stroke="lightgray"/>
<line x1="1000.0" y1="0" x2="1000.0" y2="60" stroke="lightgray"/>
<circle cx="716.8834131873147" cy="7.0" r="2" stroke="black" fill="black"/>
<circle cx="728.3823864932695" cy="28.666666666666668" r="2" stroke="black" fill="black"/>
<circle cx="751.380333105179" cy="4.0" r="2" stroke="black" fill="black"/>
<circle cx="774.4010951403149" cy="18.666666666666668" r="2" stroke="black" fill="black"/>
<circle cx="812.7310061601643" cy="3.333333333333333" r="2" stroke="black" fill="black"/>
<circle cx="851.0381017567876" cy="19.0" r="2" stroke="black" fill="black"/>
<circle cx="889.368012776637" cy="40.0" r="2" stroke="black" fill="black"/>
<circle cx="935.3639060004564" cy="4.666666666666667" r="2" stroke="black" fill="black"/>
<circle cx="973.7166324435318" cy="9.0" r="2" stroke="black" fill="black"/>
<circle cx="977.5496235455169" cy="6.0" r="2" stroke="black" fill="black"/>
<circle cx="318.2523385808807" cy="54.0" r="2" stroke="blue" fill="blue"/>
<circle cx="506.0689025781428" cy="16.0" r="2" stroke="blue" fill="blue"/>
<circle cx="552.0647958019622" cy="2.666666666666667" r="2" stroke="blue" fill="blue"/>
<circle cx="682.3864932694502" cy="38.0" r="2" stroke="blue" fill="blue"/>
<circle cx="701.5514487793749" cy="13.0" r="2" stroke="blue" fill="blue"/>
<circle cx="364.2482318047" cy="30.0" r="2" stroke="green" fill="green"/>
</svg>
