<svg viewBox="0, 0, 1000, 60" width="100%" height="100%" xmlns="http://www.w3.org/2000/svg">

<text x="0" y="30">
35 Erev Ba
</text>
<line x1="200" y1="0" x2="1000" y2="0" stroke="lightgray"/>
<line x1="200" y1="20.0" x2="1000" y2="20.0" stroke="lightgray"/>
<line x1="200" y1="40.0" x2="1000" y2="40.0" stroke="lightgray"/>
<line x1="200" y1="60" x2="1000" y2="60" stroke="lightgray"/>
<line x1="200.0" y1="0" x2="200.0" y2="60" stroke="lightgray"/>
<line x1="400.0" y1="0" x2="400.0" y2="60" stroke="lightgray"/>
<line x1="600.0" y1="0" x2="600.0" y2="60" stroke="lightgray"/>
<line x1="800.0" y1="0" x2="800.0" y2="60" stroke="lightgray"/>
<line x1="1000.0" y1="0" x2="1000.0" y2="60" stroke="lightgray"/>
<circle cx="325.91832078485055" cy="13.0" r="2" stroke="black" fill="black"/>
<circle cx="337.4172940908054" cy="12.0" r="2" stroke="black" fill="black"/>
<circle cx="341.25028519279033" cy="25.666666666666664" r="2" stroke="black" fill="black"/>
<circle cx="348.9162673967602" cy="10.0" r="2" stroke="black" fill="black"/>
<circle cx="371.93702943189595" cy="31.000000000000004" r="2" stroke="black" fill="black"/>
<circle cx="383.4360027378508" cy="8.666666666666666" r="2" stroke="black" fill="black"/>
<circle cx="406.4339493497605" cy="15.0" r="2" stroke="black" fill="black"/>
<circle cx="417.9329226557153" cy="10.0" r="2" stroke="black" fill="black"/>
<circle cx="421.7659137577002" cy="13.333333333333332" r="2" stroke="black" fill="black"/>
<circle cx="460.0730093543235" cy="25.333333333333332" r="2" stroke="black" fill="black"/>
<circle cx="475.4049737622633" cy="32.666666666666664" r="2" stroke="black" fill="black"/>
<circle cx="483.0709559662332" cy="13.0" r="2" stroke="black" fill="black"/>
<circle cx="494.569929272188" cy="18.666666666666668" r="2" stroke="black" fill="black"/>
<circle cx="517.5678758840976" cy="12.0" r="2" stroke="black" fill="black"/>
<circle cx="601.9164955509924" cy="5.666666666666666" r="2" stroke="black" fill="black"/>
<circle cx="682.3864932694502" cy="3.6666666666666665" r="2" stroke="black" fill="black"/>
<circle cx="686.219484371435" cy="19.0" r="2" stroke="black" fill="black"/>
<circle cx="701.5514487793749" cy="25.333333333333332" r="2" stroke="black" fill="black"/>
<circle cx="728.3823864932695" cy="34.33333333333333" r="2" stroke="black" fill="black"/>
<circle cx="759.0463153091489" cy="21.0" r="2" stroke="black" fill="black"/>
<circle cx="812.7310061601643" cy="26.666666666666664" r="2" stroke="black" fill="black"/>
<circle cx="828.062970568104" cy="15.0" r="2" stroke="black" fill="black"/>
<circle cx="851.0381017567876" cy="17.0" r="2" stroke="black" fill="black"/>
<circle cx="904.6999771845767" cy="37.666666666666664" r="2" stroke="black" fill="black"/>
<circle cx="920.0319415925167" cy="19.0" r="2" stroke="black" fill="black"/>
<circle cx="935.3639060004564" cy="19.333333333333336" r="2" stroke="black" fill="black"/>
<circle cx="950.6958704083961" cy="38.0" r="2" stroke="black" fill="black"/>
<circle cx="318.2523385808807" cy="23.0" r="2" stroke="blue" fill="blue"/>
<circle cx="364.2482318047" cy="19.333333333333336" r="2" stroke="blue" fill="blue"/>
<circle cx="444.74104494638374" cy="6.666666666666666" r="2" stroke="blue" fill="blue"/>
<circle cx="559.730778005932" cy="17.0" r="2" stroke="blue" fill="blue"/>
<circle cx="632.580424366872" cy="16.666666666666668" r="2" stroke="blue" fill="blue"/>
<circle cx="716.8834131873147" cy="19.333333333333336" r="2" stroke="blue" fill="blue"/>
<circle cx="736.0483686972393" cy="29.666666666666668" r="2" stroke="blue" fill="blue"/>
<circle cx="835.7289527720739" cy="27.0" r="2" stroke="blue" fill="blue"/>
</svg>
