<svg viewBox="0, 0, 1000, 60" width="100%" height="100%" xmlns="http://www.w3.org/2000/svg">

<text x="0" y="30">
19 Tallava
</text>
<line x1="200" y1="0" x2="1000" y2="0" stroke="lightgray"/>
<line x1="200" y1="20.0" x2="1000" y2="20.0" stroke="lightgray"/>
<line x1="200" y1="40.0" x2="1000" y2="40.0" stroke="lightgray"/>
<line x1="200" y1="60" x2="1000" y2="60" stroke="lightgray"/>
<line x1="200.0" y1="0" x2="200.0" y2="60" stroke="lightgray"/>
<line x1="400.0" y1="0" x2="400.0" y2="60" stroke="lightgray"/>
<line x1="600.0" y1="0" x2="600.0" y2="60" stroke="lightgray"/>
<line x1="800.0" y1="0" x2="800.0" y2="60" stroke="lightgray"/>
<line x1="1000.0" y1="0" x2="1000.0" y2="60" stroke="lightgray"/>
<circle cx="552.0647958019622" cy="44.66666666666667" r="2" stroke="black" fill="black"/>
<circle cx="559.730778005932" cy="26.0" r="2" stroke="black" fill="black"/>
<circle cx="571.252566735113" cy="36.0" r="2" stroke="black" fill="black"/>
<circle cx="598.0835044490075" cy="27.333333333333332" r="2" stroke="black" fill="black"/>
<circle cx="632.580424366872" cy="38.66666666666667" r="2" stroke="black" fill="black"/>
<circle cx="655.5555555555555" cy="31.333333333333336" r="2" stroke="black" fill="black"/>
<circle cx="663.2215377595254" cy="54.0" r="2" stroke="black" fill="black"/>
<circle cx="678.5535021674652" cy="51.33333333333333" r="2" stroke="black" fill="black"/>
<circle cx="682.3864932694502" cy="28.666666666666668" r="2" stroke="black" fill="black"/>
<circle cx="701.5514487793749" cy="42.0" r="2" stroke="black" fill="black"/>
<circle cx="728.3823864932695" cy="38.0" r="2" stroke="black" fill="black"/>
<circle cx="759.0463153091489" cy="54.333333333333336" r="2" stroke="black" fill="black"/>
<circle cx="797.3990417522244" cy="38.66666666666667" r="2" stroke="black" fill="black"/>
<circle cx="812.7310061601643" cy="18.0" r="2" stroke="black" fill="black"/>
<circle cx="835.7289527720739" cy="45.0" r="2" stroke="black" fill="black"/>
<circle cx="851.0381017567876" cy="50.333333333333336" r="2" stroke="black" fill="black"/>
<circle cx="858.7040839607574" cy="29.666666666666668" r="2" stroke="black" fill="black"/>
<circle cx="866.3700661647274" cy="40.0" r="2" stroke="black" fill="black"/>
<circle cx="973.7166324435318" cy="45.0" r="2" stroke="black" fill="black"/>
</svg>
