<svg viewBox="0, 0, 1000, 60" width="100%" height="100%" xmlns="http://www.w3.org/2000/svg">

<text x="0" y="30">
17 Tsamikos
</text>
<line x1="200" y1="0" x2="1000" y2="0" stroke="lightgray"/>
<line x1="200" y1="20.0" x2="1000" y2="20.0" stroke="lightgray"/>
<line x1="200" y1="40.0" x2="1000" y2="40.0" stroke="lightgray"/>
<line x1="200" y1="60" x2="1000" y2="60" stroke="lightgray"/>
<line x1="200.0" y1="0" x2="200.0" y2="60" stroke="lightgray"/>
<line x1="400.0" y1="0" x2="400.0" y2="60" stroke="lightgray"/>
<line x1="600.0" y1="0" x2="600.0" y2="60" stroke="lightgray"/>
<line x1="800.0" y1="0" x2="800.0" y2="60" stroke="lightgray"/>
<line x1="1000.0" y1="0" x2="1000.0" y2="60" stroke="lightgray"/>
<circle cx="502.23591147615787" cy="25.666666666666664" r="2" stroke="black" fill="black"/>
<circle cx="632.580424366872" cy="46.666666666666664" r="2" stroke="black" fill="black"/>
<circle cx="655.5555555555555" cy="37.666666666666664" r="2" stroke="black" fill="black"/>
<circle cx="663.2215377595254" cy="51.0" r="2" stroke="black" fill="black"/>
<circle cx="670.8875199634953" cy="34.33333333333333" r="2" stroke="black" fill="black"/>
<circle cx="678.5535021674652" cy="46.666666666666664" r="2" stroke="black" fill="black"/>
<circle cx="682.3864932694502" cy="17.0" r="2" stroke="black" fill="black"/>
<circle cx="701.5514487793749" cy="46.333333333333336" r="2" stroke="black" fill="black"/>
<circle cx="751.380333105179" cy="10.333333333333334" r="2" stroke="black" fill="black"/>
<circle cx="812.7310061601643" cy="44.66666666666667" r="2" stroke="black" fill="black"/>
<circle cx="935.3639060004564" cy="37.666666666666664" r="2" stroke="black" fill="black"/>
<circle cx="954.528861510381" cy="31.666666666666668" r="2" stroke="black" fill="black"/>
<circle cx="341.25028519279033" cy="29.666666666666668" r="2" stroke="blue" fill="blue"/>
<circle cx="417.9329226557153" cy="53.33333333333333" r="2" stroke="blue" fill="blue"/>
<circle cx="429.4318959616701" cy="9.666666666666668" r="2" stroke="blue" fill="blue"/>
<circle cx="460.0730093543235" cy="36.0" r="2" stroke="blue" fill="blue"/>
</svg>
