<svg viewBox="0, 0, 1000, 60" width="100%" height="100%" xmlns="http://www.w3.org/2000/svg">

<text x="0" y="30">
17 Narodno Oro
</text>
<line x1="200" y1="0" x2="1000" y2="0" stroke="lightgray"/>
<line x1="200" y1="20.0" x2="1000" y2="20.0" stroke="lightgray"/>
<line x1="200" y1="40.0" x2="1000" y2="40.0" stroke="lightgray"/>
<line x1="200" y1="60" x2="1000" y2="60" stroke="lightgray"/>
<line x1="200.0" y1="0" x2="200.0" y2="60" stroke="lightgray"/>
<line x1="400.0" y1="0" x2="400.0" y2="60" stroke="lightgray"/>
<line x1="600.0" y1="0" x2="600.0" y2="60" stroke="lightgray"/>
<line x1="800.0" y1="0" x2="800.0" y2="60" stroke="lightgray"/>
<line x1="1000.0" y1="0" x2="1000.0" y2="60" stroke="lightgray"/>
<circle cx="406.4339493497605" cy="6.0" r="2" stroke="black" fill="black"/>
<circle cx="421.7659137577002" cy="2.0" r="2" stroke="black" fill="black"/>
<circle cx="475.4049737622633" cy="7.666666666666666" r="2" stroke="black" fill="black"/>
<circle cx="483.0709559662332" cy="2.3333333333333335" r="2" stroke="black" fill="black"/>
<circle cx="517.5678758840976" cy="25.0" r="2" stroke="black" fill="black"/>
<circle cx="529.0668491900525" cy="1.3333333333333335" r="2" stroke="black" fill="black"/>
<circle cx="663.2215377595254" cy="0.33333333333333337" r="2" stroke="black" fill="black"/>
<circle cx="682.3864932694502" cy="4.666666666666667" r="2" stroke="black" fill="black"/>
<circle cx="701.5514487793749" cy="22.0" r="2" stroke="black" fill="black"/>
<circle cx="774.4010951403149" cy="3.6666666666666665" r="2" stroke="black" fill="black"/>
<circle cx="828.062970568104" cy="9.333333333333334" r="2" stroke="black" fill="black"/>
<circle cx="881.7020305726671" cy="10.0" r="2" stroke="black" fill="black"/>
<circle cx="904.6999771845767" cy="16.0" r="2" stroke="black" fill="black"/>
</svg>
