<svg viewBox="0, 0, 1000, 60" width="100%" height="100%" xmlns="http://www.w3.org/2000/svg">

<text x="0" y="30">
17 Katushe Mome
</text>
<line x1="200" y1="0" x2="1000" y2="0" stroke="lightgray"/>
<line x1="200" y1="20.0" x2="1000" y2="20.0" stroke="lightgray"/>
<line x1="200" y1="40.0" x2="1000" y2="40.0" stroke="lightgray"/>
<line x1="200" y1="60" x2="1000" y2="60" stroke="lightgray"/>
<line x1="200.0" y1="0" x2="200.0" y2="60" stroke="lightgray"/>
<line x1="400.0" y1="0" x2="400.0" y2="60" stroke="lightgray"/>
<line x1="600.0" y1="0" x2="600.0" y2="60" stroke="lightgray"/>
<line x1="800.0" y1="0" x2="800.0" y2="60" stroke="lightgray"/>
<line x1="1000.0" y1="0" x2="1000.0" y2="60" stroke="lightgray"/>
<circle cx="310.58635637691077" cy="2.3333333333333335" r="2" stroke="black" fill="black"/>
<circle cx="325.91832078485055" cy="6.0" r="2" stroke="black" fill="black"/>
<circle cx="356.58224960073005" cy="6.0" r="2" stroke="black" fill="black"/>
<circle cx="371.93702943189595" cy="32.0" r="2" stroke="black" fill="black"/>
<circle cx="383.4360027378508" cy="16.0" r="2" stroke="black" fill="black"/>
<circle cx="391.10198494182066" cy="31.333333333333336" r="2" stroke="black" fill="black"/>
<circle cx="460.0730093543235" cy="26.666666666666664" r="2" stroke="black" fill="black"/>
<circle cx="467.7389915582934" cy="25.0" r="2" stroke="black" fill="black"/>
<circle cx="475.4049737622633" cy="25.0" r="2" stroke="black" fill="black"/>
<circle cx="494.569929272188" cy="53.66666666666667" r="2" stroke="black" fill="black"/>
<circle cx="502.23591147615787" cy="10.333333333333334" r="2" stroke="black" fill="black"/>
<circle cx="571.252566735113" cy="14.666666666666666" r="2" stroke="black" fill="black"/>
<circle cx="655.5555555555555" cy="29.333333333333332" r="2" stroke="black" fill="black"/>
<circle cx="751.380333105179" cy="8.333333333333334" r="2" stroke="black" fill="black"/>
<circle cx="774.4010951403149" cy="24.0" r="2" stroke="black" fill="black"/>
<circle cx="797.3990417522244" cy="9.666666666666668" r="2" stroke="black" fill="black"/>
</svg>
