<svg viewBox="0, 0, 1000, 60" width="100%" height="100%" xmlns="http://www.w3.org/2000/svg">

<text x="0" y="30">
34 Lisu
</text>
<line x1="200" y1="0" x2="1000" y2="0" stroke="lightgray"/>
<line x1="200" y1="20.0" x2="1000" y2="20.0" stroke="lightgray"/>
<line x1="200" y1="40.0" x2="1000" y2="40.0" stroke="lightgray"/>
<line x1="200" y1="60" x2="1000" y2="60" stroke="lightgray"/>
<line x1="200.0" y1="0" x2="200.0" y2="60" stroke="lightgray"/>
<line x1="400.0" y1="0" x2="400.0" y2="60" stroke="lightgray"/>
<line x1="600.0" y1="0" x2="600.0" y2="60" stroke="lightgray"/>
<line x1="800.0" y1="0" x2="800.0" y2="60" stroke="lightgray"/>
<line x1="1000.0" y1="0" x2="1000.0" y2="60" stroke="lightgray"/>
<circle cx="371.93702943189595" cy="5.333333333333334" r="2" stroke="black" fill="black"/>
<circle cx="383.4360027378508" cy="53.66666666666667" r="2" stroke="black" fill="black"/>
<circle cx="398.7679671457905" cy="3.333333333333333" r="2" stroke="black" fill="black"/>
<circle cx="406.4339493497605" cy="12.0" r="2" stroke="black" fill="black"/>
<circle cx="417.9329226557153" cy="6.0" r="2" stroke="black" fill="black"/>
<circle cx="429.4318959616701" cy="4.333333333333333" r="2" stroke="black" fill="black"/>
<circle cx="437.09787816564" cy="14.666666666666666" r="2" stroke="black" fill="black"/>
<circle cx="452.40702715035366" cy="6.0" r="2" stroke="black" fill="black"/>
<circle cx="452.40702715035366" cy="6.0" r="2" stroke="black" fill="black"/>
<circle cx="460.0730093543235" cy="13.0" r="2" stroke="black" fill="black"/>
<circle cx="467.7389915582934" cy="27.333333333333332" r="2" stroke="black" fill="black"/>
<circle cx="475.4049737622633" cy="28.666666666666668" r="2" stroke="black" fill="black"/>
<circle cx="483.0709559662332" cy="21.0" r="2" stroke="black" fill="black"/>
<circle cx="494.569929272188" cy="6.0" r="2" stroke="black" fill="black"/>
<circle cx="502.23591147615787" cy="11.333333333333332" r="2" stroke="black" fill="black"/>
<circle cx="506.0689025781428" cy="24.333333333333332" r="2" stroke="black" fill="black"/>
<circle cx="517.5678758840976" cy="11.0" r="2" stroke="black" fill="black"/>
<circle cx="559.730778005932" cy="27.333333333333332" r="2" stroke="black" fill="black"/>
<circle cx="571.252566735113" cy="16.666666666666668" r="2" stroke="black" fill="black"/>
<circle cx="632.580424366872" cy="14.0" r="2" stroke="black" fill="black"/>
<circle cx="663.2215377595254" cy="1.6666666666666665" r="2" stroke="black" fill="black"/>
<circle cx="670.8875199634953" cy="12.666666666666666" r="2" stroke="black" fill="black"/>
<circle cx="682.3864932694502" cy="1.6666666666666665" r="2" stroke="black" fill="black"/>
<circle cx="782.0670773442847" cy="11.0" r="2" stroke="black" fill="black"/>
<circle cx="805.0650239561944" cy="23.666666666666664" r="2" stroke="black" fill="black"/>
<circle cx="828.062970568104" cy="10.666666666666668" r="2" stroke="black" fill="black"/>
<circle cx="835.7289527720739" cy="15.666666666666668" r="2" stroke="black" fill="black"/>
<circle cx="881.7020305726671" cy="12.333333333333332" r="2" stroke="black" fill="black"/>
<circle cx="954.528861510381" cy="6.666666666666666" r="2" stroke="black" fill="black"/>
<circle cx="966.0278348163358" cy="8.666666666666666" r="2" stroke="black" fill="black"/>
<circle cx="977.5496235455169" cy="17.333333333333332" r="2" stroke="black" fill="black"/>
</svg>
