<svg viewBox="0, 0, 1000, 60" width="100%" height="100%" xmlns="http://www.w3.org/2000/svg">

<text x="0" y="30">
16 Alunelul
</text>
<line x1="200" y1="0" x2="1000" y2="0" stroke="lightgray"/>
<line x1="200" y1="20.0" x2="1000" y2="20.0" stroke="lightgray"/>
<line x1="200" y1="40.0" x2="1000" y2="40.0" stroke="lightgray"/>
<line x1="200" y1="60" x2="1000" y2="60" stroke="lightgray"/>
<line x1="200.0" y1="0" x2="200.0" y2="60" stroke="lightgray"/>
<line x1="400.0" y1="0" x2="400.0" y2="60" stroke="lightgray"/>
<line x1="600.0" y1="0" x2="600.0" y2="60" stroke="lightgray"/>
<line x1="800.0" y1="0" x2="800.0" y2="60" stroke="lightgray"/>
<line x1="1000.0" y1="0" x2="1000.0" y2="60" stroke="lightgray"/>
<circle cx="310.58635637691077" cy="20.333333333333336" r="2" stroke="black" fill="black"/>
<circle cx="318.2523385808807" cy="2.0" r="2" stroke="black" fill="black"/>
<circle cx="444.74104494638374" cy="1.0" r="2" stroke="black" fill="black"/>
<circle cx="460.0730093543235" cy="7.333333333333333" r="2" stroke="black" fill="black"/>
<circle cx="628.747433264887" cy="0.6666666666666667" r="2" stroke="black" fill="black"/>
<circle cx="670.8875199634953" cy="6.666666666666666" r="2" stroke="black" fill="black"/>
<circle cx="701.5514487793749" cy="23.333333333333332" r="2" stroke="black" fill="black"/>
<circle cx="736.0483686972393" cy="13.333333333333332" r="2" stroke="black" fill="black"/>
<circle cx="812.7310061601643" cy="7.0" r="2" stroke="black" fill="black"/>
<circle cx="843.3721195528177" cy="10.333333333333334" r="2" stroke="black" fill="black"/>
<circle cx="904.6999771845767" cy="0.0" r="2" stroke="black" fill="black"/>
<circle cx="920.0319415925167" cy="17.0" r="2" stroke="black" fill="black"/>
<circle cx="939.1968971024412" cy="5.333333333333334" r="2" stroke="black" fill="black"/>
<circle cx="364.2482318047" cy="6.0" r="2" stroke="blue" fill="blue"/>
<circle cx="559.730778005932" cy="20.333333333333336" r="2" stroke="blue" fill="blue"/>
<circle cx="682.3864932694502" cy="39.666666666666664" r="2" stroke="blue" fill="blue"/>
</svg>
