<svg viewBox="0, 0, 1000, 60" width="100%" height="100%" xmlns="http://www.w3.org/2000/svg">

<text x="0" y="30">
16 Horehronsky Czardas
</text>
<line x1="200" y1="0" x2="1000" y2="0" stroke="lightgray"/>
<line x1="200" y1="20.0" x2="1000" y2="20.0" stroke="lightgray"/>
<line x1="200" y1="40.0" x2="1000" y2="40.0" stroke="lightgray"/>
<line x1="200" y1="60" x2="1000" y2="60" stroke="lightgray"/>
<line x1="200.0" y1="0" x2="200.0" y2="60" stroke="lightgray"/>
<line x1="400.0" y1="0" x2="400.0" y2="60" stroke="lightgray"/>
<line x1="600.0" y1="0" x2="600.0" y2="60" stroke="lightgray"/>
<line x1="800.0" y1="0" x2="800.0" y2="60" stroke="lightgray"/>
<line x1="1000.0" y1="0" x2="1000.0" y2="60" stroke="lightgray"/>
<circle cx="417.9329226557153" cy="29.0" r="2" stroke="black" fill="black"/>
<circle cx="421.7659137577002" cy="52.0" r="2" stroke="black" fill="black"/>
<circle cx="429.4318959616701" cy="28.0" r="2" stroke="black" fill="black"/>
<circle cx="444.74104494638374" cy="47.33333333333333" r="2" stroke="black" fill="black"/>
<circle cx="536.7328313940224" cy="35.333333333333336" r="2" stroke="black" fill="black"/>
<circle cx="586.5845311430527" cy="37.333333333333336" r="2" stroke="black" fill="black"/>
<circle cx="632.580424366872" cy="43.666666666666664" r="2" stroke="black" fill="black"/>
<circle cx="716.8834131873147" cy="10.333333333333334" r="2" stroke="black" fill="black"/>
<circle cx="774.4010951403149" cy="24.666666666666664" r="2" stroke="black" fill="black"/>
<circle cx="782.0670773442847" cy="44.333333333333336" r="2" stroke="black" fill="black"/>
<circle cx="851.0381017567876" cy="41.333333333333336" r="2" stroke="black" fill="black"/>
<circle cx="858.7040839607574" cy="40.333333333333336" r="2" stroke="black" fill="black"/>
<circle cx="897.0339949806068" cy="26.333333333333332" r="2" stroke="black" fill="black"/>
<circle cx="920.0319415925167" cy="25.333333333333332" r="2" stroke="black" fill="black"/>
<circle cx="977.5496235455169" cy="11.333333333333332" r="2" stroke="black" fill="black"/>
<circle cx="310.58635637691077" cy="33.0" r="2" stroke="blue" fill="blue"/>
</svg>
