<svg viewBox="0, 0, 1000, 60" width="100%" height="100%" xmlns="http://www.w3.org/2000/svg">

<text x="0" y="30">
16 Sandansko Horo
</text>
<line x1="200" y1="0" x2="1000" y2="0" stroke="lightgray"/>
<line x1="200" y1="20.0" x2="1000" y2="20.0" stroke="lightgray"/>
<line x1="200" y1="40.0" x2="1000" y2="40.0" stroke="lightgray"/>
<line x1="200" y1="60" x2="1000" y2="60" stroke="lightgray"/>
<line x1="200.0" y1="0" x2="200.0" y2="60" stroke="lightgray"/>
<line x1="400.0" y1="0" x2="400.0" y2="60" stroke="lightgray"/>
<line x1="600.0" y1="0" x2="600.0" y2="60" stroke="lightgray"/>
<line x1="800.0" y1="0" x2="800.0" y2="60" stroke="lightgray"/>
<line x1="1000.0" y1="0" x2="1000.0" y2="60" stroke="lightgray"/>
<circle cx="383.4360027378508" cy="44.0" r="2" stroke="black" fill="black"/>
<circle cx="406.4339493497605" cy="5.0" r="2" stroke="black" fill="black"/>
<circle cx="417.9329226557153" cy="18.333333333333336" r="2" stroke="black" fill="black"/>
<circle cx="429.4318959616701" cy="24.333333333333332" r="2" stroke="black" fill="black"/>
<circle cx="483.0709559662332" cy="31.000000000000004" r="2" stroke="black" fill="black"/>
<circle cx="529.0668491900525" cy="26.333333333333332" r="2" stroke="black" fill="black"/>
<circle cx="536.7328313940224" cy="37.666666666666664" r="2" stroke="black" fill="black"/>
<circle cx="559.730778005932" cy="46.666666666666664" r="2" stroke="black" fill="black"/>
<circle cx="682.3864932694502" cy="23.0" r="2" stroke="black" fill="black"/>
<circle cx="686.219484371435" cy="38.0" r="2" stroke="black" fill="black"/>
<circle cx="716.8834131873147" cy="51.0" r="2" stroke="black" fill="black"/>
<circle cx="751.380333105179" cy="17.0" r="2" stroke="black" fill="black"/>
<circle cx="797.3990417522244" cy="34.0" r="2" stroke="black" fill="black"/>
<circle cx="881.7020305726671" cy="34.0" r="2" stroke="black" fill="black"/>
<circle cx="889.368012776637" cy="43.0" r="2" stroke="black" fill="black"/>
<circle cx="517.5678758840976" cy="33.333333333333336" r="2" stroke="blue" fill="blue"/>
</svg>
