<svg viewBox="0, 0, 1000, 60" width="100%" height="100%" xmlns="http://www.w3.org/2000/svg">

<text x="0" y="30">
16 Murguletul Din Negreni
</text>
<line x1="200" y1="0" x2="1000" y2="0" stroke="lightgray"/>
<line x1="200" y1="20.0" x2="1000" y2="20.0" stroke="lightgray"/>
<line x1="200" y1="40.0" x2="1000" y2="40.0" stroke="lightgray"/>
<line x1="200" y1="60" x2="1000" y2="60" stroke="lightgray"/>
<line x1="200.0" y1="0" x2="200.0" y2="60" stroke="lightgray"/>
<line x1="400.0" y1="0" x2="400.0" y2="60" stroke="lightgray"/>
<line x1="600.0" y1="0" x2="600.0" y2="60" stroke="lightgray"/>
<line x1="800.0" y1="0" x2="800.0" y2="60" stroke="lightgray"/>
<line x1="1000.0" y1="0" x2="1000.0" y2="60" stroke="lightgray"/>
<circle cx="341.25028519279033" cy="27.666666666666668" r="2" stroke="black" fill="black"/>
<circle cx="391.10198494182066" cy="33.333333333333336" r="2" stroke="black" fill="black"/>
<circle cx="444.74104494638374" cy="49.666666666666664" r="2" stroke="black" fill="black"/>
<circle cx="460.0730093543235" cy="46.333333333333336" r="2" stroke="black" fill="black"/>
<circle cx="494.569929272188" cy="50.0" r="2" stroke="black" fill="black"/>
<circle cx="496.2126397444673" cy="51.33333333333333" r="2" stroke="black" fill="black"/>
<circle cx="502.23591147615787" cy="47.0" r="2" stroke="black" fill="black"/>
<circle cx="506.0689025781428" cy="46.666666666666664" r="2" stroke="black" fill="black"/>
<circle cx="517.5678758840976" cy="45.666666666666664" r="2" stroke="black" fill="black"/>
<circle cx="536.7328313940224" cy="51.66666666666667" r="2" stroke="black" fill="black"/>
<circle cx="571.252566735113" cy="51.33333333333333" r="2" stroke="black" fill="black"/>
<circle cx="586.5845311430527" cy="51.0" r="2" stroke="black" fill="black"/>
<circle cx="728.3823864932695" cy="56.0" r="2" stroke="black" fill="black"/>
<circle cx="751.380333105179" cy="54.333333333333336" r="2" stroke="black" fill="black"/>
<circle cx="782.0670773442847" cy="45.666666666666664" r="2" stroke="black" fill="black"/>
<circle cx="939.1968971024412" cy="52.666666666666664" r="2" stroke="black" fill="black"/>
</svg>
