<svg viewBox="0, 0, 1000, 60" width="100%" height="100%" xmlns="http://www.w3.org/2000/svg">

<text x="0" y="30">
16 Phiravelman Kalyi Phuv
</text>
<line x1="200" y1="0" x2="1000" y2="0" stroke="lightgray"/>
<line x1="200" y1="20.0" x2="1000" y2="20.0" stroke="lightgray"/>
<line x1="200" y1="40.0" x2="1000" y2="40.0" stroke="lightgray"/>
<line x1="200" y1="60" x2="1000" y2="60" stroke="lightgray"/>
<line x1="200.0" y1="0" x2="200.0" y2="60" stroke="lightgray"/>
<line x1="400.0" y1="0" x2="400.0" y2="60" stroke="lightgray"/>
<line x1="600.0" y1="0" x2="600.0" y2="60" stroke="lightgray"/>
<line x1="800.0" y1="0" x2="800.0" y2="60" stroke="lightgray"/>
<line x1="1000.0" y1="0" x2="1000.0" y2="60" stroke="lightgray"/>
<circle cx="337.4172940908054" cy="2.666666666666667" r="2" stroke="black" fill="black"/>
<circle cx="341.25028519279033" cy="40.66666666666667" r="2" stroke="black" fill="black"/>
<circle cx="417.9329226557153" cy="13.666666666666666" r="2" stroke="black" fill="black"/>
<circle cx="437.09787816564" cy="44.0" r="2" stroke="black" fill="black"/>
<circle cx="494.569929272188" cy="13.0" r="2" stroke="black" fill="black"/>
<circle cx="502.23591147615787" cy="34.0" r="2" stroke="black" fill="black"/>
<circle cx="552.0647958019622" cy="11.666666666666666" r="2" stroke="black" fill="black"/>
<circle cx="678.5535021674652" cy="19.333333333333336" r="2" stroke="black" fill="black"/>
<circle cx="682.3864932694502" cy="50.333333333333336" r="2" stroke="black" fill="black"/>
<circle cx="736.0483686972393" cy="11.666666666666666" r="2" stroke="black" fill="black"/>
<circle cx="774.4010951403149" cy="22.333333333333336" r="2" stroke="black" fill="black"/>
<circle cx="805.0650239561944" cy="35.0" r="2" stroke="black" fill="black"/>
<circle cx="828.062970568104" cy="17.666666666666668" r="2" stroke="black" fill="black"/>
<circle cx="881.7020305726671" cy="23.666666666666664" r="2" stroke="black" fill="black"/>
<circle cx="889.368012776637" cy="13.666666666666666" r="2" stroke="black" fill="black"/>
</svg>
