<svg viewBox="0, 0, 1000, 60" width="100%" height="100%" xmlns="http://www.w3.org/2000/svg">

<text x="0" y="30">
16 Devetorka
</text>
<line x1="200" y1="0" x2="1000" y2="0" stroke="lightgray"/>
<line x1="200" y1="20.0" x2="1000" y2="20.0" stroke="lightgray"/>
<line x1="200" y1="40.0" x2="1000" y2="40.0" stroke="lightgray"/>
<line x1="200" y1="60" x2="1000" y2="60" stroke="lightgray"/>
<line x1="200.0" y1="0" x2="200.0" y2="60" stroke="lightgray"/>
<line x1="400.0" y1="0" x2="400.0" y2="60" stroke="lightgray"/>
<line x1="600.0" y1="0" x2="600.0" y2="60" stroke="lightgray"/>
<line x1="800.0" y1="0" x2="800.0" y2="60" stroke="lightgray"/>
<line x1="1000.0" y1="0" x2="1000.0" y2="60" stroke="lightgray"/>
<circle cx="337.4172940908054" cy="36.66666666666667" r="2" stroke="black" fill="black"/>
<circle cx="601.9164955509924" cy="36.66666666666667" r="2" stroke="black" fill="black"/>
<circle cx="805.0650239561944" cy="11.0" r="2" stroke="black" fill="black"/>
<circle cx="866.3700661647274" cy="24.0" r="2" stroke="black" fill="black"/>
<circle cx="920.0319415925167" cy="24.333333333333332" r="2" stroke="black" fill="black"/>
<circle cx="682.3864932694502" cy="33.0" r="2" stroke="blue" fill="blue"/>
<circle cx="701.5514487793749" cy="50.333333333333336" r="2" stroke="blue" fill="blue"/>
<circle cx="751.380333105179" cy="35.666666666666664" r="2" stroke="blue" fill="blue"/>
<circle cx="782.0670773442847" cy="31.000000000000004" r="2" stroke="blue" fill="blue"/>
<circle cx="939.1968971024412" cy="39.333333333333336" r="2" stroke="blue" fill="blue"/>
<circle cx="348.9162673967602" cy="22.0" r="2" stroke="green" fill="green"/>
<circle cx="452.40702715035366" cy="38.0" r="2" stroke="green" fill="green"/>
<circle cx="774.4010951403149" cy="46.333333333333336" r="2" stroke="green" fill="green"/>
<circle cx="318.2523385808807" cy="28.666666666666668" r="2" stroke="red" fill="red"/>
</svg>
