<svg viewBox="0, 0, 1000, 60" width="100%" height="100%" xmlns="http://www.w3.org/2000/svg">

<text x="0" y="30">
16 Trite Pati
</text>
<line x1="200" y1="0" x2="1000" y2="0" stroke="lightgray"/>
<line x1="200" y1="20.0" x2="1000" y2="20.0" stroke="lightgray"/>
<line x1="200" y1="40.0" x2="1000" y2="40.0" stroke="lightgray"/>
<line x1="200" y1="60" x2="1000" y2="60" stroke="lightgray"/>
<line x1="200.0" y1="0" x2="200.0" y2="60" stroke="lightgray"/>
<line x1="400.0" y1="0" x2="400.0" y2="60" stroke="lightgray"/>
<line x1="600.0" y1="0" x2="600.0" y2="60" stroke="lightgray"/>
<line x1="800.0" y1="0" x2="800.0" y2="60" stroke="lightgray"/>
<line x1="1000.0" y1="0" x2="1000.0" y2="60" stroke="lightgray"/>
<circle cx="318.2523385808807" cy="30.666666666666664" r="2" stroke="black" fill="black"/>
<circle cx="586.5845311430527" cy="45.33333333333333" r="2" stroke="black" fill="black"/>
<circle cx="701.5514487793749" cy="44.333333333333336" r="2" stroke="black" fill="black"/>
<circle cx="337.4172940908054" cy="26.333333333333332" r="2" stroke="blue" fill="blue"/>
<circle cx="728.3823864932695" cy="31.000000000000004" r="2" stroke="blue" fill="blue"/>
<circle cx="782.0670773442847" cy="50.0" r="2" stroke="blue" fill="blue"/>
<circle cx="364.2482318047" cy="31.333333333333336" r="2" stroke="green" fill="green"/>
<circle cx="398.7679671457905" cy="30.666666666666664" r="2" stroke="green" fill="green"/>
<circle cx="391.10198494182066" cy="49.33333333333333" r="2" stroke="red" fill="red"/>
<circle cx="682.3864932694502" cy="49.33333333333333" r="2" stroke="red" fill="red"/>
<circle cx="751.380333105179" cy="34.666666666666664" r="2" stroke="orange" fill="orange"/>
<circle cx="851.0381017567876" cy="45.666666666666664" r="2" stroke="darkblue" fill="darkblue"/>
<circle cx="467.7389915582934" cy="36.66666666666667" r="2" stroke="darkgreen" fill="darkgreen"/>
<circle cx="494.569929272188" cy="40.0" r="2" stroke="darkred" fill="darkred"/>
<circle cx="632.580424366872" cy="34.33333333333333" r="2" stroke="darkorange" fill="darkorange"/>
</svg>
