<svg viewBox="0, 0, 1000, 60" width="100%" height="100%" xmlns="http://www.w3.org/2000/svg">

<text x="0" y="30">
15 Drumul Dracului
</text>
<line x1="200" y1="0" x2="1000" y2="0" stroke="lightgray"/>
<line x1="200" y1="20.0" x2="1000" y2="20.0" stroke="lightgray"/>
<line x1="200" y1="40.0" x2="1000" y2="40.0" stroke="lightgray"/>
<line x1="200" y1="60" x2="1000" y2="60" stroke="lightgray"/>
<line x1="200.0" y1="0" x2="200.0" y2="60" stroke="lightgray"/>
<line x1="400.0" y1="0" x2="400.0" y2="60" stroke="lightgray"/>
<line x1="600.0" y1="0" x2="600.0" y2="60" stroke="lightgray"/>
<line x1="800.0" y1="0" x2="800.0" y2="60" stroke="lightgray"/>
<line x1="1000.0" y1="0" x2="1000.0" y2="60" stroke="lightgray"/>
<circle cx="586.5845311430527" cy="11.0" r="2" stroke="black" fill="black"/>
<circle cx="598.0835044490075" cy="15.0" r="2" stroke="black" fill="black"/>
<circle cx="601.9164955509924" cy="45.666666666666664" r="2" stroke="black" fill="black"/>
<circle cx="663.2215377595254" cy="33.333333333333336" r="2" stroke="black" fill="black"/>
<circle cx="670.8875199634953" cy="17.666666666666668" r="2" stroke="black" fill="black"/>
<circle cx="716.8834131873147" cy="8.0" r="2" stroke="black" fill="black"/>
<circle cx="835.7289527720739" cy="9.666666666666668" r="2" stroke="black" fill="black"/>
<circle cx="843.3721195528177" cy="6.666666666666666" r="2" stroke="black" fill="black"/>
<circle cx="851.0381017567876" cy="11.0" r="2" stroke="black" fill="black"/>
<circle cx="889.368012776637" cy="8.0" r="2" stroke="black" fill="black"/>
<circle cx="920.0319415925167" cy="9.333333333333334" r="2" stroke="black" fill="black"/>
<circle cx="977.5496235455169" cy="55.333333333333336" r="2" stroke="black" fill="black"/>
<circle cx="966.0278348163358" cy="1.0" r="2" stroke="blue" fill="blue"/>
</svg>
