<svg viewBox="0, 0, 1000, 60" width="100%" height="100%" xmlns="http://www.w3.org/2000/svg">

<text x="0" y="30">
15 Dolgoto Oro
</text>
<line x1="200" y1="0" x2="1000" y2="0" stroke="lightgray"/>
<line x1="200" y1="20.0" x2="1000" y2="20.0" stroke="lightgray"/>
<line x1="200" y1="40.0" x2="1000" y2="40.0" stroke="lightgray"/>
<line x1="200" y1="60" x2="1000" y2="60" stroke="lightgray"/>
<line x1="200.0" y1="0" x2="200.0" y2="60" stroke="lightgray"/>
<line x1="400.0" y1="0" x2="400.0" y2="60" stroke="lightgray"/>
<line x1="600.0" y1="0" x2="600.0" y2="60" stroke="lightgray"/>
<line x1="800.0" y1="0" x2="800.0" y2="60" stroke="lightgray"/>
<line x1="1000.0" y1="0" x2="1000.0" y2="60" stroke="lightgray"/>
<circle cx="310.58635637691077" cy="12.666666666666666" r="2" stroke="black" fill="black"/>
<circle cx="318.2523385808807" cy="21.0" r="2" stroke="black" fill="black"/>
<circle cx="325.91832078485055" cy="25.0" r="2" stroke="black" fill="black"/>
<circle cx="337.4172940908054" cy="29.333333333333332" r="2" stroke="black" fill="black"/>
<circle cx="356.58224960073005" cy="24.333333333333332" r="2" stroke="black" fill="black"/>
<circle cx="406.4339493497605" cy="38.0" r="2" stroke="black" fill="black"/>
<circle cx="417.9329226557153" cy="31.666666666666668" r="2" stroke="black" fill="black"/>
<circle cx="475.4049737622633" cy="44.66666666666667" r="2" stroke="black" fill="black"/>
<circle cx="536.7328313940224" cy="44.0" r="2" stroke="black" fill="black"/>
<circle cx="682.3864932694502" cy="48.0" r="2" stroke="black" fill="black"/>
<circle cx="686.219484371435" cy="42.333333333333336" r="2" stroke="black" fill="black"/>
<circle cx="828.062970568104" cy="42.66666666666667" r="2" stroke="black" fill="black"/>
<circle cx="881.7020305726671" cy="31.333333333333336" r="2" stroke="black" fill="black"/>
<circle cx="904.6999771845767" cy="42.333333333333336" r="2" stroke="black" fill="black"/>
</svg>
