<svg viewBox="0, 0, 1000, 60" width="100%" height="100%" xmlns="http://www.w3.org/2000/svg">

<text x="0" y="30">
15 Rustemul
</text>
<line x1="200" y1="0" x2="1000" y2="0" stroke="lightgray"/>
<line x1="200" y1="20.0" x2="1000" y2="20.0" stroke="lightgray"/>
<line x1="200" y1="40.0" x2="1000" y2="40.0" stroke="lightgray"/>
<line x1="200" y1="60" x2="1000" y2="60" stroke="lightgray"/>
<line x1="200.0" y1="0" x2="200.0" y2="60" stroke="lightgray"/>
<line x1="400.0" y1="0" x2="400.0" y2="60" stroke="lightgray"/>
<line x1="600.0" y1="0" x2="600.0" y2="60" stroke="lightgray"/>
<line x1="800.0" y1="0" x2="800.0" y2="60" stroke="lightgray"/>
<line x1="1000.0" y1="0" x2="1000.0" y2="60" stroke="lightgray"/>
<circle cx="318.2523385808807" cy="36.66666666666667" r="2" stroke="black" fill="black"/>
<circle cx="406.4339493497605" cy="54.666666666666664" r="2" stroke="black" fill="black"/>
<circle cx="444.74104494638374" cy="53.33333333333333" r="2" stroke="black" fill="black"/>
<circle cx="467.7389915582934" cy="41.0" r="2" stroke="black" fill="black"/>
<circle cx="502.23591147615787" cy="32.0" r="2" stroke="black" fill="black"/>
<circle cx="506.0689025781428" cy="43.333333333333336" r="2" stroke="black" fill="black"/>
<circle cx="601.9164955509924" cy="34.666666666666664" r="2" stroke="black" fill="black"/>
<circle cx="782.0670773442847" cy="51.0" r="2" stroke="black" fill="black"/>
<circle cx="805.0650239561944" cy="49.666666666666664" r="2" stroke="black" fill="black"/>
<circle cx="812.7310061601643" cy="51.33333333333333" r="2" stroke="black" fill="black"/>
<circle cx="866.3700661647274" cy="29.333333333333332" r="2" stroke="black" fill="black"/>
<circle cx="935.3639060004564" cy="35.333333333333336" r="2" stroke="black" fill="black"/>
<circle cx="950.6958704083961" cy="33.333333333333336" r="2" stroke="black" fill="black"/>
<circle cx="977.5496235455169" cy="41.0" r="2" stroke="black" fill="black"/>
<circle cx="973.7166324435318" cy="40.66666666666667" r="2" stroke="blue" fill="blue"/>
</svg>
