<svg viewBox="0, 0, 1000, 60" width="100%" height="100%" xmlns="http://www.w3.org/2000/svg">

<text x="0" y="30">
15 Siriul
</text>
<line x1="200" y1="0" x2="1000" y2="0" stroke="lightgray"/>
<line x1="200" y1="20.0" x2="1000" y2="20.0" stroke="lightgray"/>
<line x1="200" y1="40.0" x2="1000" y2="40.0" stroke="lightgray"/>
<line x1="200" y1="60" x2="1000" y2="60" stroke="lightgray"/>
<line x1="200.0" y1="0" x2="200.0" y2="60" stroke="lightgray"/>
<line x1="400.0" y1="0" x2="400.0" y2="60" stroke="lightgray"/>
<line x1="600.0" y1="0" x2="600.0" y2="60" stroke="lightgray"/>
<line x1="800.0" y1="0" x2="800.0" y2="60" stroke="lightgray"/>
<line x1="1000.0" y1="0" x2="1000.0" y2="60" stroke="lightgray"/>
<circle cx="475.4049737622633" cy="37.333333333333336" r="2" stroke="black" fill="black"/>
<circle cx="502.23591147615787" cy="26.666666666666664" r="2" stroke="black" fill="black"/>
<circle cx="552.0647958019622" cy="35.0" r="2" stroke="black" fill="black"/>
<circle cx="598.0835044490075" cy="32.33333333333333" r="2" stroke="black" fill="black"/>
<circle cx="655.5555555555555" cy="49.0" r="2" stroke="black" fill="black"/>
<circle cx="670.8875199634953" cy="46.666666666666664" r="2" stroke="black" fill="black"/>
<circle cx="686.219484371435" cy="54.666666666666664" r="2" stroke="black" fill="black"/>
<circle cx="716.8834131873147" cy="3.6666666666666665" r="2" stroke="black" fill="black"/>
<circle cx="805.0650239561944" cy="13.333333333333332" r="2" stroke="black" fill="black"/>
<circle cx="812.7310061601643" cy="34.33333333333333" r="2" stroke="black" fill="black"/>
<circle cx="828.062970568104" cy="7.333333333333333" r="2" stroke="black" fill="black"/>
<circle cx="835.7289527720739" cy="17.0" r="2" stroke="black" fill="black"/>
<circle cx="843.3721195528177" cy="15.0" r="2" stroke="black" fill="black"/>
<circle cx="866.3700661647274" cy="27.0" r="2" stroke="black" fill="black"/>
<circle cx="954.528861510381" cy="8.0" r="2" stroke="black" fill="black"/>
</svg>
