<svg viewBox="0, 0, 1000, 60" width="100%" height="100%" xmlns="http://www.w3.org/2000/svg">

<text x="0" y="30">
15 Ooska Gookas
</text>
<line x1="200" y1="0" x2="1000" y2="0" stroke="lightgray"/>
<line x1="200" y1="20.0" x2="1000" y2="20.0" stroke="lightgray"/>
<line x1="200" y1="40.0" x2="1000" y2="40.0" stroke="lightgray"/>
<line x1="200" y1="60" x2="1000" y2="60" stroke="lightgray"/>
<line x1="200.0" y1="0" x2="200.0" y2="60" stroke="lightgray"/>
<line x1="400.0" y1="0" x2="400.0" y2="60" stroke="lightgray"/>
<line x1="600.0" y1="0" x2="600.0" y2="60" stroke="lightgray"/>
<line x1="800.0" y1="0" x2="800.0" y2="60" stroke="lightgray"/>
<line x1="1000.0" y1="0" x2="1000.0" y2="60" stroke="lightgray"/>
<circle cx="325.91832078485055" cy="39.666666666666664" r="2" stroke="black" fill="black"/>
<circle cx="383.4360027378508" cy="18.333333333333336" r="2" stroke="black" fill="black"/>
<circle cx="406.4339493497605" cy="18.333333333333336" r="2" stroke="black" fill="black"/>
<circle cx="444.74104494638374" cy="2.3333333333333335" r="2" stroke="black" fill="black"/>
<circle cx="475.4049737622633" cy="19.333333333333336" r="2" stroke="black" fill="black"/>
<circle cx="628.747433264887" cy="18.0" r="2" stroke="black" fill="black"/>
<circle cx="682.3864932694502" cy="25.0" r="2" stroke="black" fill="black"/>
<circle cx="701.5514487793749" cy="13.666666666666666" r="2" stroke="black" fill="black"/>
<circle cx="759.0463153091489" cy="18.0" r="2" stroke="black" fill="black"/>
<circle cx="805.0650239561944" cy="31.000000000000004" r="2" stroke="black" fill="black"/>
<circle cx="904.6999771845767" cy="1.6666666666666665" r="2" stroke="black" fill="black"/>
<circle cx="920.0319415925167" cy="8.0" r="2" stroke="black" fill="black"/>
<circle cx="935.3639060004564" cy="18.333333333333336" r="2" stroke="black" fill="black"/>
<circle cx="950.6958704083961" cy="32.33333333333333" r="2" stroke="black" fill="black"/>
</svg>
