<svg viewBox="0, 0, 1000, 60" width="100%" height="100%" xmlns="http://www.w3.org/2000/svg">

<text x="0" y="30">
15 Gankino
</text>
<line x1="200" y1="0" x2="1000" y2="0" stroke="lightgray"/>
<line x1="200" y1="20.0" x2="1000" y2="20.0" stroke="lightgray"/>
<line x1="200" y1="40.0" x2="1000" y2="40.0" stroke="lightgray"/>
<line x1="200" y1="60" x2="1000" y2="60" stroke="lightgray"/>
<line x1="200.0" y1="0" x2="200.0" y2="60" stroke="lightgray"/>
<line x1="400.0" y1="0" x2="400.0" y2="60" stroke="lightgray"/>
<line x1="600.0" y1="0" x2="600.0" y2="60" stroke="lightgray"/>
<line x1="800.0" y1="0" x2="800.0" y2="60" stroke="lightgray"/>
<line x1="1000.0" y1="0" x2="1000.0" y2="60" stroke="lightgray"/>
<circle cx="371.93702943189595" cy="38.0" r="2" stroke="black" fill="black"/>
<circle cx="444.74104494638374" cy="18.0" r="2" stroke="black" fill="black"/>
<circle cx="502.23591147615787" cy="50.666666666666664" r="2" stroke="black" fill="black"/>
<circle cx="552.0647958019622" cy="47.0" r="2" stroke="black" fill="black"/>
<circle cx="736.0483686972393" cy="36.33333333333333" r="2" stroke="black" fill="black"/>
<circle cx="805.0650239561944" cy="36.66666666666667" r="2" stroke="black" fill="black"/>
<circle cx="950.6958704083961" cy="31.333333333333336" r="2" stroke="black" fill="black"/>
<circle cx="701.5514487793749" cy="31.333333333333336" r="2" stroke="blue" fill="blue"/>
<circle cx="701.5514487793749" cy="49.0" r="2" stroke="blue" fill="blue"/>
<circle cx="828.062970568104" cy="26.333333333333332" r="2" stroke="blue" fill="blue"/>
<circle cx="889.368012776637" cy="38.33333333333333" r="2" stroke="blue" fill="blue"/>
<circle cx="812.7310061601643" cy="32.666666666666664" r="2" stroke="red" fill="red"/>
<circle cx="912.3659593885467" cy="43.666666666666664" r="2" stroke="orange" fill="orange"/>
<circle cx="935.3639060004564" cy="31.333333333333336" r="2" stroke="darkblue" fill="darkblue"/>
</svg>
