<svg viewBox="0, 0, 1000, 60" width="100%" height="100%" xmlns="http://www.w3.org/2000/svg">

<text x="0" y="30">
32 Joc de Leagane
</text>
<line x1="200" y1="0" x2="1000" y2="0" stroke="lightgray"/>
<line x1="200" y1="20.0" x2="1000" y2="20.0" stroke="lightgray"/>
<line x1="200" y1="40.0" x2="1000" y2="40.0" stroke="lightgray"/>
<line x1="200" y1="60" x2="1000" y2="60" stroke="lightgray"/>
<line x1="200.0" y1="0" x2="200.0" y2="60" stroke="lightgray"/>
<line x1="400.0" y1="0" x2="400.0" y2="60" stroke="lightgray"/>
<line x1="600.0" y1="0" x2="600.0" y2="60" stroke="lightgray"/>
<line x1="800.0" y1="0" x2="800.0" y2="60" stroke="lightgray"/>
<line x1="1000.0" y1="0" x2="1000.0" y2="60" stroke="lightgray"/>
<circle cx="341.25028519279033" cy="55.333333333333336" r="2" stroke="black" fill="black"/>
<circle cx="348.9162673967602" cy="55.333333333333336" r="2" stroke="black" fill="black"/>
<circle cx="356.58224960073005" cy="56.333333333333336" r="2" stroke="black" fill="black"/>
<circle cx="371.93702943189595" cy="40.0" r="2" stroke="black" fill="black"/>
<circle cx="383.4360027378508" cy="39.666666666666664" r="2" stroke="black" fill="black"/>
<circle cx="398.7679671457905" cy="54.333333333333336" r="2" stroke="black" fill="black"/>
<circle cx="421.7659137577002" cy="55.0" r="2" stroke="black" fill="black"/>
<circle cx="437.09787816564" cy="54.666666666666664" r="2" stroke="black" fill="black"/>
<circle cx="444.74104494638374" cy="55.66666666666667" r="2" stroke="black" fill="black"/>
<circle cx="475.4049737622633" cy="56.333333333333336" r="2" stroke="black" fill="black"/>
<circle cx="506.0689025781428" cy="56.0" r="2" stroke="black" fill="black"/>
<circle cx="529.0668491900525" cy="55.333333333333336" r="2" stroke="black" fill="black"/>
<circle cx="536.7328313940224" cy="54.666666666666664" r="2" stroke="black" fill="black"/>
<circle cx="559.730778005932" cy="15.0" r="2" stroke="black" fill="black"/>
<circle cx="586.5845311430527" cy="56.0" r="2" stroke="black" fill="black"/>
<circle cx="628.747433264887" cy="40.0" r="2" stroke="black" fill="black"/>
<circle cx="632.580424366872" cy="55.333333333333336" r="2" stroke="black" fill="black"/>
<circle cx="663.2215377595254" cy="55.333333333333336" r="2" stroke="black" fill="black"/>
<circle cx="686.219484371435" cy="55.66666666666667" r="2" stroke="black" fill="black"/>
<circle cx="716.8834131873147" cy="55.0" r="2" stroke="black" fill="black"/>
<circle cx="782.0670773442847" cy="40.0" r="2" stroke="black" fill="black"/>
<circle cx="797.3990417522244" cy="55.0" r="2" stroke="black" fill="black"/>
<circle cx="812.7310061601643" cy="55.333333333333336" r="2" stroke="black" fill="black"/>
<circle cx="835.7289527720739" cy="55.66666666666667" r="2" stroke="black" fill="black"/>
<circle cx="851.0381017567876" cy="55.333333333333336" r="2" stroke="black" fill="black"/>
<circle cx="912.3659593885467" cy="55.333333333333336" r="2" stroke="black" fill="black"/>
<circle cx="920.0319415925167" cy="46.333333333333336" r="2" stroke="black" fill="black"/>
<circle cx="939.1968971024412" cy="55.333333333333336" r="2" stroke="black" fill="black"/>
<circle cx="950.6958704083961" cy="55.66666666666667" r="2" stroke="black" fill="black"/>
<circle cx="973.7166324435318" cy="39.333333333333336" r="2" stroke="black" fill="black"/>
<circle cx="897.0339949806068" cy="55.0" r="2" stroke="blue" fill="blue"/>
</svg>
