<svg viewBox="0, 0, 1000, 60" width="100%" height="100%" xmlns="http://www.w3.org/2000/svg">

<text x="0" y="30">
15 Langdans
</text>
<line x1="200" y1="0" x2="1000" y2="0" stroke="lightgray"/>
<line x1="200" y1="20.0" x2="1000" y2="20.0" stroke="lightgray"/>
<line x1="200" y1="40.0" x2="1000" y2="40.0" stroke="lightgray"/>
<line x1="200" y1="60" x2="1000" y2="60" stroke="lightgray"/>
<line x1="200.0" y1="0" x2="200.0" y2="60" stroke="lightgray"/>
<line x1="400.0" y1="0" x2="400.0" y2="60" stroke="lightgray"/>
<line x1="600.0" y1="0" x2="600.0" y2="60" stroke="lightgray"/>
<line x1="800.0" y1="0" x2="800.0" y2="60" stroke="lightgray"/>
<line x1="1000.0" y1="0" x2="1000.0" y2="60" stroke="lightgray"/>
<circle cx="348.9162673967602" cy="25.0" r="2" stroke="black" fill="black"/>
<circle cx="398.7679671457905" cy="26.666666666666664" r="2" stroke="black" fill="black"/>
<circle cx="406.4339493497605" cy="56.666666666666664" r="2" stroke="black" fill="black"/>
<circle cx="460.0730093543235" cy="54.666666666666664" r="2" stroke="black" fill="black"/>
<circle cx="467.7389915582934" cy="31.666666666666668" r="2" stroke="black" fill="black"/>
<circle cx="502.23591147615787" cy="54.333333333333336" r="2" stroke="black" fill="black"/>
<circle cx="517.5678758840976" cy="56.0" r="2" stroke="black" fill="black"/>
<circle cx="536.7328313940224" cy="31.666666666666668" r="2" stroke="black" fill="black"/>
<circle cx="601.9164955509924" cy="55.66666666666667" r="2" stroke="black" fill="black"/>
<circle cx="678.5535021674652" cy="56.0" r="2" stroke="black" fill="black"/>
<circle cx="736.0483686972393" cy="55.66666666666667" r="2" stroke="black" fill="black"/>
<circle cx="774.4010951403149" cy="56.0" r="2" stroke="black" fill="black"/>
<circle cx="828.062970568104" cy="56.333333333333336" r="2" stroke="black" fill="black"/>
<circle cx="835.7289527720739" cy="13.333333333333332" r="2" stroke="black" fill="black"/>
<circle cx="866.3700661647274" cy="56.0" r="2" stroke="black" fill="black"/>
</svg>
