<svg viewBox="0, 0, 1000, 60" width="100%" height="100%" xmlns="http://www.w3.org/2000/svg">

<text x="0" y="30">
14 Valle Pogonishte
</text>
<line x1="200" y1="0" x2="1000" y2="0" stroke="lightgray"/>
<line x1="200" y1="20.0" x2="1000" y2="20.0" stroke="lightgray"/>
<line x1="200" y1="40.0" x2="1000" y2="40.0" stroke="lightgray"/>
<line x1="200" y1="60" x2="1000" y2="60" stroke="lightgray"/>
<line x1="200.0" y1="0" x2="200.0" y2="60" stroke="lightgray"/>
<line x1="400.0" y1="0" x2="400.0" y2="60" stroke="lightgray"/>
<line x1="600.0" y1="0" x2="600.0" y2="60" stroke="lightgray"/>
<line x1="800.0" y1="0" x2="800.0" y2="60" stroke="lightgray"/>
<line x1="1000.0" y1="0" x2="1000.0" y2="60" stroke="lightgray"/>
<circle cx="318.2523385808807" cy="3.6666666666666665" r="2" stroke="black" fill="black"/>
<circle cx="452.40702715035366" cy="5.0" r="2" stroke="black" fill="black"/>
<circle cx="460.0730093543235" cy="18.333333333333336" r="2" stroke="black" fill="black"/>
<circle cx="475.4049737622633" cy="10.666666666666668" r="2" stroke="black" fill="black"/>
<circle cx="494.569929272188" cy="26.666666666666664" r="2" stroke="black" fill="black"/>
<circle cx="502.23591147615787" cy="4.333333333333333" r="2" stroke="black" fill="black"/>
<circle cx="529.0668491900525" cy="8.666666666666666" r="2" stroke="black" fill="black"/>
<circle cx="598.0835044490075" cy="26.0" r="2" stroke="black" fill="black"/>
<circle cx="628.747433264887" cy="27.0" r="2" stroke="black" fill="black"/>
<circle cx="686.219484371435" cy="17.0" r="2" stroke="black" fill="black"/>
<circle cx="728.3823864932695" cy="33.333333333333336" r="2" stroke="black" fill="black"/>
<circle cx="782.0670773442847" cy="13.333333333333332" r="2" stroke="black" fill="black"/>
<circle cx="904.6999771845767" cy="35.666666666666664" r="2" stroke="black" fill="black"/>
</svg>
