<svg viewBox="0, 0, 1000, 60" width="100%" height="100%" xmlns="http://www.w3.org/2000/svg">

<text x="0" y="30">
14 Uskudar Slower
</text>
<line x1="200" y1="0" x2="1000" y2="0" stroke="lightgray"/>
<line x1="200" y1="20.0" x2="1000" y2="20.0" stroke="lightgray"/>
<line x1="200" y1="40.0" x2="1000" y2="40.0" stroke="lightgray"/>
<line x1="200" y1="60" x2="1000" y2="60" stroke="lightgray"/>
<line x1="200.0" y1="0" x2="200.0" y2="60" stroke="lightgray"/>
<line x1="400.0" y1="0" x2="400.0" y2="60" stroke="lightgray"/>
<line x1="600.0" y1="0" x2="600.0" y2="60" stroke="lightgray"/>
<line x1="800.0" y1="0" x2="800.0" y2="60" stroke="lightgray"/>
<line x1="1000.0" y1="0" x2="1000.0" y2="60" stroke="lightgray"/>
<circle cx="417.9329226557153" cy="2.666666666666667" r="2" stroke="black" fill="black"/>
<circle cx="437.09787816564" cy="40.0" r="2" stroke="black" fill="black"/>
<circle cx="460.0730093543235" cy="2.3333333333333335" r="2" stroke="black" fill="black"/>
<circle cx="686.219484371435" cy="12.666666666666666" r="2" stroke="black" fill="black"/>
<circle cx="701.5514487793749" cy="17.666666666666668" r="2" stroke="black" fill="black"/>
<circle cx="759.0463153091489" cy="24.0" r="2" stroke="black" fill="black"/>
<circle cx="805.0650239561944" cy="22.333333333333336" r="2" stroke="black" fill="black"/>
<circle cx="866.3700661647274" cy="0.6666666666666667" r="2" stroke="black" fill="black"/>
<circle cx="939.1968971024412" cy="18.333333333333336" r="2" stroke="black" fill="black"/>
<circle cx="973.7166324435318" cy="18.666666666666668" r="2" stroke="black" fill="black"/>
</svg>
