<svg viewBox="0, 0, 1000, 60" width="100%" height="100%" xmlns="http://www.w3.org/2000/svg">

<text x="0" y="30">
14 Pasarelska
</text>
<line x1="200" y1="0" x2="1000" y2="0" stroke="lightgray"/>
<line x1="200" y1="20.0" x2="1000" y2="20.0" stroke="lightgray"/>
<line x1="200" y1="40.0" x2="1000" y2="40.0" stroke="lightgray"/>
<line x1="200" y1="60" x2="1000" y2="60" stroke="lightgray"/>
<line x1="200.0" y1="0" x2="200.0" y2="60" stroke="lightgray"/>
<line x1="400.0" y1="0" x2="400.0" y2="60" stroke="lightgray"/>
<line x1="600.0" y1="0" x2="600.0" y2="60" stroke="lightgray"/>
<line x1="800.0" y1="0" x2="800.0" y2="60" stroke="lightgray"/>
<line x1="1000.0" y1="0" x2="1000.0" y2="60" stroke="lightgray"/>
<circle cx="371.93702943189595" cy="42.333333333333336" r="2" stroke="black" fill="black"/>
<circle cx="383.4360027378508" cy="52.0" r="2" stroke="black" fill="black"/>
<circle cx="506.0689025781428" cy="32.666666666666664" r="2" stroke="black" fill="black"/>
<circle cx="529.0668491900525" cy="40.333333333333336" r="2" stroke="black" fill="black"/>
<circle cx="751.380333105179" cy="44.333333333333336" r="2" stroke="black" fill="black"/>
<circle cx="866.3700661647274" cy="49.0" r="2" stroke="black" fill="black"/>
<circle cx="935.3639060004564" cy="42.333333333333336" r="2" stroke="black" fill="black"/>
<circle cx="939.1968971024412" cy="51.66666666666667" r="2" stroke="black" fill="black"/>
<circle cx="318.2523385808807" cy="38.0" r="2" stroke="blue" fill="blue"/>
<circle cx="341.25028519279033" cy="12.666666666666666" r="2" stroke="blue" fill="blue"/>
<circle cx="954.528861510381" cy="37.333333333333336" r="2" stroke="blue" fill="blue"/>
<circle cx="348.9162673967602" cy="49.33333333333333" r="2" stroke="green" fill="green"/>
<circle cx="586.5845311430527" cy="47.33333333333333" r="2" stroke="red" fill="red"/>
</svg>
