<svg viewBox="0, 0, 1000, 60" width="100%" height="100%" xmlns="http://www.w3.org/2000/svg">

<text x="0" y="30">
14 Sestorka
</text>
<line x1="200" y1="0" x2="1000" y2="0" stroke="lightgray"/>
<line x1="200" y1="20.0" x2="1000" y2="20.0" stroke="lightgray"/>
<line x1="200" y1="40.0" x2="1000" y2="40.0" stroke="lightgray"/>
<line x1="200" y1="60" x2="1000" y2="60" stroke="lightgray"/>
<line x1="200.0" y1="0" x2="200.0" y2="60" stroke="lightgray"/>
<line x1="400.0" y1="0" x2="400.0" y2="60" stroke="lightgray"/>
<line x1="600.0" y1="0" x2="600.0" y2="60" stroke="lightgray"/>
<line x1="800.0" y1="0" x2="800.0" y2="60" stroke="lightgray"/>
<line x1="1000.0" y1="0" x2="1000.0" y2="60" stroke="lightgray"/>
<circle cx="452.40702715035366" cy="28.0" r="2" stroke="black" fill="black"/>
<circle cx="529.0668491900525" cy="28.666666666666668" r="2" stroke="black" fill="black"/>
<circle cx="552.0647958019622" cy="32.666666666666664" r="2" stroke="black" fill="black"/>
<circle cx="655.5555555555555" cy="30.333333333333332" r="2" stroke="black" fill="black"/>
<circle cx="805.0650239561944" cy="45.0" r="2" stroke="black" fill="black"/>
<circle cx="828.062970568104" cy="35.666666666666664" r="2" stroke="black" fill="black"/>
<circle cx="835.7289527720739" cy="43.333333333333336" r="2" stroke="black" fill="black"/>
<circle cx="851.0381017567876" cy="36.0" r="2" stroke="black" fill="black"/>
<circle cx="866.3700661647274" cy="36.66666666666667" r="2" stroke="black" fill="black"/>
<circle cx="881.7020305726671" cy="42.66666666666667" r="2" stroke="black" fill="black"/>
<circle cx="912.3659593885467" cy="38.0" r="2" stroke="black" fill="black"/>
<circle cx="935.3639060004564" cy="43.333333333333336" r="2" stroke="black" fill="black"/>
<circle cx="851.0381017567876" cy="36.0" r="2" stroke="blue" fill="blue"/>
</svg>
