<svg viewBox="0, 0, 1000, 60" width="100%" height="100%" xmlns="http://www.w3.org/2000/svg">

<text x="0" y="30">
14 Gras Kalo
</text>
<line x1="200" y1="0" x2="1000" y2="0" stroke="lightgray"/>
<line x1="200" y1="20.0" x2="1000" y2="20.0" stroke="lightgray"/>
<line x1="200" y1="40.0" x2="1000" y2="40.0" stroke="lightgray"/>
<line x1="200" y1="60" x2="1000" y2="60" stroke="lightgray"/>
<line x1="200.0" y1="0" x2="200.0" y2="60" stroke="lightgray"/>
<line x1="400.0" y1="0" x2="400.0" y2="60" stroke="lightgray"/>
<line x1="600.0" y1="0" x2="600.0" y2="60" stroke="lightgray"/>
<line x1="800.0" y1="0" x2="800.0" y2="60" stroke="lightgray"/>
<line x1="1000.0" y1="0" x2="1000.0" y2="60" stroke="lightgray"/>
<circle cx="310.58635637691077" cy="6.0" r="2" stroke="black" fill="black"/>
<circle cx="318.2523385808807" cy="32.0" r="2" stroke="black" fill="black"/>
<circle cx="356.58224960073005" cy="18.333333333333336" r="2" stroke="black" fill="black"/>
<circle cx="364.2482318047" cy="24.0" r="2" stroke="black" fill="black"/>
<circle cx="398.7679671457905" cy="43.0" r="2" stroke="black" fill="black"/>
<circle cx="406.4339493497605" cy="4.0" r="2" stroke="black" fill="black"/>
<circle cx="444.74104494638374" cy="17.0" r="2" stroke="black" fill="black"/>
<circle cx="529.0668491900525" cy="37.0" r="2" stroke="black" fill="black"/>
<circle cx="552.0647958019622" cy="43.666666666666664" r="2" stroke="black" fill="black"/>
<circle cx="663.2215377595254" cy="32.0" r="2" stroke="black" fill="black"/>
<circle cx="728.3823864932695" cy="27.666666666666668" r="2" stroke="black" fill="black"/>
<circle cx="843.3721195528177" cy="17.0" r="2" stroke="black" fill="black"/>
<circle cx="977.5496235455169" cy="19.666666666666668" r="2" stroke="black" fill="black"/>
</svg>
