<svg viewBox="0, 0, 1000, 60" width="100%" height="100%" xmlns="http://www.w3.org/2000/svg">

<text x="0" y="30">
14 Opinca
</text>
<line x1="200" y1="0" x2="1000" y2="0" stroke="lightgray"/>
<line x1="200" y1="20.0" x2="1000" y2="20.0" stroke="lightgray"/>
<line x1="200" y1="40.0" x2="1000" y2="40.0" stroke="lightgray"/>
<line x1="200" y1="60" x2="1000" y2="60" stroke="lightgray"/>
<line x1="200.0" y1="0" x2="200.0" y2="60" stroke="lightgray"/>
<line x1="400.0" y1="0" x2="400.0" y2="60" stroke="lightgray"/>
<line x1="600.0" y1="0" x2="600.0" y2="60" stroke="lightgray"/>
<line x1="800.0" y1="0" x2="800.0" y2="60" stroke="lightgray"/>
<line x1="1000.0" y1="0" x2="1000.0" y2="60" stroke="lightgray"/>
<circle cx="310.58635637691077" cy="34.33333333333333" r="2" stroke="black" fill="black"/>
<circle cx="348.9162673967602" cy="50.666666666666664" r="2" stroke="black" fill="black"/>
<circle cx="356.58224960073005" cy="52.0" r="2" stroke="black" fill="black"/>
<circle cx="364.2482318047" cy="26.666666666666664" r="2" stroke="black" fill="black"/>
<circle cx="391.10198494182066" cy="39.333333333333336" r="2" stroke="black" fill="black"/>
<circle cx="444.74104494638374" cy="46.0" r="2" stroke="black" fill="black"/>
<circle cx="452.40702715035366" cy="25.333333333333332" r="2" stroke="black" fill="black"/>
<circle cx="529.0668491900525" cy="50.666666666666664" r="2" stroke="black" fill="black"/>
<circle cx="678.5535021674652" cy="47.666666666666664" r="2" stroke="black" fill="black"/>
<circle cx="728.3823864932695" cy="43.0" r="2" stroke="black" fill="black"/>
<circle cx="805.0650239561944" cy="38.33333333333333" r="2" stroke="black" fill="black"/>
<circle cx="835.7289527720739" cy="52.333333333333336" r="2" stroke="black" fill="black"/>
<circle cx="889.368012776637" cy="48.333333333333336" r="2" stroke="black" fill="black"/>
<circle cx="966.0278348163358" cy="53.33333333333333" r="2" stroke="black" fill="black"/>
</svg>
