<svg viewBox="0, 0, 1000, 60" width="100%" height="100%" xmlns="http://www.w3.org/2000/svg">

<text x="0" y="30">
13 Dedo Mili Dedo
</text>
<line x1="200" y1="0" x2="1000" y2="0" stroke="lightgray"/>
<line x1="200" y1="20.0" x2="1000" y2="20.0" stroke="lightgray"/>
<line x1="200" y1="40.0" x2="1000" y2="40.0" stroke="lightgray"/>
<line x1="200" y1="60" x2="1000" y2="60" stroke="lightgray"/>
<line x1="200.0" y1="0" x2="200.0" y2="60" stroke="lightgray"/>
<line x1="400.0" y1="0" x2="400.0" y2="60" stroke="lightgray"/>
<line x1="600.0" y1="0" x2="600.0" y2="60" stroke="lightgray"/>
<line x1="800.0" y1="0" x2="800.0" y2="60" stroke="lightgray"/>
<line x1="1000.0" y1="0" x2="1000.0" y2="60" stroke="lightgray"/>
<circle cx="437.09787816564" cy="16.666666666666668" r="2" stroke="black" fill="black"/>
<circle cx="475.4049737622633" cy="36.0" r="2" stroke="black" fill="black"/>
<circle cx="483.0709559662332" cy="37.333333333333336" r="2" stroke="black" fill="black"/>
<circle cx="517.5678758840976" cy="40.66666666666667" r="2" stroke="black" fill="black"/>
<circle cx="552.0647958019622" cy="49.33333333333333" r="2" stroke="black" fill="black"/>
<circle cx="559.730778005932" cy="38.33333333333333" r="2" stroke="black" fill="black"/>
<circle cx="751.380333105179" cy="38.0" r="2" stroke="black" fill="black"/>
<circle cx="774.4010951403149" cy="9.333333333333334" r="2" stroke="black" fill="black"/>
<circle cx="889.368012776637" cy="35.0" r="2" stroke="black" fill="black"/>
<circle cx="897.0339949806068" cy="30.666666666666664" r="2" stroke="black" fill="black"/>
<circle cx="977.5496235455169" cy="47.666666666666664" r="2" stroke="black" fill="black"/>
</svg>
