<svg viewBox="0, 0, 1000, 60" width="100%" height="100%" xmlns="http://www.w3.org/2000/svg">

<text x="0" y="30">
13 Zemer Atik
</text>
<line x1="200" y1="0" x2="1000" y2="0" stroke="lightgray"/>
<line x1="200" y1="20.0" x2="1000" y2="20.0" stroke="lightgray"/>
<line x1="200" y1="40.0" x2="1000" y2="40.0" stroke="lightgray"/>
<line x1="200" y1="60" x2="1000" y2="60" stroke="lightgray"/>
<line x1="200.0" y1="0" x2="200.0" y2="60" stroke="lightgray"/>
<line x1="400.0" y1="0" x2="400.0" y2="60" stroke="lightgray"/>
<line x1="600.0" y1="0" x2="600.0" y2="60" stroke="lightgray"/>
<line x1="800.0" y1="0" x2="800.0" y2="60" stroke="lightgray"/>
<line x1="1000.0" y1="0" x2="1000.0" y2="60" stroke="lightgray"/>
<circle cx="310.58635637691077" cy="4.333333333333333" r="2" stroke="black" fill="black"/>
<circle cx="356.58224960073005" cy="3.333333333333333" r="2" stroke="black" fill="black"/>
<circle cx="371.93702943189595" cy="16.333333333333332" r="2" stroke="black" fill="black"/>
<circle cx="444.74104494638374" cy="3.333333333333333" r="2" stroke="black" fill="black"/>
<circle cx="529.0668491900525" cy="3.0" r="2" stroke="black" fill="black"/>
<circle cx="552.0647958019622" cy="3.6666666666666665" r="2" stroke="black" fill="black"/>
<circle cx="655.5555555555555" cy="17.333333333333332" r="2" stroke="black" fill="black"/>
<circle cx="670.8875199634953" cy="0.33333333333333337" r="2" stroke="black" fill="black"/>
<circle cx="678.5535021674652" cy="12.333333333333332" r="2" stroke="black" fill="black"/>
<circle cx="782.0670773442847" cy="18.0" r="2" stroke="black" fill="black"/>
<circle cx="920.0319415925167" cy="1.0" r="2" stroke="black" fill="black"/>
<circle cx="939.1968971024412" cy="12.666666666666666" r="2" stroke="black" fill="black"/>
</svg>
