<svg viewBox="0, 0, 1000, 60" width="100%" height="100%" xmlns="http://www.w3.org/2000/svg">

<text x="0" y="30">
13 Pomaško Širto
</text>
<line x1="200" y1="0" x2="1000" y2="0" stroke="lightgray"/>
<line x1="200" y1="20.0" x2="1000" y2="20.0" stroke="lightgray"/>
<line x1="200" y1="40.0" x2="1000" y2="40.0" stroke="lightgray"/>
<line x1="200" y1="60" x2="1000" y2="60" stroke="lightgray"/>
<line x1="200.0" y1="0" x2="200.0" y2="60" stroke="lightgray"/>
<line x1="400.0" y1="0" x2="400.0" y2="60" stroke="lightgray"/>
<line x1="600.0" y1="0" x2="600.0" y2="60" stroke="lightgray"/>
<line x1="800.0" y1="0" x2="800.0" y2="60" stroke="lightgray"/>
<line x1="1000.0" y1="0" x2="1000.0" y2="60" stroke="lightgray"/>
<circle cx="310.58635637691077" cy="16.333333333333332" r="2" stroke="black" fill="black"/>
<circle cx="341.25028519279033" cy="32.33333333333333" r="2" stroke="black" fill="black"/>
<circle cx="391.10198494182066" cy="55.0" r="2" stroke="black" fill="black"/>
<circle cx="429.4318959616701" cy="55.333333333333336" r="2" stroke="black" fill="black"/>
<circle cx="444.74104494638374" cy="27.666666666666668" r="2" stroke="black" fill="black"/>
<circle cx="494.569929272188" cy="55.66666666666667" r="2" stroke="black" fill="black"/>
<circle cx="529.0668491900525" cy="52.0" r="2" stroke="black" fill="black"/>
<circle cx="559.730778005932" cy="34.0" r="2" stroke="black" fill="black"/>
<circle cx="655.5555555555555" cy="55.66666666666667" r="2" stroke="black" fill="black"/>
<circle cx="670.8875199634953" cy="51.33333333333333" r="2" stroke="black" fill="black"/>
<circle cx="686.219484371435" cy="31.666666666666668" r="2" stroke="black" fill="black"/>
<circle cx="858.7040839607574" cy="53.0" r="2" stroke="black" fill="black"/>
<circle cx="881.7020305726671" cy="37.333333333333336" r="2" stroke="black" fill="black"/>
</svg>
