<svg viewBox="0, 0, 1000, 60" width="100%" height="100%" xmlns="http://www.w3.org/2000/svg">

<text x="0" y="30">
13 Sa
</text>
<line x1="200" y1="0" x2="1000" y2="0" stroke="lightgray"/>
<line x1="200" y1="20.0" x2="1000" y2="20.0" stroke="lightgray"/>
<line x1="200" y1="40.0" x2="1000" y2="40.0" stroke="lightgray"/>
<line x1="200" y1="60" x2="1000" y2="60" stroke="lightgray"/>
<line x1="200.0" y1="0" x2="200.0" y2="60" stroke="lightgray"/>
<line x1="400.0" y1="0" x2="400.0" y2="60" stroke="lightgray"/>
<line x1="600.0" y1="0" x2="600.0" y2="60" stroke="lightgray"/>
<line x1="800.0" y1="0" x2="800.0" y2="60" stroke="lightgray"/>
<line x1="1000.0" y1="0" x2="1000.0" y2="60" stroke="lightgray"/>
<circle cx="325.91832078485055" cy="7.666666666666666" r="2" stroke="black" fill="black"/>
<circle cx="356.58224960073005" cy="1.0" r="2" stroke="black" fill="black"/>
<circle cx="383.4360027378508" cy="1.0" r="2" stroke="black" fill="black"/>
<circle cx="452.40702715035366" cy="11.0" r="2" stroke="black" fill="black"/>
<circle cx="483.0709559662332" cy="24.666666666666664" r="2" stroke="black" fill="black"/>
<circle cx="506.0689025781428" cy="13.333333333333332" r="2" stroke="black" fill="black"/>
<circle cx="529.0668491900525" cy="30.333333333333332" r="2" stroke="black" fill="black"/>
<circle cx="632.580424366872" cy="11.0" r="2" stroke="black" fill="black"/>
<circle cx="835.7289527720739" cy="23.666666666666664" r="2" stroke="black" fill="black"/>
<circle cx="889.368012776637" cy="24.333333333333332" r="2" stroke="black" fill="black"/>
<circle cx="318.2523385808807" cy="41.333333333333336" r="2" stroke="blue" fill="blue"/>
<circle cx="417.9329226557153" cy="7.333333333333333" r="2" stroke="green" fill="green"/>
</svg>
