<svg viewBox="0, 0, 1000, 60" width="100%" height="100%" xmlns="http://www.w3.org/2000/svg">

<text x="0" y="30">
12 Primavera En Salonico
</text>
<line x1="200" y1="0" x2="1000" y2="0" stroke="lightgray"/>
<line x1="200" y1="20.0" x2="1000" y2="20.0" stroke="lightgray"/>
<line x1="200" y1="40.0" x2="1000" y2="40.0" stroke="lightgray"/>
<line x1="200" y1="60" x2="1000" y2="60" stroke="lightgray"/>
<line x1="200.0" y1="0" x2="200.0" y2="60" stroke="lightgray"/>
<line x1="400.0" y1="0" x2="400.0" y2="60" stroke="lightgray"/>
<line x1="600.0" y1="0" x2="600.0" y2="60" stroke="lightgray"/>
<line x1="800.0" y1="0" x2="800.0" y2="60" stroke="lightgray"/>
<line x1="1000.0" y1="0" x2="1000.0" y2="60" stroke="lightgray"/>
<circle cx="417.9329226557153" cy="34.666666666666664" r="2" stroke="black" fill="black"/>
<circle cx="444.74104494638374" cy="14.0" r="2" stroke="black" fill="black"/>
<circle cx="467.7389915582934" cy="33.0" r="2" stroke="black" fill="black"/>
<circle cx="483.0709559662332" cy="22.333333333333336" r="2" stroke="black" fill="black"/>
<circle cx="529.0668491900525" cy="22.666666666666664" r="2" stroke="black" fill="black"/>
<circle cx="552.0647958019622" cy="33.333333333333336" r="2" stroke="black" fill="black"/>
<circle cx="559.730778005932" cy="36.33333333333333" r="2" stroke="black" fill="black"/>
<circle cx="655.5555555555555" cy="14.666666666666666" r="2" stroke="black" fill="black"/>
<circle cx="663.2215377595254" cy="6.666666666666666" r="2" stroke="black" fill="black"/>
<circle cx="843.3721195528177" cy="40.0" r="2" stroke="black" fill="black"/>
<circle cx="954.528861510381" cy="27.333333333333332" r="2" stroke="black" fill="black"/>
</svg>
