<svg viewBox="0, 0, 1000, 60" width="100%" height="100%" xmlns="http://www.w3.org/2000/svg">

<text x="0" y="30">
12 Valle Nuseve Nga Korca
</text>
<line x1="200" y1="0" x2="1000" y2="0" stroke="lightgray"/>
<line x1="200" y1="20.0" x2="1000" y2="20.0" stroke="lightgray"/>
<line x1="200" y1="40.0" x2="1000" y2="40.0" stroke="lightgray"/>
<line x1="200" y1="60" x2="1000" y2="60" stroke="lightgray"/>
<line x1="200.0" y1="0" x2="200.0" y2="60" stroke="lightgray"/>
<line x1="400.0" y1="0" x2="400.0" y2="60" stroke="lightgray"/>
<line x1="600.0" y1="0" x2="600.0" y2="60" stroke="lightgray"/>
<line x1="800.0" y1="0" x2="800.0" y2="60" stroke="lightgray"/>
<line x1="1000.0" y1="0" x2="1000.0" y2="60" stroke="lightgray"/>
<circle cx="337.4172940908054" cy="51.66666666666667" r="2" stroke="black" fill="black"/>
<circle cx="398.7679671457905" cy="31.333333333333336" r="2" stroke="black" fill="black"/>
<circle cx="421.7659137577002" cy="51.0" r="2" stroke="black" fill="black"/>
<circle cx="536.7328313940224" cy="5.333333333333334" r="2" stroke="black" fill="black"/>
<circle cx="716.8834131873147" cy="46.0" r="2" stroke="black" fill="black"/>
<circle cx="782.0670773442847" cy="52.0" r="2" stroke="black" fill="black"/>
<circle cx="797.3990417522244" cy="42.0" r="2" stroke="black" fill="black"/>
<circle cx="866.3700661647274" cy="51.66666666666667" r="2" stroke="black" fill="black"/>
<circle cx="889.368012776637" cy="40.66666666666667" r="2" stroke="black" fill="black"/>
<circle cx="939.1968971024412" cy="49.666666666666664" r="2" stroke="black" fill="black"/>
<circle cx="950.6958704083961" cy="50.666666666666664" r="2" stroke="black" fill="black"/>
<circle cx="966.0278348163358" cy="36.33333333333333" r="2" stroke="black" fill="black"/>
</svg>
