<svg viewBox="0, 0, 1000, 60" width="100%" height="100%" xmlns="http://www.w3.org/2000/svg">

<text x="0" y="30">
12 Mechol Hasheket
</text>
<line x1="200" y1="0" x2="1000" y2="0" stroke="lightgray"/>
<line x1="200" y1="20.0" x2="1000" y2="20.0" stroke="lightgray"/>
<line x1="200" y1="40.0" x2="1000" y2="40.0" stroke="lightgray"/>
<line x1="200" y1="60" x2="1000" y2="60" stroke="lightgray"/>
<line x1="200.0" y1="0" x2="200.0" y2="60" stroke="lightgray"/>
<line x1="400.0" y1="0" x2="400.0" y2="60" stroke="lightgray"/>
<line x1="600.0" y1="0" x2="600.0" y2="60" stroke="lightgray"/>
<line x1="800.0" y1="0" x2="800.0" y2="60" stroke="lightgray"/>
<line x1="1000.0" y1="0" x2="1000.0" y2="60" stroke="lightgray"/>
<circle cx="325.91832078485055" cy="6.666666666666666" r="2" stroke="black" fill="black"/>
<circle cx="632.580424366872" cy="15.333333333333332" r="2" stroke="black" fill="black"/>
<circle cx="655.5555555555555" cy="35.666666666666664" r="2" stroke="black" fill="black"/>
<circle cx="663.2215377595254" cy="11.333333333333332" r="2" stroke="black" fill="black"/>
<circle cx="670.8875199634953" cy="56.333333333333336" r="2" stroke="black" fill="black"/>
<circle cx="716.8834131873147" cy="6.0" r="2" stroke="black" fill="black"/>
<circle cx="751.380333105179" cy="6.0" r="2" stroke="black" fill="black"/>
<circle cx="759.0463153091489" cy="28.666666666666668" r="2" stroke="black" fill="black"/>
<circle cx="843.3721195528177" cy="11.0" r="2" stroke="black" fill="black"/>
<circle cx="866.3700661647274" cy="7.666666666666666" r="2" stroke="black" fill="black"/>
<circle cx="912.3659593885467" cy="1.3333333333333335" r="2" stroke="black" fill="black"/>
<circle cx="920.0319415925167" cy="41.666666666666664" r="2" stroke="black" fill="black"/>
</svg>
