<svg viewBox="0, 0, 1000, 60" width="100%" height="100%" xmlns="http://www.w3.org/2000/svg">

<text x="0" y="30">
12 Changerais-tu
</text>
<line x1="200" y1="0" x2="1000" y2="0" stroke="lightgray"/>
<line x1="200" y1="20.0" x2="1000" y2="20.0" stroke="lightgray"/>
<line x1="200" y1="40.0" x2="1000" y2="40.0" stroke="lightgray"/>
<line x1="200" y1="60" x2="1000" y2="60" stroke="lightgray"/>
<line x1="200.0" y1="0" x2="200.0" y2="60" stroke="lightgray"/>
<line x1="400.0" y1="0" x2="400.0" y2="60" stroke="lightgray"/>
<line x1="600.0" y1="0" x2="600.0" y2="60" stroke="lightgray"/>
<line x1="800.0" y1="0" x2="800.0" y2="60" stroke="lightgray"/>
<line x1="1000.0" y1="0" x2="1000.0" y2="60" stroke="lightgray"/>
<circle cx="310.58635637691077" cy="1.3333333333333335" r="2" stroke="black" fill="black"/>
<circle cx="341.25028519279033" cy="3.0" r="2" stroke="black" fill="black"/>
<circle cx="348.9162673967602" cy="4.333333333333333" r="2" stroke="black" fill="black"/>
<circle cx="398.7679671457905" cy="16.666666666666668" r="2" stroke="black" fill="black"/>
<circle cx="483.0709559662332" cy="17.0" r="2" stroke="black" fill="black"/>
<circle cx="571.252566735113" cy="8.666666666666666" r="2" stroke="black" fill="black"/>
<circle cx="682.3864932694502" cy="6.0" r="2" stroke="black" fill="black"/>
<circle cx="701.5514487793749" cy="8.666666666666666" r="2" stroke="black" fill="black"/>
<circle cx="782.0670773442847" cy="8.666666666666666" r="2" stroke="black" fill="black"/>
<circle cx="812.7310061601643" cy="6.0" r="2" stroke="black" fill="black"/>
<circle cx="904.6999771845767" cy="23.0" r="2" stroke="black" fill="black"/>
<circle cx="920.0319415925167" cy="29.333333333333332" r="2" stroke="black" fill="black"/>
</svg>
