<svg viewBox="0, 0, 1000, 60" width="100%" height="100%" xmlns="http://www.w3.org/2000/svg">

<text x="0" y="30">
11 Cumbia Semana
</text>
<line x1="200" y1="0" x2="1000" y2="0" stroke="lightgray"/>
<line x1="200" y1="20.0" x2="1000" y2="20.0" stroke="lightgray"/>
<line x1="200" y1="40.0" x2="1000" y2="40.0" stroke="lightgray"/>
<line x1="200" y1="60" x2="1000" y2="60" stroke="lightgray"/>
<line x1="200.0" y1="0" x2="200.0" y2="60" stroke="lightgray"/>
<line x1="400.0" y1="0" x2="400.0" y2="60" stroke="lightgray"/>
<line x1="600.0" y1="0" x2="600.0" y2="60" stroke="lightgray"/>
<line x1="800.0" y1="0" x2="800.0" y2="60" stroke="lightgray"/>
<line x1="1000.0" y1="0" x2="1000.0" y2="60" stroke="lightgray"/>
<circle cx="851.0381017567876" cy="33.333333333333336" r="2" stroke="black" fill="black"/>
<circle cx="858.7040839607574" cy="12.0" r="2" stroke="black" fill="black"/>
<circle cx="866.3700661647274" cy="11.666666666666666" r="2" stroke="black" fill="black"/>
<circle cx="897.0339949806068" cy="27.333333333333332" r="2" stroke="black" fill="black"/>
<circle cx="920.0319415925167" cy="39.666666666666664" r="2" stroke="black" fill="black"/>
<circle cx="939.1968971024412" cy="30.0" r="2" stroke="black" fill="black"/>
<circle cx="950.6958704083961" cy="42.333333333333336" r="2" stroke="black" fill="black"/>
<circle cx="966.0278348163358" cy="29.333333333333332" r="2" stroke="black" fill="black"/>
<circle cx="973.7166324435318" cy="11.333333333333332" r="2" stroke="black" fill="black"/>
<circle cx="977.5496235455169" cy="25.333333333333332" r="2" stroke="black" fill="black"/>
<circle cx="843.3721195528177" cy="34.33333333333333" r="2" stroke="blue" fill="blue"/>
</svg>
