<svg viewBox="0, 0, 1000, 60" width="100%" height="100%" xmlns="http://www.w3.org/2000/svg">

<text x="0" y="30">
11 Ovcepolsko Oro
</text>
<line x1="200" y1="0" x2="1000" y2="0" stroke="lightgray"/>
<line x1="200" y1="20.0" x2="1000" y2="20.0" stroke="lightgray"/>
<line x1="200" y1="40.0" x2="1000" y2="40.0" stroke="lightgray"/>
<line x1="200" y1="60" x2="1000" y2="60" stroke="lightgray"/>
<line x1="200.0" y1="0" x2="200.0" y2="60" stroke="lightgray"/>
<line x1="400.0" y1="0" x2="400.0" y2="60" stroke="lightgray"/>
<line x1="600.0" y1="0" x2="600.0" y2="60" stroke="lightgray"/>
<line x1="800.0" y1="0" x2="800.0" y2="60" stroke="lightgray"/>
<line x1="1000.0" y1="0" x2="1000.0" y2="60" stroke="lightgray"/>
<circle cx="318.2523385808807" cy="42.333333333333336" r="2" stroke="black" fill="black"/>
<circle cx="417.9329226557153" cy="49.33333333333333" r="2" stroke="black" fill="black"/>
<circle cx="429.4318959616701" cy="38.66666666666667" r="2" stroke="black" fill="black"/>
<circle cx="437.09787816564" cy="50.333333333333336" r="2" stroke="black" fill="black"/>
<circle cx="502.23591147615787" cy="40.0" r="2" stroke="black" fill="black"/>
<circle cx="517.5678758840976" cy="49.666666666666664" r="2" stroke="black" fill="black"/>
<circle cx="805.0650239561944" cy="51.0" r="2" stroke="black" fill="black"/>
<circle cx="828.062970568104" cy="48.666666666666664" r="2" stroke="black" fill="black"/>
<circle cx="851.0381017567876" cy="54.333333333333336" r="2" stroke="black" fill="black"/>
<circle cx="858.7040839607574" cy="48.333333333333336" r="2" stroke="black" fill="black"/>
<circle cx="935.3639060004564" cy="46.666666666666664" r="2" stroke="black" fill="black"/>
</svg>
