<svg viewBox="0, 0, 1000, 60" width="100%" height="100%" xmlns="http://www.w3.org/2000/svg">

<text x="0" y="30">
11 Mastika
</text>
<line x1="200" y1="0" x2="1000" y2="0" stroke="lightgray"/>
<line x1="200" y1="20.0" x2="1000" y2="20.0" stroke="lightgray"/>
<line x1="200" y1="40.0" x2="1000" y2="40.0" stroke="lightgray"/>
<line x1="200" y1="60" x2="1000" y2="60" stroke="lightgray"/>
<line x1="200.0" y1="0" x2="200.0" y2="60" stroke="lightgray"/>
<line x1="400.0" y1="0" x2="400.0" y2="60" stroke="lightgray"/>
<line x1="600.0" y1="0" x2="600.0" y2="60" stroke="lightgray"/>
<line x1="800.0" y1="0" x2="800.0" y2="60" stroke="lightgray"/>
<line x1="1000.0" y1="0" x2="1000.0" y2="60" stroke="lightgray"/>
<circle cx="341.25028519279033" cy="23.333333333333332" r="2" stroke="black" fill="black"/>
<circle cx="348.9162673967602" cy="30.666666666666664" r="2" stroke="black" fill="black"/>
<circle cx="417.9329226557153" cy="19.333333333333336" r="2" stroke="black" fill="black"/>
<circle cx="483.0709559662332" cy="54.0" r="2" stroke="black" fill="black"/>
<circle cx="494.569929272188" cy="54.333333333333336" r="2" stroke="black" fill="black"/>
<circle cx="559.730778005932" cy="53.0" r="2" stroke="black" fill="black"/>
<circle cx="782.0670773442847" cy="53.0" r="2" stroke="black" fill="black"/>
<circle cx="935.3639060004564" cy="48.666666666666664" r="2" stroke="black" fill="black"/>
<circle cx="973.7166324435318" cy="47.33333333333333" r="2" stroke="black" fill="black"/>
<circle cx="364.2482318047" cy="12.333333333333332" r="2" stroke="blue" fill="blue"/>
<circle cx="398.7679671457905" cy="38.33333333333333" r="2" stroke="blue" fill="blue"/>
</svg>
