<svg viewBox="0, 0, 1000, 60" width="100%" height="100%" xmlns="http://www.w3.org/2000/svg">

<text x="0" y="30">
11 Letsi
</text>
<line x1="200" y1="0" x2="1000" y2="0" stroke="lightgray"/>
<line x1="200" y1="20.0" x2="1000" y2="20.0" stroke="lightgray"/>
<line x1="200" y1="40.0" x2="1000" y2="40.0" stroke="lightgray"/>
<line x1="200" y1="60" x2="1000" y2="60" stroke="lightgray"/>
<line x1="200.0" y1="0" x2="200.0" y2="60" stroke="lightgray"/>
<line x1="400.0" y1="0" x2="400.0" y2="60" stroke="lightgray"/>
<line x1="600.0" y1="0" x2="600.0" y2="60" stroke="lightgray"/>
<line x1="800.0" y1="0" x2="800.0" y2="60" stroke="lightgray"/>
<line x1="1000.0" y1="0" x2="1000.0" y2="60" stroke="lightgray"/>
<circle cx="318.2523385808807" cy="38.66666666666667" r="2" stroke="black" fill="black"/>
<circle cx="325.91832078485055" cy="44.0" r="2" stroke="black" fill="black"/>
<circle cx="337.4172940908054" cy="38.66666666666667" r="2" stroke="black" fill="black"/>
<circle cx="348.9162673967602" cy="38.0" r="2" stroke="black" fill="black"/>
<circle cx="429.4318959616701" cy="54.666666666666664" r="2" stroke="black" fill="black"/>
<circle cx="529.0668491900525" cy="53.33333333333333" r="2" stroke="black" fill="black"/>
<circle cx="716.8834131873147" cy="52.0" r="2" stroke="black" fill="black"/>
<circle cx="774.4010951403149" cy="45.33333333333333" r="2" stroke="black" fill="black"/>
<circle cx="828.062970568104" cy="47.666666666666664" r="2" stroke="black" fill="black"/>
<circle cx="881.7020305726671" cy="49.33333333333333" r="2" stroke="black" fill="black"/>
<circle cx="935.3639060004564" cy="54.0" r="2" stroke="black" fill="black"/>
</svg>
