<svg viewBox="0, 0, 1000, 60" width="100%" height="100%" xmlns="http://www.w3.org/2000/svg">

<text x="0" y="30">
11 Hopa Hopa
</text>
<line x1="200" y1="0" x2="1000" y2="0" stroke="lightgray"/>
<line x1="200" y1="20.0" x2="1000" y2="20.0" stroke="lightgray"/>
<line x1="200" y1="40.0" x2="1000" y2="40.0" stroke="lightgray"/>
<line x1="200" y1="60" x2="1000" y2="60" stroke="lightgray"/>
<line x1="200.0" y1="0" x2="200.0" y2="60" stroke="lightgray"/>
<line x1="400.0" y1="0" x2="400.0" y2="60" stroke="lightgray"/>
<line x1="600.0" y1="0" x2="600.0" y2="60" stroke="lightgray"/>
<line x1="800.0" y1="0" x2="800.0" y2="60" stroke="lightgray"/>
<line x1="1000.0" y1="0" x2="1000.0" y2="60" stroke="lightgray"/>
<circle cx="337.4172940908054" cy="4.0" r="2" stroke="black" fill="black"/>
<circle cx="348.9162673967602" cy="36.33333333333333" r="2" stroke="black" fill="black"/>
<circle cx="437.09787816564" cy="28.333333333333332" r="2" stroke="black" fill="black"/>
<circle cx="460.0730093543235" cy="22.0" r="2" stroke="black" fill="black"/>
<circle cx="475.4049737622633" cy="40.66666666666667" r="2" stroke="black" fill="black"/>
<circle cx="494.569929272188" cy="35.333333333333336" r="2" stroke="black" fill="black"/>
<circle cx="529.0668491900525" cy="25.0" r="2" stroke="black" fill="black"/>
<circle cx="536.7328313940224" cy="33.666666666666664" r="2" stroke="black" fill="black"/>
<circle cx="678.5535021674652" cy="31.333333333333336" r="2" stroke="black" fill="black"/>
<circle cx="701.5514487793749" cy="26.666666666666664" r="2" stroke="black" fill="black"/>
<circle cx="954.528861510381" cy="50.666666666666664" r="2" stroke="black" fill="black"/>
</svg>
