<svg viewBox="0, 0, 1000, 60" width="100%" height="100%" xmlns="http://www.w3.org/2000/svg">

<text x="0" y="30">
11 Hora Dupa Anton Pann
</text>
<line x1="200" y1="0" x2="1000" y2="0" stroke="lightgray"/>
<line x1="200" y1="20.0" x2="1000" y2="20.0" stroke="lightgray"/>
<line x1="200" y1="40.0" x2="1000" y2="40.0" stroke="lightgray"/>
<line x1="200" y1="60" x2="1000" y2="60" stroke="lightgray"/>
<line x1="200.0" y1="0" x2="200.0" y2="60" stroke="lightgray"/>
<line x1="400.0" y1="0" x2="400.0" y2="60" stroke="lightgray"/>
<line x1="600.0" y1="0" x2="600.0" y2="60" stroke="lightgray"/>
<line x1="800.0" y1="0" x2="800.0" y2="60" stroke="lightgray"/>
<line x1="1000.0" y1="0" x2="1000.0" y2="60" stroke="lightgray"/>
<circle cx="429.4318959616701" cy="32.33333333333333" r="2" stroke="black" fill="black"/>
<circle cx="437.09787816564" cy="53.33333333333333" r="2" stroke="black" fill="black"/>
<circle cx="444.74104494638374" cy="31.333333333333336" r="2" stroke="black" fill="black"/>
<circle cx="452.40702715035366" cy="41.0" r="2" stroke="black" fill="black"/>
<circle cx="467.7389915582934" cy="43.666666666666664" r="2" stroke="black" fill="black"/>
<circle cx="502.23591147615787" cy="36.66666666666667" r="2" stroke="black" fill="black"/>
<circle cx="663.2215377595254" cy="26.666666666666664" r="2" stroke="black" fill="black"/>
<circle cx="670.8875199634953" cy="40.66666666666667" r="2" stroke="black" fill="black"/>
<circle cx="782.0670773442847" cy="32.666666666666664" r="2" stroke="black" fill="black"/>
<circle cx="851.0381017567876" cy="42.66666666666667" r="2" stroke="black" fill="black"/>
<circle cx="858.7040839607574" cy="45.33333333333333" r="2" stroke="black" fill="black"/>
</svg>
