<svg viewBox="0, 0, 1000, 60" width="100%" height="100%" xmlns="http://www.w3.org/2000/svg">

<text x="0" y="30">
174 &lt;3
</text>
<line x1="200" y1="0" x2="1000" y2="0" stroke="lightgray"/>
<line x1="200" y1="20.0" x2="1000" y2="20.0" stroke="lightgray"/>
<line x1="200" y1="40.0" x2="1000" y2="40.0" stroke="lightgray"/>
<line x1="200" y1="60" x2="1000" y2="60" stroke="lightgray"/>
<line x1="200.0" y1="0" x2="200.0" y2="60" stroke="lightgray"/>
<line x1="400.0" y1="0" x2="400.0" y2="60" stroke="lightgray"/>
<line x1="600.0" y1="0" x2="600.0" y2="60" stroke="lightgray"/>
<line x1="800.0" y1="0" x2="800.0" y2="60" stroke="lightgray"/>
<line x1="1000.0" y1="0" x2="1000.0" y2="60" stroke="lightgray"/>
<circle cx="966.0278348163358" cy="32.33333333333333" r="2" stroke="black" fill="black"/>
<circle cx="973.7166324435318" cy="34.666666666666664" r="2" stroke="black" fill="black"/>
<circle cx="897.0339949806068" cy="39.0" r="2" stroke="black" fill="black"/>
<circle cx="337.4172940908054" cy="50.666666666666664" r="2" stroke="black" fill="black"/>
<circle cx="341.25028519279033" cy="11.666666666666666" r="2" stroke="black" fill="black"/>
<circle cx="670.8875199634953" cy="26.333333333333332" r="2" stroke="black" fill="black"/>
<circle cx="678.5535021674652" cy="24.0" r="2" stroke="black" fill="black"/>
<circle cx="506.0689025781428" cy="39.0" r="2" stroke="black" fill="black"/>
<circle cx="536.7328313940224" cy="40.333333333333336" r="2" stroke="black" fill="black"/>
<circle cx="678.5535021674652" cy="53.0" r="2" stroke="black" fill="black"/>
<circle cx="728.3823864932695" cy="45.666666666666664" r="2" stroke="black" fill="black"/>
<circle cx="686.219484371435" cy="23.666666666666664" r="2" stroke="black" fill="black"/>
<circle cx="686.219484371435" cy="26.333333333333332" r="2" stroke="black" fill="black"/>
<circle cx="950.6958704083961" cy="41.666666666666664" r="2" stroke="black" fill="black"/>
<circle cx="966.0278348163358" cy="41.0" r="2" stroke="black" fill="black"/>
<circle cx="716.8834131873147" cy="36.66666666666667" r="2" stroke="black" fill="black"/>
<circle cx="797.3990417522244" cy="20.0" r="2" stroke="black" fill="black"/>
<circle cx="517.5678758840976" cy="39.0" r="2" stroke="black" fill="black"/>
<circle cx="655.5555555555555" cy="48.666666666666664" r="2" stroke="black" fill="black"/>
<circle cx="881.7020305726671" cy="35.0" r="2" stroke="black" fill="black"/>
<circle cx="897.0339949806068" cy="33.666666666666664" r="2" stroke="black" fill="black"/>
<circle cx="751.380333105179" cy="14.0" r="2" stroke="black" fill="black"/>
<circle cx="759.0463153091489" cy="41.666666666666664" r="2" stroke="black" fill="black"/>
<circle cx="310.58635637691077" cy="42.333333333333336" r="2" stroke="black" fill="black"/>
<circle cx="364.2482318047" cy="38.0" r="2" stroke="black" fill="black"/>
<circle cx="759.0463153091489" cy="37.0" r="2" stroke="black" fill="black"/>
<circle cx="828.062970568104" cy="41.333333333333336" r="2" stroke="black" fill="black"/>
<circle cx="371.93702943189595" cy="45.666666666666664" r="2" stroke="black" fill="black"/>
<circle cx="628.747433264887" cy="15.666666666666668" r="2" stroke="black" fill="black"/>
<circle cx="774.4010951403149" cy="52.666666666666664" r="2" stroke="black" fill="black"/>
<circle cx="912.3659593885467" cy="53.0" r="2" stroke="black" fill="black"/>
<circle cx="341.25028519279033" cy="7.0" r="2" stroke="black" fill="black"/>
<circle cx="406.4339493497605" cy="10.666666666666668" r="2" stroke="black" fill="black"/>
<circle cx="310.58635637691077" cy="53.66666666666667" r="2" stroke="black" fill="black"/>
<circle cx="391.10198494182066" cy="53.33333333333333" r="2" stroke="black" fill="black"/>
<circle cx="904.6999771845767" cy="4.333333333333333" r="2" stroke="black" fill="black"/>
<circle cx="310.58635637691077" cy="29.666666666666668" r="2" stroke="black" fill="black"/>
<circle cx="383.4360027378508" cy="29.0" r="2" stroke="black" fill="black"/>
<circle cx="437.09787816564" cy="7.666666666666666" r="2" stroke="black" fill="black"/>
<circle cx="678.5535021674652" cy="43.333333333333336" r="2" stroke="black" fill="black"/>
<circle cx="835.7289527720739" cy="42.0" r="2" stroke="black" fill="black"/>
<circle cx="494.569929272188" cy="41.666666666666664" r="2" stroke="black" fill="black"/>
<circle cx="716.8834131873147" cy="38.66666666666667" r="2" stroke="black" fill="black"/>
<circle cx="571.252566735113" cy="28.0" r="2" stroke="black" fill="black"/>
<circle cx="598.0835044490075" cy="22.0" r="2" stroke="black" fill="black"/>
<circle cx="835.7289527720739" cy="36.66666666666667" r="2" stroke="black" fill="black"/>
<circle cx="912.3659593885467" cy="30.0" r="2" stroke="black" fill="black"/>
<circle cx="843.3721195528177" cy="1.3333333333333335" r="2" stroke="black" fill="black"/>
<circle cx="977.5496235455169" cy="4.0" r="2" stroke="black" fill="black"/>
<circle cx="417.9329226557153" cy="42.333333333333336" r="2" stroke="black" fill="black"/>
<circle cx="797.3990417522244" cy="44.0" r="2" stroke="black" fill="black"/>
<circle cx="843.3721195528177" cy="55.0" r="2" stroke="black" fill="black"/>
<circle cx="889.368012776637" cy="51.0" r="2" stroke="black" fill="black"/>
<circle cx="966.0278348163358" cy="30.333333333333332" r="2" stroke="black" fill="black"/>
<circle cx="421.7659137577002" cy="20.333333333333336" r="2" stroke="black" fill="black"/>
<circle cx="904.6999771845767" cy="27.666666666666668" r="2" stroke="black" fill="black"/>
<circle cx="391.10198494182066" cy="8.0" r="2" stroke="black" fill="black"/>
<circle cx="421.7659137577002" cy="37.0" r="2" stroke="black" fill="black"/>
<circle cx="483.0709559662332" cy="33.0" r="2" stroke="black" fill="black"/>
<circle cx="337.4172940908054" cy="19.666666666666668" r="2" stroke="black" fill="black"/>
<circle cx="348.9162673967602" cy="52.666666666666664" r="2" stroke="black" fill="black"/>
<circle cx="325.91832078485055" cy="21.666666666666668" r="2" stroke="black" fill="black"/>
<circle cx="812.7310061601643" cy="23.333333333333332" r="2" stroke="black" fill="black"/>
<circle cx="364.2482318047" cy="15.666666666666668" r="2" stroke="black" fill="black"/>
<circle cx="966.0278348163358" cy="15.333333333333332" r="2" stroke="black" fill="black"/>
<circle cx="325.91832078485055" cy="26.666666666666664" r="2" stroke="black" fill="black"/>
<circle cx="954.528861510381" cy="9.0" r="2" stroke="black" fill="black"/>
<circle cx="502.23591147615787" cy="15.666666666666668" r="2" stroke="black" fill="black"/>
<circle cx="920.0319415925167" cy="42.66666666666667" r="2" stroke="black" fill="black"/>
<circle cx="628.747433264887" cy="42.0" r="2" stroke="black" fill="black"/>
<circle cx="655.5555555555555" cy="43.333333333333336" r="2" stroke="black" fill="black"/>
<circle cx="318.2523385808807" cy="33.0" r="2" stroke="black" fill="black"/>
<circle cx="337.4172940908054" cy="47.33333333333333" r="2" stroke="black" fill="black"/>
<circle cx="391.10198494182066" cy="37.333333333333336" r="2" stroke="black" fill="black"/>
<circle cx="406.4339493497605" cy="43.333333333333336" r="2" stroke="black" fill="black"/>
<circle cx="628.747433264887" cy="53.0" r="2" stroke="black" fill="black"/>
<circle cx="632.580424366872" cy="38.0" r="2" stroke="black" fill="black"/>
<circle cx="406.4339493497605" cy="30.0" r="2" stroke="black" fill="black"/>
<circle cx="429.4318959616701" cy="12.0" r="2" stroke="black" fill="black"/>
<circle cx="356.58224960073005" cy="38.66666666666667" r="2" stroke="black" fill="black"/>
<circle cx="398.7679671457905" cy="14.0" r="2" stroke="black" fill="black"/>
<circle cx="429.4318959616701" cy="48.333333333333336" r="2" stroke="black" fill="black"/>
<circle cx="429.4318959616701" cy="51.33333333333333" r="2" stroke="black" fill="black"/>
<circle cx="337.4172940908054" cy="27.333333333333332" r="2" stroke="black" fill="black"/>
<circle cx="437.09787816564" cy="3.0" r="2" stroke="black" fill="black"/>
<circle cx="437.09787816564" cy="11.666666666666666" r="2" stroke="black" fill="black"/>
<circle cx="437.09787816564" cy="19.333333333333336" r="2" stroke="black" fill="black"/>
<circle cx="437.09787816564" cy="48.0" r="2" stroke="black" fill="black"/>
<circle cx="437.09787816564" cy="51.66666666666667" r="2" stroke="black" fill="black"/>
<circle cx="444.74104494638374" cy="11.0" r="2" stroke="black" fill="black"/>
<circle cx="966.0278348163358" cy="50.666666666666664" r="2" stroke="black" fill="black"/>
<circle cx="452.40702715035366" cy="7.333333333333333" r="2" stroke="black" fill="black"/>
<circle cx="452.40702715035366" cy="53.0" r="2" stroke="black" fill="black"/>
<circle cx="851.0381017567876" cy="47.33333333333333" r="2" stroke="black" fill="black"/>
<circle cx="391.10198494182066" cy="42.66666666666667" r="2" stroke="black" fill="black"/>
<circle cx="866.3700661647274" cy="38.66666666666667" r="2" stroke="black" fill="black"/>
<circle cx="467.7389915582934" cy="46.0" r="2" stroke="black" fill="black"/>
<circle cx="475.4049737622633" cy="13.666666666666666" r="2" stroke="black" fill="black"/>
<circle cx="897.0339949806068" cy="18.333333333333336" r="2" stroke="black" fill="black"/>
<circle cx="391.10198494182066" cy="34.33333333333333" r="2" stroke="black" fill="black"/>
<circle cx="325.91832078485055" cy="2.0" r="2" stroke="black" fill="black"/>
<circle cx="494.569929272188" cy="28.666666666666668" r="2" stroke="black" fill="black"/>
<circle cx="348.9162673967602" cy="34.666666666666664" r="2" stroke="black" fill="black"/>
<circle cx="494.569929272188" cy="38.66666666666667" r="2" stroke="black" fill="black"/>
<circle cx="496.2126397444673" cy="46.0" r="2" stroke="black" fill="black"/>
<circle cx="496.2126397444673" cy="47.33333333333333" r="2" stroke="black" fill="black"/>
<circle cx="502.23591147615787" cy="42.333333333333336" r="2" stroke="black" fill="black"/>
<circle cx="502.23591147615787" cy="43.0" r="2" stroke="black" fill="black"/>
<circle cx="912.3659593885467" cy="6.333333333333333" r="2" stroke="black" fill="black"/>
<circle cx="912.3659593885467" cy="18.333333333333336" r="2" stroke="black" fill="black"/>
<circle cx="341.25028519279033" cy="2.0" r="2" stroke="black" fill="black"/>
<circle cx="341.25028519279033" cy="6.333333333333333" r="2" stroke="black" fill="black"/>
<circle cx="536.7328313940224" cy="49.33333333333333" r="2" stroke="black" fill="black"/>
<circle cx="318.2523385808807" cy="5.0" r="2" stroke="black" fill="black"/>
<circle cx="912.3659593885467" cy="31.333333333333336" r="2" stroke="black" fill="black"/>
<circle cx="559.730778005932" cy="7.333333333333333" r="2" stroke="black" fill="black"/>
<circle cx="912.3659593885467" cy="54.0" r="2" stroke="black" fill="black"/>
<circle cx="310.58635637691077" cy="52.666666666666664" r="2" stroke="black" fill="black"/>
<circle cx="356.58224960073005" cy="19.333333333333336" r="2" stroke="black" fill="black"/>
<circle cx="571.252566735113" cy="38.66666666666667" r="2" stroke="black" fill="black"/>
<circle cx="977.5496235455169" cy="46.666666666666664" r="2" stroke="black" fill="black"/>
<circle cx="628.747433264887" cy="13.0" r="2" stroke="black" fill="black"/>
<circle cx="628.747433264887" cy="25.333333333333332" r="2" stroke="black" fill="black"/>
<circle cx="628.747433264887" cy="31.000000000000004" r="2" stroke="black" fill="black"/>
<circle cx="628.747433264887" cy="37.0" r="2" stroke="black" fill="black"/>
<circle cx="628.747433264887" cy="50.333333333333336" r="2" stroke="black" fill="black"/>
<circle cx="628.747433264887" cy="54.666666666666664" r="2" stroke="black" fill="black"/>
<circle cx="310.58635637691077" cy="45.0" r="2" stroke="black" fill="black"/>
<circle cx="655.5555555555555" cy="25.0" r="2" stroke="black" fill="black"/>
<circle cx="655.5555555555555" cy="33.666666666666664" r="2" stroke="black" fill="black"/>
<circle cx="663.2215377595254" cy="43.333333333333336" r="2" stroke="black" fill="black"/>
<circle cx="663.2215377595254" cy="44.66666666666667" r="2" stroke="black" fill="black"/>
<circle cx="678.5535021674652" cy="49.33333333333333" r="2" stroke="black" fill="black"/>
<circle cx="682.3864932694502" cy="53.66666666666667" r="2" stroke="black" fill="black"/>
<circle cx="728.3823864932695" cy="7.0" r="2" stroke="black" fill="black"/>
<circle cx="310.58635637691077" cy="44.0" r="2" stroke="black" fill="black"/>
<circle cx="954.528861510381" cy="46.0" r="2" stroke="black" fill="black"/>
<circle cx="751.380333105179" cy="28.333333333333332" r="2" stroke="black" fill="black"/>
<circle cx="310.58635637691077" cy="40.0" r="2" stroke="black" fill="black"/>
<circle cx="759.0463153091489" cy="52.666666666666664" r="2" stroke="black" fill="black"/>
<circle cx="356.58224960073005" cy="50.666666666666664" r="2" stroke="black" fill="black"/>
<circle cx="782.0670773442847" cy="35.333333333333336" r="2" stroke="black" fill="black"/>
<circle cx="797.3990417522244" cy="1.3333333333333335" r="2" stroke="black" fill="black"/>
<circle cx="797.3990417522244" cy="31.333333333333336" r="2" stroke="black" fill="black"/>
<circle cx="797.3990417522244" cy="41.0" r="2" stroke="black" fill="black"/>
<circle cx="805.0650239561944" cy="7.666666666666666" r="2" stroke="black" fill="black"/>
<circle cx="828.062970568104" cy="39.333333333333336" r="2" stroke="black" fill="black"/>
<circle cx="835.7289527720739" cy="10.666666666666668" r="2" stroke="black" fill="black"/>
<circle cx="356.58224960073005" cy="48.666666666666664" r="2" stroke="black" fill="black"/>
<circle cx="835.7289527720739" cy="19.333333333333336" r="2" stroke="black" fill="black"/>
<circle cx="966.0278348163358" cy="37.666666666666664" r="2" stroke="black" fill="black"/>
<circle cx="966.0278348163358" cy="46.333333333333336" r="2" stroke="black" fill="black"/>
<circle cx="421.7659137577002" cy="31.666666666666668" r="2" stroke="black" fill="black"/>
<circle cx="421.7659137577002" cy="34.0" r="2" stroke="black" fill="black"/>
<circle cx="421.7659137577002" cy="40.0" r="2" stroke="black" fill="black"/>
<circle cx="406.4339493497605" cy="45.0" r="2" stroke="black" fill="black"/>
<circle cx="421.7659137577002" cy="49.0" r="2" stroke="black" fill="black"/>
</svg>
